<svg width="64" height="64" viewBox="0 0 64 64" fill="none" xmlns="http://www.w3.org/2000/svg">
<path d="M28 22C26.3457 22 25 23.3457 25 25V28.9824C25.1033 32.9377 30.8969 32.938 31 28.9823L31 27.6953C41.9834 25.0847 39.0547 9.94671 28.9999 10.0001C24.0371 10 20 14.0371 20 19C20.1057 22.9567 25.8958 22.955 26 18.9999C26 17.3457 27.3457 16 29 16C30.6543 16 32 17.3457 32 19C32 20.4834 31.5244 22 28 22ZM29 14C26.2432 14 24 16.2432 24 19C24 19.5518 23.5518 20 23 20C22.4482 20 22 19.5518 22 19C22 15.1406 25.1406 12 29 12C32.8594 12 36 15.1406 36 19C36 20.4004 35.5566 25.0361 29.8555 25.8721C29.3643 25.9443 29 26.3652 29 26.8613V28.9824C28.9947 30.2856 27.0062 30.2933 27 28.9824L27 25C27 24.4482 27.4482 24 28 24C32.959 24 34 21.2813 34 19C34 16.2432 31.7568 14 29 14ZM28 33C24.0441 33.1037 24.0449 38.8969 28.0001 39C31.9559 38.8964 31.9551 33.1031 28 33ZM28 37C26.6925 36.9936 26.6926 35.0062 28.0001 35C29.3075 35.0064 29.3074 36.9938 28 37Z" fill="black"/>
<path d="M29.0303 43H20C19.7344 43 19.4805 43.1055 19.293 43.293L15 47.5859V42.6299C15 42.2432 14.7773 41.8916 14.4277 41.7266C9.91602 39.5889 7 34.9863 7 30V20C7 12.832 12.832 7 20 7H38C45.168 7 51 12.832 51 20V30C50.9146 30.6978 51.0344 31.5207 51.8839 31.6054C52.78 31.6935 53.0997 30.7503 52.9999 30L53 20C53 11.7285 46.2715 5 38 5H20C11.7285 5 5 11.7285 5 20V30C5 35.542 8.12012 40.6729 13 43.2471V50C12.972 50.8635 14.113 51.3395 14.707 50.707L20.4141 45H29.0303C30.3375 44.9951 30.3385 43.005 29.0303 43Z" fill="black"/>
<path d="M58.9583 57.7128L57.1985 51.8456C62.5129 42.7921 55.4955 30.8184 45.0001 31.0001C37.2805 30.9999 31.0003 37.2802 31.0003 44.9999C30.8513 56.1837 44.0711 63.0308 53.0882 56.415L57.5149 58.874C58.2589 59.3227 59.2379 58.5378 58.9583 57.7128ZM55.1575 52.0038L56.3352 55.9316L53.4934 54.3525C53.1438 54.1591 52.7083 54.1913 52.3909 54.4394C50.2552 56.1142 47.6995 56.9999 45.0003 56.9999C29.0837 56.3432 29.0823 33.6572 45.0004 32.9999C51.6175 32.9999 57.0003 38.3828 57.0003 44.9999C57.0003 47.1757 56.3987 49.3193 55.26 51.1982C55.1136 51.4404 55.0764 51.7333 55.1575 52.0038Z" fill="#EA5016"/>
<path d="M38.7097 44.2899C37.757 43.3983 36.3877 44.7451 37.2898 45.7098C38.2206 46.6195 39.6151 45.2327 38.7097 44.2899ZM45.7097 44.2899C44.7683 43.3917 43.387 44.7616 44.2898 45.7098C45.2212 46.623 46.6156 45.229 45.7097 44.2899ZM52.5496 44.1698C51.5696 43.4946 50.4516 44.8822 51.2898 45.7098C52.3597 46.6856 53.7342 45 52.5496 44.1698Z" fill="#EA5016"/>
</svg>
