<svg width="390" height="382" viewBox="0 0 390 382" fill="none" xmlns="http://www.w3.org/2000/svg">
<rect width="390" height="382" rx="8" fill="white"/>
<g clip-path="url(#clip0_386_746)">
<path d="M359.72 326.603L360.141 325.824C354.491 322.768 347.46 318.965 343.787 312.725C340.167 306.574 340.086 298.22 343.575 290.925C346.545 284.716 352 279.153 359.351 274.838C360.801 273.987 362.323 273.18 363.795 272.4C367.353 270.514 371.032 268.564 374.066 265.798C378.244 261.988 381.405 255.594 379.049 249.898C378.274 248.08 377.005 246.516 375.386 245.383C373.767 244.25 371.862 243.594 369.889 243.489L369.839 244.374C371.647 244.47 373.392 245.071 374.875 246.108C376.359 247.145 377.522 248.578 378.233 250.243C380.422 255.536 377.418 261.542 373.469 265.144C370.518 267.834 366.889 269.757 363.38 271.617C361.9 272.402 360.369 273.213 358.903 274.074C351.399 278.479 345.822 284.174 342.776 290.542C339.161 298.1 339.256 306.772 343.024 313.175C346.822 319.627 353.973 323.495 359.72 326.603Z" fill="#F1F1F1"/>
<path d="M364.273 248.159C368.555 248.159 372.026 246.473 372.026 244.393C372.026 242.314 368.555 240.628 364.273 240.628C359.991 240.628 356.521 242.314 356.521 244.393C356.521 246.473 359.991 248.159 364.273 248.159Z" fill="#F1F1F1"/>
<path d="M358.071 272.967C362.352 272.967 365.823 271.281 365.823 269.202C365.823 267.122 362.352 265.436 358.071 265.436C353.789 265.436 350.318 267.122 350.318 269.202C350.318 271.281 353.789 272.967 358.071 272.967Z" fill="#F1F1F1"/>
<path d="M372.248 276.954C376.529 276.954 380 275.268 380 273.189C380 271.109 376.529 269.423 372.248 269.423C367.966 269.423 364.495 271.109 364.495 273.189C364.495 275.268 367.966 276.954 372.248 276.954Z" fill="#F1F1F1"/>
<path d="M350.097 297.775C354.379 297.775 357.85 296.089 357.85 294.01C357.85 291.93 354.379 290.244 350.097 290.244C345.816 290.244 342.345 291.93 342.345 294.01C342.345 296.089 345.816 297.775 350.097 297.775Z" fill="#F1F1F1"/>
<path d="M334.592 297.775C338.874 297.775 342.345 296.089 342.345 294.01C342.345 291.93 338.874 290.244 334.592 290.244C330.311 290.244 326.84 291.93 326.84 294.01C326.84 296.089 330.311 297.775 334.592 297.775Z" fill="#F1F1F1"/>
<path d="M70.8177 249.691H43.3097C42.5648 249.691 41.8507 249.394 41.3239 248.868C40.7972 248.341 40.5009 247.627 40.5 246.882V156.245C40.5009 155.5 40.7972 154.786 41.3239 154.259C41.8507 153.733 42.5648 153.436 43.3097 153.436H70.8177C71.5626 153.436 72.2767 153.733 72.8034 154.259C73.3302 154.786 73.6265 155.5 73.6274 156.245V246.882C73.6265 247.627 73.3302 248.341 72.8034 248.868C72.2767 249.394 71.5626 249.691 70.8177 249.691Z" fill="#EA6E40"/>
<path d="M120.983 249.691H93.4747C92.7298 249.69 92.0157 249.394 91.489 248.868C90.9622 248.341 90.6659 247.627 90.665 246.882V120.278C90.6659 119.533 90.9622 118.819 91.489 118.292C92.0157 117.766 92.7298 117.469 93.4747 117.469H120.983C121.728 117.469 122.442 117.766 122.968 118.292C123.495 118.819 123.792 119.533 123.792 120.278V246.882C123.792 247.627 123.495 248.341 122.968 248.868C122.442 249.394 121.728 249.69 120.983 249.691Z" fill="#EA6E40"/>
<path d="M171.147 249.691H143.639C142.894 249.691 142.18 249.394 141.653 248.868C141.126 248.341 140.83 247.627 140.829 246.882V156.245C140.83 155.5 141.126 154.786 141.653 154.259C142.18 153.733 142.894 153.436 143.639 153.436H171.147C171.892 153.436 172.606 153.733 173.133 154.259C173.659 154.786 173.956 155.5 173.956 156.245V246.882C173.956 247.627 173.659 248.341 173.133 248.868C172.606 249.394 171.892 249.691 171.147 249.691Z" fill="#EA6E40"/>
<path d="M221.311 249.691H193.803C193.075 249.707 192.37 249.434 191.844 248.931C191.317 248.428 191.011 247.737 190.993 247.009V105.953C191.011 105.225 191.317 104.534 191.844 104.032C192.37 103.529 193.075 103.255 193.803 103.271H221.311C222.039 103.255 222.743 103.529 223.27 104.032C223.797 104.534 224.102 105.225 224.121 105.953V247.009C224.102 247.737 223.797 248.428 223.27 248.931C222.743 249.434 222.039 249.707 221.311 249.691Z" fill="#EA6E40"/>
<path d="M271.475 249.691H243.967C243.222 249.691 242.508 249.394 241.981 248.868C241.454 248.341 241.158 247.627 241.157 246.882V80.5253C241.158 79.7804 241.454 79.0663 241.981 78.5396C242.508 78.0129 243.222 77.7166 243.967 77.7158H271.475C272.22 77.7166 272.934 78.0129 273.461 78.5396C273.987 79.0663 274.284 79.7804 274.285 80.5253V246.882C274.284 247.627 273.987 248.341 273.461 248.868C272.934 249.394 272.22 249.691 271.475 249.691Z" fill="#EA6E40"/>
<path d="M57.0637 142.077C60.2002 142.077 62.7427 139.535 62.7427 136.398C62.7427 133.262 60.2002 130.719 57.0637 130.719C53.9273 130.719 51.3848 133.262 51.3848 136.398C51.3848 139.535 53.9273 142.077 57.0637 142.077Z" fill="#3F3D56"/>
<path d="M107.228 105.164C110.364 105.164 112.907 102.622 112.907 99.4851C112.907 96.3487 110.364 93.8062 107.228 93.8062C104.091 93.8062 101.549 96.3487 101.549 99.4851C101.549 102.622 104.091 105.164 107.228 105.164Z" fill="#3F3D56"/>
<path d="M157.393 142.077C160.529 142.077 163.072 139.535 163.072 136.398C163.072 133.262 160.529 130.719 157.393 130.719C154.256 130.719 151.714 133.262 151.714 136.398C151.714 139.535 154.256 142.077 157.393 142.077Z" fill="#3F3D56"/>
<path d="M207.557 87.1807C210.693 87.1807 213.236 84.6381 213.236 81.5017C213.236 78.3653 210.693 75.8228 207.557 75.8228C204.42 75.8228 201.878 78.3653 201.878 81.5017C201.878 84.6381 204.42 87.1807 207.557 87.1807Z" fill="#3F3D56"/>
<path d="M257.721 66.3577C260.857 66.3577 263.4 63.8152 263.4 60.6787C263.4 57.5423 260.857 54.9998 257.721 54.9998C254.585 54.9998 252.042 57.5423 252.042 60.6787C252.042 63.8152 254.585 66.3577 257.721 66.3577Z" fill="#3F3D56"/>
<path d="M303.709 250.746H10.443C10.3255 250.746 10.2128 250.699 10.1298 250.616C10.0467 250.533 10 250.421 10 250.303C10 250.186 10.0467 250.073 10.1298 249.99C10.2128 249.907 10.3255 249.86 10.443 249.86H303.709C303.827 249.86 303.94 249.907 304.023 249.99C304.106 250.073 304.152 250.186 304.152 250.303C304.152 250.421 304.106 250.533 304.023 250.616C303.94 250.699 303.827 250.746 303.709 250.746Z" fill="#CBCBCB"/>
<path d="M376.804 326.499H233.272C233.155 326.499 233.042 326.453 232.959 326.37C232.876 326.286 232.829 326.174 232.829 326.056C232.829 325.939 232.876 325.826 232.959 325.743C233.042 325.66 233.155 325.613 233.272 325.613H376.804C376.922 325.613 377.035 325.66 377.118 325.743C377.201 325.826 377.247 325.939 377.247 326.056C377.247 326.174 377.201 326.286 377.118 326.37C377.035 326.453 376.922 326.499 376.804 326.499Z" fill="#CBCBCB"/>
<path d="M284.632 243.546C284.996 243.184 285.276 242.746 285.453 242.264C285.63 241.782 285.699 241.267 285.656 240.755C285.612 240.243 285.457 239.747 285.2 239.302C284.944 238.857 284.594 238.474 284.173 238.179L285.915 230.342L281.411 228.122L279.107 239.223C278.658 239.962 278.496 240.84 278.651 241.691C278.806 242.542 279.268 243.306 279.949 243.838C280.63 244.371 281.483 244.636 282.346 244.582C283.209 244.528 284.022 244.159 284.632 243.546Z" fill="#FFB7B7"/>
<path d="M333.886 243.717C334.221 243.328 334.467 242.87 334.606 242.376C334.745 241.882 334.774 241.363 334.691 240.856C334.608 240.349 334.415 239.867 334.125 239.443C333.835 239.019 333.456 238.663 333.014 238.402L334.144 230.454L329.482 228.589L328.043 239.835C327.653 240.607 327.559 241.495 327.78 242.331C328.001 243.167 328.52 243.893 329.24 244.371C329.961 244.85 330.831 245.048 331.688 244.927C332.544 244.807 333.326 244.376 333.886 243.717Z" fill="#FFB7B7"/>
<path d="M298.776 321.721L294.183 321.72L291.998 304.005L298.777 304.005L298.776 321.721Z" fill="#FFB7B7"/>
<path d="M299.946 326.173L285.137 326.172V325.985C285.137 324.456 285.744 322.99 286.825 321.909C287.906 320.828 289.372 320.221 290.901 320.221L299.947 320.221L299.946 326.173Z" fill="#2F2E41"/>
<path d="M314.135 321.721L309.542 321.72L307.357 304.005L314.136 304.005L314.135 321.721Z" fill="#FFB7B7"/>
<path d="M315.307 326.173L300.497 326.172V325.985C300.497 324.456 301.105 322.99 302.186 321.909C303.267 320.828 304.733 320.221 306.261 320.221L315.307 320.221L315.307 326.173Z" fill="#2F2E41"/>
<path d="M323.383 172.674L328.336 170.887C328.336 170.887 330.438 171.333 330.438 177.034C330.438 182.735 336.021 235.901 336.021 235.901L326.251 238.473L320.729 188.032L323.383 172.674Z" fill="#2F2E41"/>
<path d="M290.288 172.674L285.335 170.887C285.335 170.887 283.233 171.333 283.233 177.034C283.233 182.735 277.65 235.901 277.65 235.901L287.42 238.473L292.943 188.032L290.288 172.674Z" fill="#2F2E41"/>
<path d="M290.352 233.311L288.998 273.248L291.995 317.426L299.718 317.604L300.842 276.394L307.21 255.789L306.568 316.521L315.312 316.416L320.728 274.633C320.728 274.633 327.88 240.054 323.914 233.311L305.648 227.237L290.352 233.311Z" fill="#2F2E41"/>
<path d="M290.5 228.499L290.06 238.106C290.06 238.106 296.222 241.173 307.055 239.305C317.887 237.436 325.088 238.668 325.088 238.668L324.256 226.421L290.5 228.499Z" fill="#E5E5E5"/>
<path d="M285.139 171.029L299.383 164.787L300.232 161.518L314.089 161.919L314.688 165.259L328.336 170.887L322.323 191.795L322.939 206.504L330.438 233.311C330.438 233.311 324.113 238.682 308.918 236.371L306.296 231.088L304.693 236.675C304.693 236.675 291.368 241.577 287.676 235.196L290.352 189.104L285.139 171.029Z" fill="#2F2E41"/>
<path d="M307.034 158.447C312.116 158.447 316.236 154.327 316.236 149.245C316.236 144.164 312.116 140.044 307.034 140.044C301.953 140.044 297.833 144.164 297.833 149.245C297.833 154.327 301.953 158.447 307.034 158.447Z" fill="#FFB7B7"/>
<path d="M317.968 145.68C317.803 144.931 317.487 144.224 317.038 143.602C316.859 141.883 316.286 140.229 315.362 138.768C315.001 138.083 314.487 137.49 313.861 137.035C313.144 136.622 312.326 136.418 311.499 136.446C311.349 136.443 311.079 136.489 310.837 136.5C310.681 136.452 310.524 136.409 310.367 136.368C310.275 136.164 310.094 135.569 310.043 135.61L309.357 136.154C309.068 136.104 308.776 136.065 308.484 136.034C308.377 135.73 308.271 135.426 308.165 135.123C307.992 135.394 307.841 135.679 307.712 135.974C307.421 135.96 307.13 135.955 306.838 135.959L306.256 135.399C306.221 135.555 306.142 135.698 306.028 135.81C305.914 135.922 305.77 135.998 305.613 136.029C305.345 136.056 305.078 136.092 304.812 136.135C304.79 136.135 304.768 136.135 304.747 136.134C303.312 136.099 301.769 136.034 300.569 136.822C300.007 137.207 299.551 137.726 299.239 138.332C299.092 138.431 298.945 138.53 298.802 138.636C298.321 138.965 297.904 139.378 297.571 139.856C297.33 140.269 297.146 140.713 297.027 141.176C296.569 142.569 296.357 144.031 296.4 145.497C296.449 146.972 297.006 148.386 297.976 149.499C298.592 150.16 299.374 150.648 299.99 151.308C301.259 152.668 301.496 154.564 302.582 156.003C303.729 157.524 305.824 158.526 307.664 158.813C308.77 158.979 309.898 158.926 310.983 158.655C312.068 158.385 313.089 157.902 313.988 157.235C314.419 156.935 314.785 156.551 315.064 156.107C315.703 155.002 315.432 153.614 315.669 152.361C316.114 150.011 318.356 148.039 317.968 145.68Z" fill="#2F2E41"/>
<path d="M56.7614 136.754L56.2324 136.043L107.229 98.0768L157.231 135.373L207.917 80.3417L208.008 80.3045L257.199 60.0022L257.537 60.8213L208.436 81.0859L157.341 136.561L107.228 99.1816L56.7614 136.754Z" fill="#3F3D56"/>
</g>
<defs>
<clipPath id="clip0_386_746">
<rect width="370" height="271.603" fill="white" transform="translate(10 55)"/>
</clipPath>
</defs>
</svg>
