<svg width="390" height="382" viewBox="0 0 390 382" fill="none" xmlns="http://www.w3.org/2000/svg">
<rect width="390" height="382" rx="8" fill="white"/>
<g clip-path="url(#clip0_390_862)">
<path d="M41.2918 257.917C44.4477 262.919 48.2925 267.45 52.7128 271.379C52.8138 271.471 52.9175 271.56 53.0212 271.65L62.4588 266.042C62.389 265.947 62.3119 265.841 62.2293 265.725C57.3017 258.864 35.0471 213.224 34.9111 203.117C34.894 203.954 26.9021 235.366 41.2918 257.917Z" fill="#E6E6E6"/>
<path d="M50.8918 272.461C51.0376 272.527 51.1864 272.59 51.3363 272.651L58.4166 268.444C58.3061 268.38 58.1771 268.305 58.0292 268.22C55.6054 266.804 48.3935 262.55 41.2925 257.917C33.6628 252.937 26.157 247.522 24.8545 244.722C25.1255 245.367 33.5263 264.947 50.8918 272.461Z" fill="#E6E6E6"/>
<path d="M349.994 276.316C349.836 282.228 348.846 288.088 347.052 293.723C347.013 293.854 346.969 293.983 346.926 294.114H335.948C335.959 293.996 335.971 293.865 335.983 293.723C336.715 285.308 332.533 234.704 327.487 225.946C327.929 226.656 350.846 249.578 349.994 276.316Z" fill="#E6E6E6"/>
<path d="M349.17 293.723C349.078 293.854 348.983 293.985 348.885 294.114H340.649C340.712 294.002 340.784 293.872 340.868 293.723C342.229 291.268 346.255 283.927 349.993 276.316C354.009 268.137 357.696 259.649 357.385 256.576C357.481 257.269 360.261 278.393 349.17 293.723Z" fill="#E6E6E6"/>
<path d="M188.135 293.808H61.1824C58.1734 293.805 55.2886 292.608 53.1609 290.48C51.0332 288.353 49.8364 285.468 49.833 282.459V98.3494C49.8364 95.3404 51.0332 92.4556 53.1609 90.3279C55.2886 88.2002 58.1734 87.0034 61.1824 87H188.135C191.144 87.0034 194.029 88.2002 196.156 90.3279C198.284 92.4556 199.481 95.3404 199.484 98.3494V282.459C199.481 285.468 198.284 288.353 196.156 290.48C194.029 292.608 191.144 293.805 188.135 293.808Z" fill="#CACACA"/>
<path d="M188.358 286.567H60.9585C60.031 286.566 59.1417 286.197 58.4858 285.541C57.83 284.885 57.461 283.996 57.46 283.069V97.7398C57.461 96.8122 57.83 95.923 58.4858 95.2671C59.1417 94.6112 60.031 94.2423 60.9585 94.2412H188.358C189.285 94.2423 190.175 94.6112 190.831 95.2671C191.486 95.923 191.855 96.8122 191.856 97.7398V283.069C191.855 283.996 191.486 284.885 190.831 285.541C190.175 286.197 189.285 286.566 188.358 286.567Z" fill="white"/>
<path d="M124.175 91.4412C124.709 91.4412 125.141 91.009 125.141 90.4757C125.141 89.9425 124.709 89.5103 124.175 89.5103C123.642 89.5103 123.21 89.9425 123.21 90.4757C123.21 91.009 123.642 91.4412 124.175 91.4412Z" fill="white"/>
<path d="M379.527 294.477H10.4734C10.3478 294.477 10.2274 294.428 10.1386 294.339C10.0499 294.25 10 294.13 10 294.004C10 293.879 10.0499 293.758 10.1386 293.669C10.2274 293.581 10.3478 293.531 10.4734 293.531H379.527C379.652 293.531 379.773 293.581 379.861 293.669C379.95 293.758 380 293.879 380 294.004C380 294.13 379.95 294.25 379.861 294.339C379.773 294.428 379.652 294.477 379.527 294.477Z" fill="#CACACA"/>
<path d="M124.657 240.596C131.464 240.596 136.982 235.078 136.982 228.272C136.982 221.465 131.464 215.948 124.657 215.948C117.851 215.948 112.333 221.465 112.333 228.272C112.333 235.078 117.851 240.596 124.657 240.596Z" fill="#E4E4E4"/>
<path d="M132.373 204.617H116.941L107.625 159.044C107.386 156.665 107.648 154.261 108.394 151.989C109.14 149.717 110.355 147.626 111.958 145.852C113.562 144.078 115.52 142.659 117.706 141.688C119.891 140.716 122.256 140.214 124.648 140.212C127.039 140.211 129.405 140.711 131.592 141.679C133.778 142.648 135.738 144.064 137.344 145.837C138.95 147.609 140.166 149.698 140.915 151.97C141.664 154.241 141.929 156.644 141.693 159.024L132.373 204.617Z" fill="#E4E4E4"/>
<path d="M185.292 143.361H241.695C244.417 143.361 247.058 144.287 249.184 145.987C251.309 147.686 252.794 150.059 253.392 152.714L281.892 279.126C282.203 280.504 282.208 281.935 281.908 283.316C281.608 284.697 281.009 285.996 280.153 287.121C279.298 288.246 278.207 289.171 276.957 289.83C275.706 290.489 274.327 290.866 272.915 290.936L214.932 293.793C211.827 293.946 208.773 292.964 206.339 291.03C203.905 289.097 202.257 286.344 201.704 283.285L185.537 193.91L182.479 177.005L177.967 152.057C177.773 150.988 177.818 149.89 178.098 148.841C178.378 147.792 178.885 146.817 179.585 145.987C180.285 145.156 181.159 144.49 182.145 144.036C183.132 143.583 184.206 143.352 185.292 143.361Z" fill="#3F3D56"/>
<path d="M234.269 146.086H240.853C242.744 146.086 244.578 146.733 246.05 147.919C247.523 149.105 248.546 150.758 248.949 152.606L276.304 277.986C276.462 278.708 276.462 279.455 276.304 280.177C276.146 280.899 275.835 281.578 275.39 282.168C274.946 282.759 274.379 283.246 273.729 283.597C273.079 283.949 272.361 284.156 271.624 284.204L213.828 287.992C212.198 288.099 210.585 287.601 209.298 286.595C208.01 285.589 207.139 284.143 206.849 282.535L183.506 152.943C183.355 152.104 183.39 151.242 183.608 150.418C183.827 149.594 184.223 148.829 184.77 148.175C185.316 147.521 186 146.995 186.772 146.634C187.544 146.273 188.386 146.086 189.238 146.086H195.484C196.089 146.086 196.676 146.285 197.156 146.653C197.636 147.021 197.981 147.536 198.138 148.12C198.277 148.635 198.582 149.091 199.005 149.415C199.429 149.74 199.948 149.916 200.482 149.916H230.133C231.178 149.916 232.185 149.521 232.952 148.811C233.718 148.101 234.189 147.128 234.269 146.086Z" fill="white"/>
<path d="M263.44 186.277C263.625 186.396 263.8 186.53 263.963 186.677L283.069 181.807L284.372 177.198L291.585 178.255L290.071 186.639C289.948 187.316 289.61 187.936 289.105 188.404C288.601 188.872 287.958 189.165 287.274 189.237L264.966 191.586C264.603 192.351 264.015 192.988 263.28 193.411C262.546 193.834 261.701 194.024 260.856 193.955C260.011 193.886 259.208 193.561 258.552 193.024C257.897 192.487 257.42 191.763 257.186 190.948C256.952 190.134 256.971 189.268 257.241 188.464C257.512 187.661 258.02 186.959 258.699 186.452C259.378 185.945 260.195 185.656 261.042 185.625C261.889 185.594 262.725 185.821 263.44 186.277Z" fill="#FFB6B6"/>
<path d="M249.806 203.563C256.612 203.563 262.13 198.045 262.13 191.238C262.13 184.432 256.612 178.914 249.806 178.914C242.999 178.914 237.481 184.432 237.481 191.238C237.481 198.045 242.999 203.563 249.806 203.563Z" fill="#EA6E40"/>
<path d="M257.522 167.584H242.09L232.773 122.011C232.534 119.631 232.796 117.228 233.542 114.956C234.289 112.683 235.503 110.593 237.107 108.818C238.711 107.044 240.668 105.626 242.854 104.654C245.04 103.683 247.404 103.18 249.796 103.179C252.188 103.178 254.553 103.677 256.74 104.646C258.927 105.615 260.886 107.031 262.492 108.803C264.098 110.576 265.315 112.665 266.064 114.936C266.813 117.208 267.078 119.611 266.841 121.991L257.522 167.584Z" fill="#EA6E40"/>
<path d="M292.874 182.439L287.953 186.685L281.067 192.62L278.026 177.06L277.707 175.442L277.457 174.158L284.434 162.004L290.251 162.338L290.648 162.362L290.656 162.449L290.747 163.264L291.94 173.991L291.968 174.249L292.874 182.439Z" fill="#3F3D56"/>
<path d="M260.704 288.856L255.83 288.856L253.511 270.056L260.705 270.056L260.704 288.856Z" fill="#FFB6B6"/>
<path d="M261.947 293.58L246.231 293.58V293.381C246.232 291.759 246.876 290.203 248.023 289.056C249.17 287.909 250.726 287.264 252.349 287.264H252.349L261.948 287.265L261.947 293.58Z" fill="#2F2E41"/>
<path d="M311.592 289.254L306.717 289.253L304.398 270.453L311.592 270.454L311.592 289.254Z" fill="#FFB6B6"/>
<path d="M312.835 293.978L297.119 293.977V293.779C297.119 292.156 297.764 290.6 298.911 289.453C300.058 288.306 301.614 287.662 303.236 287.662H303.237L312.835 287.662L312.835 293.978Z" fill="#2F2E41"/>
<path d="M315.488 280.975L302.368 282.962L283.281 218.367L263.01 283.36L248.3 281.372L267.383 205.836V199.872L269.967 190.927L269.696 188.506L267.816 171.574L267.001 164.231L266.948 163.756C266.904 163.358 267.009 162.958 267.244 162.633C267.479 162.309 267.826 162.083 268.218 162L274.34 160.712H284.347L290.25 162.338L290.656 162.45L290.839 162.501L290.747 163.265L289.364 174.866L289.288 175.502L287.953 186.685L287.658 189.138C299.188 197.487 299.585 205.836 299.585 205.836L315.488 280.975Z" fill="#2F2E41"/>
<path d="M278.134 155.683C283.526 155.683 287.898 151.311 287.898 145.918C287.898 140.525 283.526 136.154 278.134 136.154C272.741 136.154 268.369 140.525 268.369 145.918C268.369 151.311 272.741 155.683 278.134 155.683Z" fill="#FFB6B6"/>
<path d="M288.39 186.894L269.074 189.42L269.435 192.18L288.751 189.654L288.39 186.894Z" fill="#3F3D56"/>
<path d="M243.164 190.252C243.348 190.372 243.523 190.506 243.687 190.653L262.792 185.782L264.096 181.173L271.309 182.231L269.794 190.615C269.672 191.292 269.333 191.911 268.829 192.38C268.325 192.848 267.682 193.14 266.998 193.212L244.69 195.561C244.326 196.327 243.738 196.964 243.004 197.387C242.27 197.81 241.424 198 240.58 197.93C239.735 197.861 238.931 197.536 238.276 196.999C237.62 196.462 237.144 195.739 236.91 194.924C236.675 194.11 236.695 193.243 236.965 192.44C237.235 191.637 237.744 190.935 238.423 190.428C239.102 189.921 239.919 189.632 240.766 189.601C241.613 189.569 242.449 189.797 243.164 190.252Z" fill="#FFB6B6"/>
<path d="M272.551 164.489L269.172 161.905C268.258 161.558 267.006 162.543 266.786 163.495L262.016 182.976L271.955 190.132L273.346 187.945L272.551 164.489Z" fill="#3F3D56"/>
<g opacity="0.2">
<path d="M291.939 173.991C291.096 174.326 290.236 174.618 289.363 174.866C289.085 174.949 288.798 175.029 288.516 175.104C286.655 175.62 284.743 175.93 282.815 176.026C281.985 176.062 281.153 176.039 280.326 175.959C279.439 175.87 278.561 175.697 277.706 175.442C277.678 175.434 277.647 175.426 277.619 175.418C275.841 174.913 274.212 173.987 272.868 172.719C272.568 172.426 272.288 172.114 272.029 171.784C271.287 170.875 270.742 169.821 270.43 168.69C270.118 167.558 270.045 166.374 270.216 165.213C270.25 165.002 270.295 164.794 270.352 164.589C270.501 164.029 270.699 163.484 270.944 162.959C271.051 162.712 271.171 162.47 271.298 162.231L275.79 160.712H284.346L290.249 162.338L290.647 162.362L290.655 162.45L290.838 162.501L290.746 163.265L291.939 173.991Z" fill="black"/>
</g>
<path d="M270.652 137.834C268.825 137.61 266.821 137.769 265.398 138.934C263.975 140.1 263.515 142.523 264.863 143.776C266.056 144.885 267.922 144.624 269.52 144.939C270.896 145.248 272.129 146.009 273.022 147.102C273.915 148.194 274.415 149.555 274.443 150.965C274.419 155.01 270.537 158.073 269.84 162.057C269.364 164.777 270.511 167.638 272.493 169.559C274.476 171.48 277.202 172.518 279.948 172.799C282.694 173.08 285.471 172.651 288.14 171.945C290.82 171.237 293.459 170.232 295.707 168.611C297.956 166.99 299.8 164.704 300.522 162.028C301.244 159.351 300.725 156.283 298.865 154.228C296.734 151.875 293.19 151.065 291.347 148.481C289.281 145.583 290.045 141.457 288.373 138.316C287.257 136.219 285.143 134.789 282.89 134.035C280.637 133.282 278.231 133.133 275.857 133.06C274.608 133.021 273.322 133.009 272.159 133.464C270.996 133.919 269.974 134.956 269.914 136.203C269.853 137.45 270.652 137.834 270.652 137.834Z" fill="#2F2E41"/>
</g>
<defs>
<clipPath id="clip0_390_862">
<rect width="370" height="207.477" fill="white" transform="translate(10 87)"/>
</clipPath>
</defs>
</svg>
