<svg width="390" height="390" viewBox="0 0 390 390" fill="none" xmlns="http://www.w3.org/2000/svg">
<path d="M390 298.272H0V298.467H390V298.272Z" fill="#EBEBEB"/>
<path d="M66.7525 305.698H40.9189V305.893H66.7525V305.698Z" fill="#EBEBEB"/>
<path d="M176.717 303.584H133.489V303.779H176.717V303.584Z" fill="#EBEBEB"/>
<path d="M85.9482 310.331H70.98V310.526H85.9482V310.331Z" fill="#EBEBEB"/>
<path d="M334.347 305.604H300.659V305.799H334.347V305.604Z" fill="#EBEBEB"/>
<path d="M346.234 305.604H341.297V305.799H346.234V305.604Z" fill="#EBEBEB"/>
<path d="M252.759 308.342H216.224V308.537H252.759V308.342Z" fill="#EBEBEB"/>
<path d="M184.86 263.484H34.2497C33.0698 263.482 31.939 263.012 31.1054 262.177C30.2719 261.342 29.8037 260.21 29.8037 259.03V47.3147C29.814 46.1416 30.2867 45.0199 31.1191 44.1933C31.9516 43.3667 33.0766 42.9019 34.2497 42.8999H184.86C186.041 42.8999 187.174 43.3691 188.009 44.2044C188.844 45.0396 189.314 46.1725 189.314 47.3537V259.03C189.314 260.211 188.844 261.344 188.009 262.179C187.174 263.015 186.041 263.484 184.86 263.484ZM34.2497 43.0559C33.1216 43.058 32.0403 43.5076 31.2433 44.306C30.4463 45.1045 29.9987 46.1865 29.9987 47.3147V259.03C29.9987 260.158 30.4463 261.24 31.2433 262.039C32.0403 262.837 33.1216 263.287 34.2497 263.289H184.86C185.989 263.287 187.071 262.837 187.869 262.039C188.667 261.241 189.117 260.159 189.119 259.03V47.3147C189.117 46.1858 188.667 45.1038 187.869 44.3056C187.071 43.5073 185.989 43.058 184.86 43.0559H34.2497Z" fill="#EBEBEB"/>
<path d="M353.582 263.484H202.964C201.783 263.482 200.651 263.012 199.817 262.177C198.982 261.342 198.512 260.211 198.51 259.03V47.3147C198.522 46.1409 198.997 45.0192 199.83 44.1928C200.664 43.3664 201.79 42.9019 202.964 42.8999H353.582C354.753 42.904 355.876 43.3697 356.707 44.1961C357.538 45.0224 358.01 46.1429 358.02 47.3147V259.03C358.02 260.209 357.553 261.339 356.721 262.174C355.889 263.009 354.76 263.48 353.582 263.484ZM202.964 43.0559C201.835 43.058 200.753 43.5073 199.954 44.3056C199.156 45.1038 198.707 46.1858 198.705 47.3147V259.03C198.707 260.159 199.156 261.241 199.954 262.039C200.753 262.837 201.835 263.287 202.964 263.289H353.582C354.71 263.287 355.792 262.837 356.591 262.039C357.389 261.241 357.838 260.159 357.84 259.03V47.3147C357.838 46.1858 357.389 45.1038 356.591 44.3056C355.792 43.5073 354.71 43.058 353.582 43.0559H202.964Z" fill="#EBEBEB"/>
<path d="M232.315 58.0242H81.7285V166.124H232.315V58.0242Z" fill="#FAFAFA"/>
<path d="M223.743 166.132L185.445 58.0242H156.702L195 166.132H223.743Z" fill="white"/>
<path d="M146.453 166.132L108.155 58.0242H97.6714L135.969 166.132H146.453Z" fill="white"/>
<path d="M74.5526 54.3113H239.499C239.587 54.3113 239.674 54.3287 239.755 54.3625C239.836 54.3963 239.909 54.4458 239.971 54.5082C240.032 54.5706 240.081 54.6446 240.114 54.726C240.147 54.8073 240.163 54.8944 240.162 54.9821C240.162 55.1579 240.092 55.3266 239.968 55.4509C239.844 55.5752 239.675 55.6451 239.499 55.6451H74.5526C74.3761 55.6451 74.2066 55.5755 74.081 55.4514C73.9555 55.3273 73.8839 55.1586 73.8818 54.9821C73.8818 54.8042 73.9525 54.6336 74.0783 54.5078C74.2041 54.382 74.3747 54.3113 74.5526 54.3113Z" fill="#E0E0E0"/>
<path d="M157.919 57.7979H156.133V166.366H157.919V57.7979Z" fill="#F0F0F0"/>
<path d="M156.125 57.7979H155.235V166.366H156.125V57.7979Z" fill="#E0E0E0"/>
<path d="M80.6909 111.181V112.967L233.36 112.967V111.181L80.6909 111.181Z" fill="#F0F0F0"/>
<path d="M80.6909 165.36V56.9399H233.353V165.36V167.146H80.6909V165.36ZM231.574 165.36V58.7729H82.4771V165.36H231.574Z" fill="#F0F0F0"/>
<path d="M80.6831 56.9868H79.7939V167.17H80.6831V56.9868Z" fill="#E0E0E0"/>
<path opacity="0.5" d="M102.827 52.6733V179.626H70.5977L76.5101 52.6733H102.827Z" fill="#EBEBEB"/>
<path opacity="0.5" d="M210.327 52.6733V179.626H242.557L236.644 52.6733H210.327Z" fill="#EBEBEB"/>
<path d="M60.5902 194.836H48.2974V294.544H60.5902V194.836Z" fill="#F0F0F0"/>
<path d="M186.093 294.543H50.6611V298.272H186.093V294.543Z" fill="#F0F0F0"/>
<path d="M60.598 294.543H188.456V194.836H60.598L60.598 294.543Z" fill="#F5F5F5"/>
<path d="M59.3192 191.583H46.7534V194.836H59.3192V191.583Z" fill="#F0F0F0"/>
<path d="M59.311 194.836L189.992 194.836V191.584L59.311 191.584V194.836Z" fill="#FAFAFA"/>
<path d="M184.033 250.949H65.0132V201.661H184.033V250.949ZM65.84 250.123H183.207V202.488H65.84V250.123Z" fill="#E0E0E0"/>
<path d="M184.033 287.711H65.0132V255.879H184.033V287.711ZM65.84 286.884H183.207V256.706H65.84V286.884Z" fill="#E0E0E0"/>
<path d="M166.904 202.074H82.1418C81.5387 202.074 81.0498 202.563 81.0498 203.166V203.627C81.0498 204.23 81.5387 204.719 82.1418 204.719H166.904C167.507 204.719 167.996 204.23 167.996 203.627V203.166C167.996 202.563 167.507 202.074 166.904 202.074Z" fill="#E0E0E0"/>
<path d="M166.904 256.292H82.1418C81.5387 256.292 81.0498 256.781 81.0498 257.384V257.844C81.0498 258.448 81.5387 258.936 82.1418 258.936H166.904C167.507 258.936 167.996 258.448 167.996 257.844V257.384C167.996 256.781 167.507 256.292 166.904 256.292Z" fill="#E0E0E0"/>
<path d="M271.331 293.483H342.841V75.3011H271.331V293.483Z" fill="#F0F0F0"/>
<path d="M271.331 75.3088H269.061V293.49H271.331V75.3088Z" fill="#E0E0E0"/>
<path d="M282.937 285.16H331.243V83.6237H282.937V285.16Z" fill="#FAFAFA"/>
<path d="M195 333.497C278.524 333.497 346.234 329.544 346.234 324.667C346.234 319.791 278.524 315.838 195 315.838C111.475 315.838 43.7656 319.791 43.7656 324.667C43.7656 329.544 111.475 333.497 195 333.497Z" fill="#F5F5F5"/>
<path d="M111.821 317.874L117.928 315.557L114.184 300.799L108.077 303.116L111.821 317.874Z" fill="#B55B52"/>
<path d="M65.9331 317.998H72.4617L73.4445 302.866H66.9081L65.9331 317.998Z" fill="#B55B52"/>
<path d="M73.117 317.242H65.1532C65.0253 317.24 64.9009 317.283 64.8023 317.365C64.7036 317.446 64.6373 317.56 64.615 317.686L63.6166 323.489C63.5965 323.634 63.6078 323.782 63.6495 323.922C63.6913 324.062 63.7627 324.191 63.8588 324.301C63.9549 324.412 64.0736 324.5 64.2067 324.56C64.3399 324.621 64.4844 324.652 64.6306 324.652C67.189 324.605 69.0532 324.457 72.2824 324.457C74.2636 324.457 80.2618 324.667 83.0074 324.667C85.753 324.667 85.9714 321.953 84.8326 321.703C79.747 320.603 75.8782 319.09 74.1934 317.639C73.8929 317.384 73.5116 317.243 73.117 317.242Z" fill="#263238"/>
<path d="M117.616 314.87L110.947 317.398C110.825 317.444 110.723 317.53 110.656 317.642C110.59 317.754 110.563 317.885 110.58 318.014L111.438 323.895C111.453 324.04 111.502 324.18 111.58 324.303C111.658 324.426 111.763 324.529 111.888 324.605C112.013 324.68 112.153 324.726 112.298 324.738C112.444 324.75 112.59 324.729 112.725 324.675C115.112 323.723 117.148 322.514 120.19 321.422C123.665 320.293 127.008 318.789 130.158 316.937C132.42 315.502 131.469 312.772 130.4 313.201C125.549 315.151 124.355 315.791 119.262 314.808C118.718 314.676 118.148 314.697 117.616 314.87Z" fill="#263238"/>
<path d="M100.386 118.942C102.437 122.577 104.606 126.321 106.79 129.94C108.974 133.559 111.212 137.179 113.591 140.548C114.161 141.398 114.8 142.217 115.378 143.005C115.505 143.234 115.678 143.436 115.885 143.598C116.25 143.785 116.665 143.851 117.07 143.785C117.816 143.709 118.548 143.533 119.246 143.263C121.016 142.568 122.706 141.684 124.285 140.626C125.128 140.072 125.986 139.503 126.82 138.895C127.655 138.286 128.497 137.631 129.262 137.046L132.92 140.306C132.253 141.27 131.537 142.2 130.775 143.091C130.038 143.99 129.257 144.852 128.435 145.673C127.591 146.523 126.698 147.323 125.759 148.067C124.782 148.867 123.738 149.582 122.639 150.205C121.399 150.923 120.066 151.466 118.677 151.819C116.95 152.265 115.139 152.265 113.412 151.819C111.546 151.3 109.873 150.245 108.599 148.785C107.819 147.88 107.039 147.03 106.337 146.133C103.513 142.629 100.885 138.97 98.4672 135.174C96.0492 131.414 93.7872 127.647 91.7124 123.638L100.386 118.942Z" fill="#B65B52"/>
<path d="M88.7952 119.246C87.0402 125.237 99.4344 141.57 99.4344 141.57L111.914 133.528C109.561 128.334 106.655 123.407 103.249 118.833C98.1552 112.32 90.7296 112.671 88.7952 119.246Z" fill="#EA5016"/>
<path opacity="0.2" d="M88.7952 119.246C87.0402 125.237 99.4344 141.57 99.4344 141.57L111.914 133.528C109.561 128.334 106.655 123.407 103.249 118.833C98.1552 112.32 90.7296 112.671 88.7952 119.246Z" fill="black"/>
<path opacity="0.2" d="M96.4159 126.274C98.9899 127.374 102.773 133.567 104.746 138.161L99.4345 141.57C96.4735 137.612 93.809 133.441 91.4629 129.09C93.1399 127.226 95.0587 125.697 96.4159 126.274Z" fill="black"/>
<path d="M128.489 139.082L130.782 132.662L137.28 135.782C137.28 135.782 135.93 141.5 131.172 141.492L128.489 139.082Z" fill="#B55B52"/>
<path d="M136.562 128.443L139.315 131.477L137.28 135.767L130.782 132.662L136.562 128.443Z" fill="#B55B52"/>
<path opacity="0.2" d="M114.184 300.807L116.111 308.412L110.003 310.728L108.077 303.123L114.184 300.807Z" fill="black"/>
<path opacity="0.2" d="M66.9084 302.874H73.4448L72.9378 310.666H66.4014L66.9084 302.874Z" fill="black"/>
<path d="M59.6855 116.594C66.7055 141.406 65.5668 167.731 66.0036 173.082L100.916 171.772C106.852 134.784 96.2363 114.2 96.2363 114.2C96.2363 114.2 93.9977 113.771 90.948 113.459C89.9963 113.357 88.9668 113.272 87.8904 113.217C87.2976 113.178 86.697 113.162 86.0886 113.147C81.1314 113.231 76.1831 113.6 71.2686 114.254C70.3404 114.371 69.3966 114.504 68.4762 114.66C67.5558 114.816 66.7991 114.956 66.0113 115.112C62.3999 115.822 59.6855 116.594 59.6855 116.594Z" fill="#EA5016"/>
<path opacity="0.2" d="M59.6855 116.594C66.7055 141.406 65.5668 167.731 66.0036 173.082L100.916 171.772C106.852 134.784 96.2363 114.2 96.2363 114.2C96.2363 114.2 93.9977 113.771 90.948 113.459C89.9963 113.357 88.9668 113.272 87.8904 113.217C87.2976 113.178 86.697 113.162 86.0886 113.147C81.1314 113.231 76.1831 113.6 71.2686 114.254C70.3404 114.371 69.3966 114.504 68.4762 114.66C67.5558 114.816 66.7991 114.956 66.0113 115.112C62.3999 115.822 59.6855 116.594 59.6855 116.594Z" fill="black"/>
<path opacity="0.2" d="M67.1191 127.241C67.7431 129.636 67.0255 140.595 64.5217 143.294C64.1785 139.784 63.7417 136.126 63.1177 132.374L67.1191 127.241Z" fill="black"/>
<path d="M71.4635 97.5C72.7505 102.18 74.3339 110.854 71.2373 114.278C74.0219 116.665 77.6255 119.387 83.2961 119.161C88.9667 118.934 87.6953 115.12 86.0495 113.178C80.6363 112.304 80.4803 108.358 81.1355 104.598L71.4635 97.5Z" fill="#B55B52"/>
<path d="M83.4444 118.326L84.474 119.02L80.7144 120.12L81.6816 118.373L83.4444 118.326Z" fill="#EA5016"/>
<path d="M84.8636 117.959L84.4736 119.02L88.2488 120.12L87.9914 118.1L84.8636 117.959Z" fill="#EA5016"/>
<path d="M68.983 113.88L70.465 113.139C70.702 113.02 70.9671 112.969 71.2313 112.991C71.4955 113.013 71.7485 113.107 71.9626 113.264C75.3908 115.751 79.3106 117.476 83.4598 118.326C80.4802 119.746 81.2134 123.568 81.2134 123.568C81.2134 123.568 71.7364 120.448 68.7334 114.785C68.6484 114.631 68.6269 114.451 68.6736 114.281C68.7202 114.112 68.8313 113.968 68.983 113.88Z" fill="white"/>
<path d="M87.703 112.905L85.5268 112.577C85.4706 112.568 85.413 112.576 85.3612 112.6C85.3095 112.623 85.2658 112.662 85.2358 112.71C85.2058 112.758 85.1908 112.815 85.1926 112.871C85.1944 112.928 85.213 112.983 85.246 113.03C86.026 114.114 87.274 116.493 84.8638 117.959C87.8434 119.379 88.7638 122.866 88.7638 122.866C88.7638 122.866 92.6638 118.677 88.1242 113.147C88.0157 113.02 87.867 112.935 87.703 112.905Z" fill="white"/>
<path opacity="0.2" d="M75.4024 100.355L81.1198 104.52C80.9545 105.4 80.8684 106.292 80.8624 107.188C78.811 107.047 75.8548 105.027 75.4804 102.913C75.3028 102.072 75.2764 101.205 75.4024 100.355Z" fill="black"/>
<path d="M88.0384 87.8358C87.7732 90.1056 85.597 92.0556 84.193 92.5158L82.438 82.68C86.377 79.8954 88.405 84.6534 88.0384 87.8358Z" fill="#263238"/>
<path d="M69.4902 90.5579C70.629 96.9383 70.9644 100.737 74.5914 103.662C80.0514 108.061 87.6408 104.2 88.4364 97.6091C89.154 91.6733 87.1728 82.2353 80.5896 80.4023C79.1394 79.992 77.6085 79.9589 76.142 80.3064C74.6755 80.6538 73.3221 81.3702 72.2102 82.3875C71.0984 83.4049 70.2648 84.6894 69.7888 86.1194C69.3128 87.5493 69.21 89.0771 69.4902 90.5579Z" fill="#B55B52"/>
<path d="M70.7067 94.8636C73.6629 96.4236 74.9577 92.9058 74.9889 91.4706C74.9889 89.193 74.0373 86.6892 72.8595 85.7766C78.5691 85.7766 89.8635 85.4958 87.0087 80.0592C84.1539 74.6226 78.4287 75.2388 74.1621 78.2184C71.8923 79.7784 64.5447 78.4212 66.3621 82.6566C62.5323 84.6924 65.8551 92.2818 70.7067 94.8636Z" fill="#263238"/>
<path d="M66.9862 82.3056C65.9682 82.3005 64.9797 81.9637 64.1704 81.3462C64.303 81.9163 64.619 82.4273 65.0698 82.8006C65.5207 83.174 66.0815 83.3892 66.6664 83.4132L66.9862 82.3056Z" fill="#263238"/>
<path d="M67.08 95.8074C67.8119 97.2756 69.0925 98.3964 70.6446 98.9274C72.7038 99.5904 73.1718 97.7028 72.6726 95.7216C72.2202 93.9276 71.253 91.5018 69.1548 91.6968C67.0566 91.8918 66.2064 94.0134 67.08 95.8074Z" fill="#B55B52"/>
<path d="M108.521 240.825C105.869 221.067 100.916 171.771 100.916 171.771L78 172.637C78 172.637 88.8264 221.894 92.742 241.87C96.6576 261.846 107.562 310.05 107.562 310.05L117.905 306.15C117.905 306.15 111.29 261.37 108.521 240.825Z" fill="#263238"/>
<path opacity="0.2" d="M86.5797 185.913C84.6925 186.364 82.9407 187.26 81.4707 188.526C83.6391 198.487 86.4705 211.598 88.9041 223.15C90.5265 213.143 90.5733 194.259 86.5797 185.913Z" fill="black"/>
<path d="M88.5379 172.24C88.5379 172.24 83.6629 225.716 81.4321 244.717C78.9907 265.535 75.9721 309.161 75.9721 309.161H63.9601C63.9601 309.161 63.4687 270.574 65.0209 250.2C66.7915 226.995 65.9959 173.082 65.9959 173.082L88.5379 172.24Z" fill="#263238"/>
<path d="M77.5316 309.418H63.4448L63.1484 305.206L78.8732 304.933L77.5316 309.418Z" fill="#EA5016"/>
<path d="M119.254 305.885L106.93 310.557L105.425 306.571L119.122 301.142L119.254 305.885Z" fill="#EA5016"/>
<path d="M79.4508 91.2601C79.5054 91.7905 79.833 92.1805 80.1762 92.1415C80.5194 92.1025 80.7456 91.6423 80.6832 91.1197C80.6208 90.5971 80.301 90.2071 79.9578 90.2461C79.6146 90.2851 79.3884 90.7063 79.4508 91.2601Z" fill="#263238"/>
<path d="M85.3629 90.5501C85.4253 91.0727 85.7529 91.4627 86.0883 91.4237C86.4237 91.3847 86.6655 90.9323 86.6031 90.4097C86.5407 89.8871 86.2131 89.4893 85.8699 89.5283C85.5267 89.5673 85.3005 90.0275 85.3629 90.5501Z" fill="#263238"/>
<path d="M83.5146 91.0259C84.3213 92.5536 85.3344 93.9631 86.5254 95.2145C86.201 95.5161 85.8139 95.7424 85.3919 95.8772C84.9699 96.0121 84.5233 96.0521 84.0841 95.9945L83.5146 91.0259Z" fill="#A02724"/>
<path d="M82.0402 97.6247C81.4478 97.6233 80.8621 97.5008 80.3188 97.2647C79.7756 97.0287 79.2863 96.684 78.8812 96.2519C78.866 96.2364 78.8543 96.2178 78.8467 96.1975C78.8391 96.1771 78.8359 96.1554 78.8372 96.1337C78.8385 96.112 78.8443 96.0909 78.8543 96.0716C78.8642 96.0523 78.8781 96.0353 78.895 96.0216C78.9119 96.008 78.9315 95.998 78.9524 95.9924C78.9734 95.9868 78.9953 95.9856 79.0168 95.9889C79.0382 95.9922 79.0588 96 79.0771 96.0117C79.0953 96.0234 79.111 96.0388 79.123 96.0569C79.579 96.5273 80.1392 96.8839 80.7584 97.0979C81.3776 97.312 82.0384 97.3776 82.6876 97.2893C82.7076 97.286 82.7282 97.2869 82.7479 97.2919C82.7676 97.2969 82.7861 97.3059 82.8022 97.3183C82.8183 97.3307 82.8317 97.3464 82.8415 97.3642C82.8513 97.382 82.8573 97.4017 82.8592 97.4219C82.8636 97.4621 82.8523 97.5025 82.8276 97.5345C82.8028 97.5665 82.7666 97.5877 82.7266 97.5935C82.499 97.6228 82.2694 97.6333 82.0402 97.6247Z" fill="#263238"/>
<path d="M77.4071 89.5285C77.3562 89.5437 77.302 89.5437 77.2511 89.5285C77.216 89.5083 77.1852 89.4814 77.1606 89.4491C77.136 89.4169 77.1181 89.3801 77.1079 89.3409C77.0977 89.3016 77.0955 89.2608 77.1013 89.2206C77.1072 89.1805 77.121 89.142 77.1419 89.1073C77.3797 88.6798 77.716 88.3152 78.123 88.0439C78.53 87.7726 78.9959 87.6023 79.4819 87.5473C79.5229 87.5452 79.5639 87.5512 79.6026 87.565C79.6412 87.5787 79.6768 87.6 79.7072 87.6275C79.7377 87.6551 79.7624 87.6883 79.7799 87.7254C79.7975 87.7625 79.8075 87.8027 79.8095 87.8437C79.8116 87.8843 79.8056 87.9249 79.7917 87.9631C79.7779 88.0013 79.7565 88.0363 79.7289 88.0662C79.7012 88.096 79.6679 88.1199 79.6308 88.1367C79.5938 88.1534 79.5538 88.1625 79.5131 88.1635C79.1269 88.2124 78.7575 88.3516 78.435 88.5698C78.1125 88.7879 77.8459 89.0789 77.6567 89.4193C77.6278 89.4572 77.5897 89.4871 77.5461 89.5062C77.5024 89.5253 77.4546 89.533 77.4071 89.5285Z" fill="#263238"/>
<path d="M87.6796 88.2259C87.628 88.2238 87.5775 88.2093 87.5327 88.1835C87.4879 88.1576 87.45 88.1213 87.4222 88.0777C87.2241 87.7429 86.9485 87.4606 86.6187 87.2543C86.289 87.048 85.9145 86.9238 85.5268 86.8921C85.4441 86.8921 85.3647 86.8592 85.3062 86.8007C85.2477 86.7422 85.2148 86.6628 85.2148 86.5801C85.2148 86.4973 85.2477 86.418 85.3062 86.3594C85.3647 86.3009 85.4441 86.2681 85.5268 86.2681C86.0169 86.3077 86.4907 86.4626 86.9096 86.7202C87.3285 86.9777 87.6805 87.3306 87.937 87.7501C87.9587 87.7838 87.9734 87.8215 87.9804 87.861C87.9874 87.9005 87.9865 87.941 87.9778 87.9801C87.9691 88.0193 87.9528 88.0563 87.9297 88.0891C87.9067 88.1219 87.8773 88.1498 87.8434 88.1713C87.7955 88.2053 87.7385 88.2243 87.6796 88.2259Z" fill="#263238"/>
<path d="M75.3324 318.38C74.7509 318.366 74.1729 318.287 73.6086 318.146C73.579 318.139 73.5522 318.124 73.5314 318.101C73.5106 318.079 73.4968 318.052 73.4916 318.022C73.4838 317.992 73.4856 317.961 73.4969 317.933C73.5081 317.905 73.5281 317.881 73.554 317.866C73.7802 317.717 75.8238 316.423 76.5648 316.789C76.6466 316.831 76.7161 316.893 76.7667 316.97C76.8173 317.046 76.8472 317.134 76.8534 317.226C76.881 317.375 76.8696 317.529 76.8205 317.672C76.7713 317.816 76.6859 317.944 76.5726 318.045C76.2111 318.298 75.7723 318.417 75.3324 318.38ZM74.0532 317.928C75.1686 318.146 76.0188 318.107 76.3932 317.811C76.4684 317.74 76.5249 317.652 76.5576 317.554C76.5903 317.456 76.5981 317.351 76.5804 317.249C76.5804 317.125 76.5102 317.086 76.4712 317.07C76.0578 316.875 74.88 317.46 74.0532 317.928Z" fill="#EA5016"/>
<path d="M73.6477 318.146C73.6195 318.153 73.5901 318.153 73.5619 318.146C73.5384 318.131 73.519 318.11 73.5054 318.086C73.4919 318.061 73.4844 318.034 73.4839 318.006C73.4839 317.928 73.5541 316.04 74.2639 315.424C74.3496 315.344 74.4523 315.284 74.5644 315.249C74.6765 315.214 74.7951 315.204 74.9113 315.221C75.0298 315.223 75.1445 315.264 75.2375 315.337C75.3306 315.41 75.3969 315.512 75.4261 315.627C75.5977 316.352 74.3653 317.788 73.7023 318.154C73.6837 318.157 73.6648 318.154 73.6477 318.146ZM74.8333 315.502C74.7066 315.503 74.5846 315.551 74.4901 315.635C74.0585 316.232 73.824 316.949 73.8193 317.686C74.4667 317.171 75.2389 316.126 75.1375 315.658C75.1375 315.619 75.1375 315.533 74.9035 315.502H74.8333Z" fill="#EA5016"/>
<path d="M118.56 315.487C118.53 315.488 118.501 315.48 118.476 315.465C118.451 315.45 118.432 315.427 118.419 315.401C118.403 315.375 118.394 315.345 118.394 315.315C118.394 315.284 118.403 315.255 118.419 315.229C118.645 314.98 120.627 312.803 121.539 312.936C121.624 312.945 121.705 312.977 121.773 313.028C121.842 313.079 121.895 313.146 121.929 313.225C121.991 313.345 122.023 313.479 122.023 313.615C122.023 313.75 121.991 313.884 121.929 314.005C121.485 314.847 119.644 315.276 118.583 315.448L118.56 315.487ZM121.438 313.24C120.915 313.24 119.776 314.262 118.981 315.097C120.416 314.808 121.399 314.363 121.648 313.888C121.691 313.806 121.713 313.715 121.713 313.622C121.713 313.53 121.691 313.439 121.648 313.357C121.636 313.326 121.616 313.299 121.59 313.279C121.564 313.258 121.533 313.245 121.5 313.24H121.438Z" fill="#EA5016"/>
<path d="M118.56 315.487H118.513C118.487 315.479 118.463 315.466 118.444 315.446C118.425 315.427 118.411 315.403 118.404 315.377C118.404 315.307 117.928 313.599 118.458 312.663C118.533 312.528 118.635 312.411 118.757 312.317C118.879 312.223 119.019 312.155 119.168 312.117C119.581 312 119.769 312.164 119.862 312.312C120.237 312.959 119.277 314.839 118.661 315.432C118.65 315.449 118.635 315.462 118.617 315.472C118.599 315.481 118.58 315.486 118.56 315.487ZM119.41 312.367H119.246C119.136 312.393 119.033 312.443 118.944 312.513C118.855 312.583 118.783 312.671 118.731 312.772C118.473 313.475 118.44 314.241 118.638 314.964C119.215 314.184 119.815 312.811 119.589 312.421C119.558 312.437 119.519 312.374 119.386 312.382L119.41 312.367Z" fill="#EA5016"/>
<path d="M66.8615 125.83C64.9037 129.862 62.9069 134.027 60.9725 138.13C60.0131 140.197 59.0459 142.256 58.1411 144.323L56.7839 147.443L56.1599 148.98L56.0039 149.37L55.8869 149.659C55.8089 149.838 55.7543 150.033 55.6841 150.212C55.2001 151.749 55.1142 153.384 55.4345 154.963C55.8167 156.796 56.5105 158.551 57.4859 160.15C58.5596 161.939 59.8029 163.621 61.1987 165.173C61.9085 165.953 62.6573 166.78 63.4373 167.513C63.8273 167.887 64.2173 168.293 64.6307 168.628C65.0441 168.964 65.4575 169.408 65.8007 169.681L63.1799 173.854C62.0527 173.281 60.9613 172.64 59.9117 171.935C58.8743 171.257 57.8603 170.539 56.8775 169.759C54.8533 168.156 53.0212 166.323 51.4175 164.299C49.6705 162.126 48.3356 159.652 47.4785 156.998C46.5659 154.072 46.4342 150.959 47.0963 147.966C47.1977 147.599 47.2757 147.186 47.3927 146.858L47.6969 145.891L48.2429 144.167C48.6329 143.036 49.0229 141.898 49.4285 140.782C50.2475 138.544 51.1055 136.328 52.0337 134.144C53.8199 129.792 55.8245 125.58 58.0553 121.313L66.8615 125.83Z" fill="#B65B52"/>
<path d="M59.6857 116.594C53.7265 118.459 47.8687 138.668 47.8687 138.668L61.6201 144.706C61.6201 144.706 66.0817 134.94 68.6401 127.288C71.4715 118.95 66.9007 114.332 59.6857 116.594Z" fill="#EA5016"/>
<path opacity="0.2" d="M59.6857 116.594C53.7265 118.459 47.8687 138.668 47.8687 138.668L61.6201 144.706C61.6201 144.706 66.0817 134.94 68.6401 127.288C71.4715 118.95 66.9007 114.332 59.6857 116.594Z" fill="black"/>
<path d="M64.3187 168.417L70.0205 171.803L64.4747 177.325C64.4747 177.325 59.6621 173.62 61.0973 170.718L64.3187 168.417Z" fill="#B55B52"/>
<path d="M73.8346 177.208L68.1094 181.217L64.4746 177.325L70.0204 171.803L73.8346 177.208Z" fill="#B55B52"/>
<path d="M349.725 166.951L349.453 170.709L350.231 170.765L350.503 167.008L349.725 166.951Z" fill="#EA5016"/>
<path d="M350.753 152.724L349.964 163.623L350.742 163.679L351.531 152.78L350.753 152.724Z" fill="#EA5016"/>
<path d="M329.41 275.34H138.364C137 275.356 135.647 275.086 134.393 274.548C133.139 274.01 132.012 273.215 131.083 272.216C130.155 271.216 129.446 270.033 129.002 268.743C128.558 267.452 128.388 266.084 128.505 264.724L138.645 123.7C138.896 120.845 140.194 118.183 142.289 116.226C144.384 114.27 147.128 113.156 149.994 113.1H341.039C342.403 113.083 343.756 113.352 345.01 113.889C346.264 114.426 347.391 115.22 348.32 116.219C349.248 117.218 349.958 118.401 350.402 119.69C350.846 120.98 351.015 122.349 350.899 123.708L340.759 264.732C340.509 267.589 339.212 270.252 337.117 272.211C335.022 274.169 332.277 275.283 329.41 275.34Z" fill="#EA5016"/>
<path d="M284.973 324.667H222.955L211.903 248.04H273.921L284.973 324.667Z" fill="#EA5016"/>
<path d="M275.122 320.096H208.042L206.708 324.667H273.796L275.122 320.096Z" fill="#EA5016"/>
<path d="M277.189 284.926L216.747 281.627L211.903 248.04H271.869L277.189 284.926Z" fill="#263238"/>
<path d="M327.257 275.34H136.204C134.837 275.355 133.483 275.084 132.228 274.543C130.973 274.003 129.845 273.205 128.918 272.202C127.99 271.198 127.283 270.012 126.843 268.718C126.402 267.425 126.238 266.054 126.36 264.693L136.5 123.669C136.758 120.822 138.057 118.169 140.148 116.22C142.239 114.27 144.975 113.159 147.833 113.1H338.887C340.25 113.084 341.602 113.353 342.855 113.891C344.107 114.429 345.234 115.223 346.162 116.222C347.09 117.221 347.798 118.403 348.242 119.692C348.686 120.982 348.855 122.349 348.738 123.708L338.598 264.732C338.35 267.588 337.055 270.252 334.961 272.21C332.867 274.168 330.123 275.283 327.257 275.34Z" fill="#263238"/>
<path d="M348.244 125.03L342.445 205.927L343.192 205.981L348.991 125.084L348.244 125.03Z" fill="white"/>
<path d="M341.969 212.971L339.96 240.987L340.707 241.04L342.716 213.024L341.969 212.971Z" fill="white"/>
<path d="M326.82 272.672H136.984C135.922 272.684 134.869 272.473 133.894 272.054C132.918 271.634 132.041 271.015 131.319 270.236C130.597 269.458 130.046 268.537 129.701 267.532C129.356 266.528 129.225 265.462 129.316 264.404L139.386 123.957C139.58 121.73 140.593 119.654 142.227 118.128C143.862 116.603 146.004 115.737 148.239 115.697H338.107C339.168 115.686 340.22 115.896 341.195 116.315C342.17 116.734 343.047 117.353 343.769 118.13C344.491 118.908 345.042 119.828 345.387 120.832C345.733 121.835 345.864 122.9 345.774 123.957L335.704 264.42C335.508 266.651 334.49 268.73 332.849 270.254C331.208 271.779 329.06 272.64 326.82 272.672Z" fill="white"/>
<path opacity="0.2" d="M326.82 272.672H136.984C135.922 272.684 134.869 272.473 133.894 272.054C132.918 271.634 132.041 271.015 131.319 270.236C130.597 269.458 130.046 268.537 129.701 267.532C129.356 266.528 129.225 265.462 129.316 264.404L139.386 123.957C139.58 121.73 140.593 119.654 142.227 118.128C143.862 116.603 146.004 115.737 148.239 115.697H338.107C339.168 115.686 340.22 115.896 341.195 116.315C342.17 116.734 343.047 117.353 343.769 118.13C344.491 118.908 345.042 119.828 345.387 120.832C345.733 121.835 345.864 122.9 345.774 123.957L335.704 264.42C335.508 266.651 334.49 268.73 332.849 270.254C331.208 271.779 329.06 272.64 326.82 272.672Z" fill="#EA5016"/>
<path opacity="0.5" d="M185.687 266.448H141.352C140.839 266.454 140.33 266.353 139.858 266.15C139.386 265.948 138.962 265.649 138.613 265.273C138.264 264.897 137.998 264.451 137.831 263.966C137.665 263.48 137.602 262.965 137.647 262.454L147.428 125.954C147.521 124.876 148.01 123.871 148.801 123.134C149.592 122.396 150.629 121.978 151.71 121.961H196.045C196.559 121.953 197.068 122.054 197.541 122.255C198.013 122.457 198.437 122.756 198.787 123.133C199.136 123.509 199.402 123.955 199.568 124.441C199.734 124.927 199.796 125.443 199.75 125.954L189.969 262.454C189.875 263.531 189.385 264.535 188.594 265.273C187.804 266.01 186.768 266.429 185.687 266.448Z" fill="white"/>
<path opacity="0.4" d="M183.971 141.18H161.023C160.561 141.185 160.103 141.093 159.679 140.911C159.254 140.728 158.873 140.459 158.558 140.12C158.244 139.782 158.004 139.381 157.854 138.945C157.703 138.508 157.646 138.044 157.685 137.584L157.934 134.066C158.019 133.097 158.46 132.193 159.171 131.529C159.882 130.865 160.815 130.488 161.788 130.47H184.743C185.205 130.465 185.663 130.557 186.087 130.74C186.512 130.922 186.893 131.191 187.208 131.53C187.522 131.868 187.762 132.269 187.913 132.706C188.063 133.142 188.121 133.606 188.081 134.066L187.824 137.584C187.748 138.557 187.31 139.466 186.597 140.131C185.883 140.797 184.946 141.171 183.971 141.18Z" fill="#EA5016"/>
<path d="M169.377 196.404H134.347C133.543 196.414 132.747 196.256 132.007 195.941C131.268 195.625 130.603 195.159 130.055 194.572C129.506 193.984 129.086 193.289 128.822 192.53C128.558 191.771 128.455 190.965 128.521 190.164L131.04 155.095C131.195 153.409 131.967 151.841 133.208 150.689C134.449 149.538 136.071 148.884 137.764 148.855H172.801C173.604 148.846 174.4 149.004 175.138 149.32C175.877 149.636 176.541 150.103 177.088 150.69C177.636 151.278 178.055 151.973 178.319 152.731C178.583 153.49 178.685 154.295 178.62 155.095L176.108 190.133C175.962 191.826 175.192 193.404 173.949 194.563C172.705 195.721 171.076 196.377 169.377 196.404Z" fill="#EA5016"/>
<path d="M174.4 167.7C173.753 167.713 173.134 167.965 172.662 168.407C172.19 168.849 171.898 169.45 171.842 170.094L171.475 175.18C171.449 175.486 171.487 175.794 171.588 176.085C171.688 176.375 171.848 176.642 172.057 176.867C172.267 177.091 172.521 177.27 172.804 177.391C173.086 177.511 173.391 177.571 173.698 177.567H177.255C177.416 177.565 177.57 177.503 177.687 177.394C177.804 177.284 177.875 177.134 177.887 176.974L178.511 168.293C178.517 168.216 178.508 168.14 178.483 168.067C178.458 167.995 178.418 167.929 178.366 167.873C178.314 167.817 178.25 167.773 178.18 167.743C178.109 167.713 178.034 167.698 177.957 167.7H174.4Z" fill="white"/>
<path d="M160.883 157.739H138.84C138.717 157.741 138.594 157.716 138.481 157.668C138.368 157.619 138.266 157.547 138.182 157.457C138.098 157.367 138.035 157.26 137.995 157.143C137.955 157.026 137.94 156.903 137.951 156.78C137.972 156.52 138.089 156.278 138.28 156.101C138.47 155.923 138.72 155.823 138.98 155.82H161.062C161.185 155.819 161.308 155.843 161.421 155.892C161.534 155.94 161.636 156.012 161.72 156.103C161.804 156.193 161.868 156.3 161.907 156.417C161.947 156.533 161.962 156.657 161.951 156.78C161.928 157.045 161.804 157.292 161.606 157.47C161.408 157.648 161.149 157.744 160.883 157.739Z" fill="white"/>
<path d="M160.539 162.614H138.45C138.327 162.616 138.204 162.592 138.091 162.543C137.978 162.494 137.876 162.423 137.792 162.332C137.708 162.242 137.644 162.135 137.605 162.018C137.565 161.901 137.55 161.778 137.561 161.655C137.584 161.397 137.702 161.157 137.892 160.981C138.082 160.805 138.331 160.706 138.59 160.703H160.68C160.803 160.701 160.925 160.724 161.038 160.772C161.151 160.819 161.253 160.89 161.337 160.98C161.421 161.07 161.485 161.177 161.525 161.293C161.565 161.409 161.58 161.533 161.569 161.655C161.548 161.914 161.43 162.156 161.24 162.334C161.049 162.511 160.8 162.611 160.539 162.614Z" fill="white"/>
<path d="M152.552 167.497H138.099C137.976 167.497 137.854 167.472 137.742 167.423C137.629 167.374 137.528 167.302 137.444 167.212C137.361 167.122 137.297 167.016 137.256 166.899C137.216 166.783 137.2 166.66 137.21 166.538C137.231 166.278 137.349 166.036 137.539 165.859C137.729 165.681 137.979 165.581 138.239 165.578H152.693C152.816 165.577 152.938 165.601 153.052 165.65C153.165 165.698 153.267 165.77 153.351 165.86C153.434 165.951 153.498 166.058 153.538 166.174C153.578 166.291 153.593 166.415 153.582 166.538C153.559 166.796 153.441 167.037 153.251 167.215C153.061 167.392 152.812 167.492 152.552 167.497Z" fill="white"/>
<path opacity="0.5" d="M160.945 190.741H139.62C139.093 190.747 138.57 190.643 138.086 190.435C137.601 190.227 137.166 189.92 136.807 189.534C136.448 189.147 136.175 188.69 136.004 188.191C135.833 187.693 135.768 187.164 135.814 186.638L136.594 175.414C136.688 174.309 137.19 173.278 138.001 172.521C138.812 171.765 139.876 171.336 140.985 171.319H162.349C162.876 171.313 163.398 171.417 163.882 171.624C164.365 171.832 164.801 172.138 165.159 172.524C165.518 172.909 165.791 173.366 165.963 173.864C166.135 174.361 166.2 174.889 166.156 175.414L165.376 186.638C165.279 187.75 164.771 188.787 163.952 189.545C163.133 190.303 162.061 190.73 160.945 190.741Z" fill="white"/>
<path opacity="0.4" d="M180.89 209.523H154.308C154.079 209.526 153.852 209.482 153.642 209.392C153.431 209.302 153.242 209.168 153.086 209.001C152.931 208.833 152.812 208.635 152.737 208.419C152.663 208.202 152.634 207.973 152.654 207.745C152.696 207.265 152.915 206.817 153.268 206.489C153.621 206.16 154.083 205.974 154.565 205.967H181.147C181.375 205.965 181.601 206.01 181.811 206.101C182.02 206.191 182.208 206.325 182.363 206.492C182.518 206.659 182.637 206.857 182.711 207.073C182.785 207.289 182.813 207.518 182.793 207.745C182.753 208.225 182.536 208.672 182.184 209.001C181.832 209.329 181.371 209.515 180.89 209.523Z" fill="#EA5016"/>
<path opacity="0.8" d="M175.5 216.504H158.667C158.439 216.507 158.212 216.463 158.002 216.373C157.791 216.283 157.602 216.15 157.446 215.982C157.29 215.814 157.171 215.616 157.097 215.4C157.023 215.184 156.994 214.954 157.014 214.726C157.054 214.247 157.271 213.799 157.623 213.471C157.975 213.142 158.436 212.956 158.917 212.948H175.788C176.017 212.945 176.243 212.989 176.453 213.08C176.663 213.17 176.852 213.303 177.007 213.47C177.162 213.638 177.281 213.837 177.354 214.053C177.428 214.269 177.455 214.499 177.434 214.726C177.393 215.211 177.172 215.663 176.813 215.992C176.455 216.321 175.986 216.504 175.5 216.504Z" fill="white"/>
<path opacity="0.4" d="M179.509 228.782H152.927C152.699 228.784 152.472 228.738 152.263 228.647C152.053 228.557 151.864 228.424 151.709 228.257C151.553 228.089 151.434 227.892 151.359 227.676C151.284 227.46 151.255 227.231 151.273 227.003C151.316 226.523 151.535 226.076 151.887 225.747C152.24 225.419 152.702 225.233 153.184 225.225H179.767C179.995 225.223 180.221 225.269 180.43 225.359C180.64 225.45 180.828 225.583 180.983 225.75C181.138 225.918 181.256 226.116 181.33 226.331C181.404 226.547 181.432 226.776 181.413 227.003C181.372 227.483 181.155 227.93 180.803 228.259C180.452 228.587 179.991 228.774 179.509 228.782Z" fill="#EA5016"/>
<path opacity="0.8" d="M174.151 235.755H157.287C157.059 235.759 156.832 235.715 156.622 235.626C156.411 235.537 156.222 235.405 156.066 235.238C155.91 235.071 155.791 234.873 155.717 234.657C155.642 234.441 155.614 234.212 155.634 233.984C155.674 233.501 155.895 233.05 156.251 232.721C156.608 232.392 157.075 232.208 157.56 232.206H174.408C174.637 232.203 174.864 232.248 175.074 232.338C175.284 232.428 175.474 232.561 175.629 232.728C175.785 232.896 175.904 233.094 175.979 233.311C176.053 233.527 176.081 233.756 176.062 233.984C176.019 234.464 175.8 234.91 175.447 235.238C175.094 235.565 174.632 235.749 174.151 235.755Z" fill="white"/>
<path opacity="0.4" d="M178.129 248.04H151.546C151.318 248.042 151.091 247.996 150.882 247.906C150.672 247.815 150.483 247.682 150.328 247.515C150.172 247.348 150.053 247.15 149.978 246.934C149.903 246.718 149.874 246.489 149.893 246.261C149.933 245.781 150.151 245.332 150.505 245.003C150.858 244.675 151.321 244.489 151.804 244.483H178.386C178.614 244.48 178.841 244.525 179.051 244.615C179.261 244.705 179.45 244.838 179.605 245.006C179.76 245.174 179.878 245.372 179.952 245.588C180.025 245.805 180.053 246.034 180.032 246.261C179.991 246.741 179.774 247.188 179.422 247.517C179.071 247.846 178.61 248.032 178.129 248.04Z" fill="#EA5016"/>
<path opacity="0.8" d="M172.77 255.013H155.906C155.677 255.016 155.451 254.971 155.24 254.881C155.03 254.791 154.841 254.658 154.685 254.491C154.529 254.323 154.41 254.125 154.336 253.909C154.261 253.692 154.233 253.463 154.253 253.235C154.295 252.756 154.512 252.309 154.864 251.981C155.215 251.653 155.675 251.466 156.156 251.456H173.027C173.256 251.455 173.482 251.5 173.692 251.591C173.901 251.681 174.09 251.814 174.246 251.981C174.401 252.149 174.52 252.346 174.595 252.562C174.67 252.778 174.699 253.007 174.681 253.235C174.64 253.716 174.422 254.164 174.069 254.493C173.715 254.822 173.252 255.007 172.77 255.013Z" fill="white"/>
<path opacity="0.5" d="M328.91 226.411C330.065 224.648 332.709 225.389 332.561 227.425L330.002 263.117C329.87 264.95 328.481 266.448 326.882 266.448H198.331C196.771 266.448 195.585 264.95 195.718 263.117L197.278 241.909C197.33 241.235 197.53 240.58 197.864 239.992C198.199 239.404 198.659 238.897 199.211 238.507C199.764 238.118 200.396 237.855 201.063 237.738C201.729 237.621 202.413 237.652 203.065 237.83C210.311 240.084 216.52 238.758 222.292 235.895C234.632 229.772 244.959 216.622 259.147 216.622C259.693 216.622 260.231 216.622 260.754 216.668C281.861 217.94 288.288 244.163 304.637 244.163C309.473 244.163 313.88 242.073 317.725 239.101C322.39 235.459 326.235 230.49 328.91 226.411Z" fill="#EA5016"/>
<path opacity="0.5" d="M331.578 241.113L330.018 263.117C329.885 264.95 328.497 266.448 326.898 266.448H198.331C196.771 266.448 195.585 264.95 195.718 263.117L198.838 219.39C199.048 216.395 202.972 215.132 204.563 217.557C208.666 223.797 214.976 231.902 222.238 235.895C224.877 237.436 227.864 238.281 230.919 238.352C241.309 238.352 250.146 226.036 260.699 216.668C267.166 210.927 274.279 206.294 282.789 206.294C300.55 206.294 303.17 235.154 317.671 239.101C320.463 239.881 323.7 239.702 327.569 238.22C328.026 238.022 328.527 237.946 329.023 238C329.518 238.054 329.991 238.236 330.395 238.528C330.8 238.819 331.121 239.211 331.328 239.664C331.536 240.118 331.622 240.617 331.578 241.113Z" fill="#EA5016"/>
<g opacity="0.8">
<path d="M332.21 232.58C332.14 232.578 332.074 232.55 332.023 232.502C331.998 232.479 331.979 232.449 331.968 232.416C331.961 232.383 331.961 232.349 331.968 232.315C331.968 232.28 331.975 232.246 331.988 232.213C332.001 232.181 332.021 232.152 332.046 232.128C332.096 232.078 332.163 232.051 332.233 232.051C332.304 232.051 332.371 232.078 332.421 232.128C332.446 232.152 332.467 232.181 332.48 232.213C332.494 232.245 332.5 232.28 332.499 232.315C332.502 232.349 332.502 232.383 332.499 232.416C332.482 232.448 332.461 232.477 332.436 232.502C332.407 232.532 332.371 232.554 332.332 232.567C332.293 232.581 332.251 232.585 332.21 232.58Z" fill="white"/>
<path d="M207.199 250.856C207.129 250.856 207.062 250.828 207.012 250.778C206.962 250.728 206.934 250.661 206.934 250.591C206.936 250.522 206.965 250.456 207.015 250.408C207.064 250.36 207.13 250.333 207.199 250.333C207.27 250.333 207.337 250.361 207.387 250.411C207.437 250.461 207.465 250.528 207.465 250.598C207.465 250.669 207.437 250.738 207.387 250.789C207.338 250.84 207.271 250.869 207.199 250.871V250.856ZM204.524 250.708C204.489 250.706 204.454 250.697 204.423 250.681C204.391 250.665 204.363 250.643 204.34 250.616C204.318 250.589 204.301 250.557 204.291 250.523C204.281 250.49 204.278 250.454 204.282 250.419C204.286 250.384 204.297 250.35 204.314 250.319C204.331 250.289 204.354 250.262 204.382 250.24C204.409 250.218 204.441 250.202 204.475 250.193C204.508 250.183 204.544 250.181 204.579 250.185C204.648 250.193 204.711 250.227 204.755 250.281C204.798 250.335 204.819 250.404 204.813 250.474C204.805 250.539 204.774 250.6 204.725 250.644C204.677 250.689 204.613 250.714 204.547 250.715L204.524 250.708ZM209.571 250.474C209.566 250.439 209.569 250.403 209.578 250.369C209.588 250.336 209.604 250.304 209.626 250.276C209.647 250.249 209.674 250.226 209.705 250.209C209.736 250.192 209.77 250.181 209.805 250.177C209.84 250.173 209.875 250.175 209.909 250.185C209.943 250.194 209.974 250.21 210.002 250.232C210.029 250.254 210.052 250.281 210.069 250.312C210.086 250.342 210.097 250.376 210.101 250.411C210.105 250.446 210.103 250.481 210.093 250.515C210.084 250.549 210.068 250.581 210.046 250.608C210.024 250.636 209.997 250.659 209.966 250.676C209.936 250.693 209.902 250.704 209.867 250.708C209.832 250.712 209.797 250.709 209.763 250.7C209.729 250.69 209.697 250.674 209.67 250.653C209.642 250.631 209.619 250.604 209.602 250.573C209.585 250.542 209.575 250.508 209.571 250.474ZM201.888 250.302C201.819 250.285 201.758 250.243 201.719 250.184C201.68 250.124 201.665 250.052 201.677 249.982C201.694 249.913 201.736 249.853 201.795 249.814C201.855 249.775 201.927 249.76 201.997 249.772C202.066 249.788 202.126 249.831 202.165 249.89C202.204 249.949 202.219 250.021 202.207 250.091C202.193 250.151 202.16 250.205 202.111 250.243C202.063 250.281 202.004 250.302 201.942 250.302H201.888ZM212.176 250.037C212.167 250.002 212.164 249.967 212.169 249.931C212.174 249.896 212.186 249.862 212.204 249.832C212.222 249.801 212.246 249.774 212.275 249.753C212.304 249.732 212.336 249.717 212.371 249.709C212.439 249.695 212.51 249.707 212.569 249.743C212.629 249.779 212.672 249.837 212.691 249.904C212.707 249.973 212.696 250.046 212.66 250.108C212.623 250.169 212.564 250.213 212.496 250.232H212.433C212.372 250.237 212.311 250.221 212.261 250.185C212.211 250.149 212.175 250.097 212.16 250.037H212.176ZM297.484 250.146C297.414 250.146 297.347 250.118 297.297 250.068C297.247 250.019 297.219 249.951 297.219 249.881C297.219 249.81 297.247 249.743 297.297 249.693C297.347 249.644 297.414 249.616 297.484 249.616C297.555 249.616 297.622 249.644 297.672 249.693C297.722 249.743 297.75 249.81 297.75 249.881C297.75 249.951 297.722 250.019 297.672 250.068C297.622 250.118 297.555 250.146 297.484 250.146ZM299.863 249.772C299.859 249.737 299.862 249.702 299.871 249.669C299.881 249.635 299.897 249.604 299.919 249.577C299.941 249.55 299.968 249.528 299.999 249.512C300.029 249.496 300.063 249.486 300.097 249.483C300.132 249.477 300.168 249.479 300.203 249.488C300.237 249.497 300.269 249.513 300.297 249.535C300.325 249.557 300.348 249.585 300.364 249.616C300.381 249.647 300.391 249.682 300.394 249.717C300.4 249.788 300.379 249.859 300.334 249.915C300.288 249.97 300.223 250.005 300.152 250.013C300.082 250.018 300.013 249.995 299.959 249.95C299.906 249.905 299.871 249.841 299.863 249.772ZM294.817 249.982C294.782 249.978 294.749 249.968 294.718 249.95C294.688 249.933 294.661 249.91 294.64 249.882C294.619 249.855 294.604 249.823 294.595 249.789C294.587 249.755 294.585 249.72 294.591 249.686C294.595 249.651 294.605 249.617 294.622 249.586C294.639 249.556 294.662 249.529 294.69 249.507C294.717 249.485 294.749 249.469 294.783 249.459C294.817 249.45 294.852 249.447 294.887 249.452C294.957 249.461 295.02 249.498 295.064 249.553C295.107 249.608 295.128 249.678 295.121 249.748C295.114 249.814 295.083 249.874 295.034 249.919C294.985 249.963 294.922 249.989 294.856 249.99L294.817 249.982ZM199.298 249.662C199.264 249.653 199.232 249.638 199.205 249.616C199.177 249.595 199.153 249.568 199.136 249.538C199.119 249.507 199.107 249.474 199.103 249.439C199.099 249.404 199.101 249.369 199.111 249.335C199.133 249.267 199.179 249.21 199.242 249.175C199.304 249.14 199.377 249.13 199.446 249.148C199.514 249.169 199.57 249.216 199.604 249.279C199.637 249.341 199.645 249.415 199.626 249.483C199.61 249.539 199.576 249.587 199.529 249.621C199.483 249.655 199.426 249.672 199.368 249.67H199.298V249.662ZM302.484 249.405C302.476 249.371 302.476 249.335 302.482 249.3C302.488 249.265 302.502 249.232 302.522 249.203C302.541 249.174 302.567 249.149 302.597 249.13C302.627 249.111 302.66 249.098 302.695 249.093C302.729 249.086 302.765 249.086 302.799 249.093C302.833 249.1 302.866 249.114 302.895 249.133C302.924 249.153 302.949 249.178 302.968 249.207C302.987 249.236 303 249.269 303.007 249.304C303.014 249.338 303.014 249.373 303.007 249.408C303 249.442 302.986 249.474 302.966 249.503C302.947 249.532 302.922 249.557 302.893 249.576C302.863 249.596 302.831 249.609 302.796 249.616H302.749C302.688 249.615 302.628 249.595 302.58 249.556C302.532 249.518 302.498 249.465 302.484 249.405ZM292.196 249.499C292.161 249.492 292.128 249.479 292.099 249.459C292.069 249.439 292.045 249.413 292.026 249.383C292.008 249.352 291.996 249.319 291.992 249.283C291.987 249.248 291.991 249.213 292.001 249.179C292.018 249.111 292.061 249.052 292.121 249.015C292.181 248.979 292.253 248.967 292.321 248.984C292.389 249 292.448 249.043 292.484 249.103C292.521 249.163 292.532 249.235 292.516 249.304C292.502 249.361 292.469 249.413 292.422 249.449C292.376 249.486 292.318 249.506 292.258 249.506H292.196V249.499ZM214.703 249.28C214.689 249.248 214.683 249.212 214.683 249.177C214.684 249.142 214.692 249.107 214.706 249.075C214.721 249.042 214.742 249.014 214.768 248.99C214.795 248.966 214.825 248.948 214.859 248.937C214.924 248.911 214.997 248.913 215.061 248.94C215.126 248.968 215.176 249.02 215.202 249.085C215.215 249.118 215.221 249.153 215.219 249.188C215.218 249.223 215.21 249.257 215.196 249.289C215.181 249.321 215.161 249.35 215.135 249.374C215.109 249.398 215.079 249.416 215.046 249.428C215.015 249.435 214.983 249.435 214.953 249.428C214.901 249.43 214.851 249.416 214.807 249.39C214.762 249.364 214.727 249.326 214.703 249.28ZM305.066 248.82C305.055 248.786 305.052 248.75 305.056 248.714C305.059 248.678 305.07 248.644 305.088 248.612C305.105 248.581 305.129 248.553 305.157 248.531C305.186 248.509 305.218 248.494 305.253 248.485C305.287 248.475 305.322 248.472 305.357 248.477C305.392 248.481 305.426 248.492 305.456 248.51C305.487 248.527 305.513 248.55 305.535 248.578C305.556 248.606 305.572 248.638 305.581 248.672C305.59 248.706 305.593 248.741 305.589 248.776C305.584 248.811 305.573 248.844 305.556 248.875C305.538 248.905 305.515 248.932 305.487 248.953C305.459 248.975 305.428 248.99 305.394 248.999H305.323C305.267 249.001 305.212 248.984 305.165 248.952C305.119 248.92 305.084 248.873 305.066 248.82ZM289.638 248.726C289.572 248.703 289.517 248.655 289.487 248.592C289.456 248.53 289.451 248.457 289.474 248.391C289.499 248.324 289.548 248.27 289.612 248.239C289.676 248.209 289.75 248.204 289.817 248.227C289.884 248.252 289.938 248.301 289.969 248.366C289.999 248.43 290.004 248.503 289.981 248.57C289.96 248.622 289.925 248.665 289.879 248.696C289.833 248.727 289.779 248.743 289.723 248.742C289.694 248.745 289.664 248.74 289.638 248.726ZM217.098 248.227C217.082 248.196 217.072 248.162 217.069 248.127C217.066 248.092 217.07 248.057 217.081 248.023C217.092 247.99 217.109 247.959 217.132 247.932C217.155 247.906 217.183 247.884 217.215 247.868C217.279 247.838 217.352 247.835 217.419 247.858C217.486 247.881 217.542 247.93 217.573 247.993C217.589 248.024 217.599 248.057 217.602 248.092C217.604 248.126 217.6 248.161 217.589 248.193C217.578 248.226 217.561 248.256 217.538 248.282C217.515 248.308 217.488 248.329 217.456 248.344C217.416 248.356 217.372 248.356 217.332 248.344C217.291 248.341 217.252 248.33 217.217 248.309C217.181 248.289 217.151 248.261 217.129 248.227H217.098ZM307.578 248.04C307.565 248.008 307.56 247.973 307.561 247.939C307.562 247.904 307.57 247.87 307.585 247.839C307.599 247.808 307.62 247.78 307.645 247.757C307.671 247.734 307.701 247.716 307.734 247.705C307.8 247.684 307.871 247.69 307.934 247.72C307.996 247.751 308.044 247.804 308.069 247.868C308.092 247.936 308.087 248.009 308.057 248.073C308.026 248.137 307.972 248.187 307.905 248.212H307.819C307.771 248.206 307.725 248.187 307.686 248.157C307.647 248.126 307.618 248.086 307.601 248.04H307.578ZM287.149 247.712C287.118 247.698 287.089 247.678 287.065 247.652C287.041 247.627 287.023 247.597 287.01 247.564C286.998 247.532 286.992 247.497 286.993 247.462C286.995 247.427 287.002 247.393 287.017 247.361C287.047 247.299 287.101 247.25 287.166 247.225C287.231 247.201 287.303 247.202 287.368 247.229C287.401 247.243 287.43 247.264 287.455 247.29C287.479 247.316 287.498 247.346 287.511 247.38C287.523 247.413 287.528 247.449 287.527 247.485C287.525 247.52 287.516 247.555 287.5 247.588C287.479 247.634 287.445 247.672 287.402 247.7C287.359 247.728 287.309 247.743 287.259 247.744C287.228 247.741 287.198 247.73 287.173 247.712H287.149ZM310.05 247.104C310.036 247.072 310.029 247.037 310.029 247.002C310.029 246.967 310.037 246.933 310.051 246.9C310.064 246.868 310.085 246.839 310.11 246.815C310.136 246.791 310.166 246.773 310.198 246.761C310.23 246.746 310.264 246.737 310.299 246.736C310.334 246.735 310.369 246.741 310.401 246.755C310.434 246.768 310.463 246.788 310.487 246.813C310.511 246.838 310.53 246.868 310.542 246.901C310.556 246.933 310.563 246.968 310.564 247.003C310.564 247.038 310.558 247.073 310.545 247.106C310.532 247.139 310.512 247.168 310.488 247.194C310.463 247.219 310.434 247.239 310.401 247.252C310.368 247.26 310.333 247.26 310.3 247.252C310.253 247.249 310.207 247.234 310.167 247.208C310.127 247.182 310.095 247.146 310.074 247.104H310.05ZM219.414 246.948C219.376 246.887 219.364 246.813 219.38 246.743C219.396 246.673 219.439 246.612 219.5 246.574C219.53 246.555 219.563 246.542 219.597 246.537C219.632 246.531 219.667 246.532 219.701 246.54C219.735 246.548 219.767 246.563 219.796 246.583C219.824 246.604 219.848 246.63 219.867 246.659C219.885 246.689 219.898 246.722 219.903 246.757C219.909 246.791 219.908 246.826 219.9 246.861C219.892 246.895 219.877 246.927 219.857 246.955C219.837 246.984 219.811 247.008 219.781 247.026C219.74 247.056 219.691 247.073 219.64 247.073C219.6 247.068 219.56 247.054 219.525 247.033C219.49 247.011 219.46 246.982 219.438 246.948H219.414ZM284.77 246.519C284.708 246.484 284.661 246.427 284.641 246.358C284.62 246.289 284.628 246.216 284.661 246.152C284.697 246.091 284.756 246.046 284.824 246.027C284.892 246.008 284.966 246.017 285.028 246.051C285.089 246.085 285.133 246.142 285.152 246.21C285.171 246.277 285.163 246.349 285.129 246.41C285.106 246.452 285.072 246.487 285.031 246.511C284.99 246.536 284.943 246.549 284.895 246.55C284.86 246.545 284.826 246.534 284.794 246.519H284.77ZM312.476 246.035C312.447 245.972 312.443 245.9 312.466 245.834C312.49 245.769 312.538 245.715 312.601 245.684C312.665 245.655 312.739 245.651 312.806 245.674C312.872 245.697 312.928 245.746 312.96 245.809C312.974 245.841 312.982 245.875 312.983 245.91C312.984 245.945 312.978 245.98 312.966 246.012C312.954 246.045 312.935 246.075 312.911 246.1C312.887 246.125 312.859 246.146 312.827 246.16H312.71C312.668 246.158 312.626 246.145 312.589 246.124C312.553 246.102 312.522 246.072 312.499 246.035H312.476ZM221.614 245.482C221.574 245.423 221.558 245.352 221.569 245.282C221.581 245.212 221.619 245.149 221.676 245.107C221.734 245.066 221.805 245.049 221.874 245.059C221.944 245.069 222.007 245.106 222.051 245.162C222.091 245.22 222.107 245.292 222.095 245.362C222.084 245.431 222.045 245.494 221.988 245.536C221.943 245.569 221.888 245.588 221.832 245.591C221.794 245.587 221.757 245.576 221.723 245.557C221.689 245.538 221.66 245.512 221.637 245.482H221.614ZM282.454 245.185C282.424 245.168 282.399 245.144 282.378 245.117C282.358 245.089 282.343 245.057 282.335 245.024C282.327 244.99 282.326 244.956 282.332 244.922C282.337 244.888 282.35 244.855 282.368 244.826C282.384 244.795 282.407 244.768 282.434 244.746C282.461 244.724 282.493 244.709 282.527 244.7C282.56 244.691 282.596 244.689 282.63 244.695C282.665 244.701 282.698 244.714 282.727 244.733C282.757 244.75 282.784 244.774 282.805 244.802C282.826 244.83 282.842 244.862 282.851 244.896C282.859 244.931 282.861 244.966 282.856 245.001C282.851 245.036 282.839 245.069 282.82 245.099C282.797 245.139 282.764 245.171 282.724 245.195C282.685 245.218 282.64 245.231 282.594 245.232C282.558 245.223 282.523 245.207 282.493 245.185H282.454ZM314.832 244.85C314.799 244.788 314.791 244.715 314.812 244.648C314.832 244.58 314.879 244.524 314.941 244.491C315.003 244.46 315.075 244.454 315.142 244.474C315.209 244.494 315.265 244.54 315.3 244.6C315.333 244.663 315.34 244.737 315.32 244.806C315.3 244.874 315.253 244.932 315.19 244.967C315.149 244.974 315.107 244.974 315.066 244.967C315.026 244.963 314.989 244.95 314.955 244.93C314.921 244.91 314.892 244.883 314.871 244.85H314.832ZM223.72 243.883C223.698 243.855 223.681 243.824 223.671 243.791C223.661 243.757 223.658 243.722 223.661 243.687C223.665 243.652 223.676 243.619 223.692 243.588C223.709 243.557 223.732 243.53 223.759 243.508C223.814 243.465 223.884 243.446 223.954 243.453C224.024 243.46 224.088 243.494 224.133 243.547C224.181 243.599 224.208 243.667 224.208 243.738C224.208 243.809 224.181 243.877 224.133 243.929C224.084 243.966 224.023 243.985 223.962 243.984C223.922 243.986 223.883 243.977 223.847 243.959C223.812 243.942 223.781 243.915 223.759 243.883H223.72ZM280.207 243.766C280.149 243.727 280.107 243.667 280.093 243.598C280.078 243.53 280.091 243.458 280.129 243.399C280.169 243.339 280.231 243.298 280.301 243.283C280.371 243.269 280.444 243.282 280.504 243.321C280.561 243.361 280.601 243.421 280.616 243.489C280.63 243.557 280.618 243.628 280.582 243.688C280.558 243.726 280.525 243.758 280.485 243.779C280.445 243.801 280.401 243.813 280.356 243.812C280.317 243.804 280.28 243.788 280.246 243.766H280.207ZM317.148 243.571C317.13 243.54 317.118 243.507 317.113 243.472C317.108 243.437 317.109 243.402 317.118 243.368C317.127 243.333 317.142 243.301 317.164 243.273C317.185 243.245 317.211 243.222 317.242 243.204C317.303 243.169 317.376 243.16 317.444 243.177C317.512 243.194 317.571 243.238 317.608 243.298C317.643 243.359 317.653 243.431 317.635 243.5C317.618 243.568 317.575 243.627 317.515 243.664C317.472 243.688 317.424 243.701 317.374 243.703C317.335 243.696 317.298 243.681 317.266 243.658C317.233 243.635 317.207 243.605 317.187 243.571H317.148ZM278 242.291C277.942 242.25 277.902 242.188 277.889 242.118C277.876 242.048 277.89 241.976 277.93 241.917C277.972 241.86 278.034 241.822 278.103 241.809C278.173 241.796 278.244 241.809 278.304 241.847C278.361 241.889 278.4 241.951 278.413 242.02C278.426 242.09 278.412 242.161 278.374 242.221C278.349 242.258 278.315 242.287 278.276 242.308C278.236 242.328 278.193 242.339 278.148 242.338C278.109 242.331 278.072 242.315 278.039 242.291H278ZM319.41 242.198C319.374 242.136 319.363 242.063 319.379 241.994C319.395 241.924 319.437 241.863 319.496 241.823C319.526 241.805 319.559 241.792 319.593 241.787C319.628 241.781 319.663 241.782 319.697 241.79C319.731 241.798 319.763 241.813 319.792 241.833C319.82 241.853 319.844 241.879 319.863 241.909C319.881 241.939 319.894 241.972 319.899 242.006C319.905 242.041 319.904 242.076 319.896 242.11C319.888 242.144 319.873 242.177 319.853 242.205C319.833 242.233 319.807 242.257 319.777 242.276C319.737 242.307 319.687 242.324 319.636 242.323C319.598 242.316 319.562 242.301 319.53 242.28C319.498 242.258 319.47 242.23 319.449 242.198H319.41ZM225.81 242.198C225.763 242.147 225.736 242.08 225.736 242.011C225.736 241.941 225.763 241.874 225.81 241.823C225.862 241.775 225.93 241.748 226.001 241.748C226.072 241.748 226.141 241.775 226.192 241.823C226.242 241.873 226.27 241.94 226.27 242.011C226.27 242.081 226.242 242.148 226.192 242.198C226.169 242.219 226.142 242.236 226.113 242.246C226.084 242.257 226.052 242.262 226.021 242.26C225.984 242.267 225.947 242.266 225.911 242.258C225.875 242.25 225.84 242.235 225.81 242.213V242.198ZM321.672 240.731C321.632 240.673 321.616 240.601 321.628 240.532C321.639 240.462 321.678 240.399 321.735 240.357C321.764 240.336 321.796 240.322 321.831 240.314C321.866 240.307 321.902 240.306 321.937 240.313C321.972 240.319 322.005 240.333 322.034 240.352C322.064 240.372 322.089 240.398 322.109 240.427C322.148 240.485 322.163 240.556 322.149 240.625C322.136 240.694 322.096 240.754 322.039 240.794C321.995 240.823 321.944 240.84 321.891 240.841C321.849 240.843 321.808 240.836 321.77 240.82C321.732 240.803 321.699 240.778 321.672 240.747V240.731ZM275.847 240.794C275.818 240.775 275.793 240.75 275.773 240.721C275.753 240.692 275.74 240.66 275.733 240.626C275.727 240.591 275.727 240.556 275.735 240.522C275.742 240.488 275.757 240.456 275.777 240.427C275.815 240.368 275.875 240.327 275.944 240.312C276.013 240.298 276.085 240.311 276.144 240.349C276.173 240.369 276.199 240.394 276.218 240.424C276.238 240.453 276.251 240.487 276.258 240.521C276.265 240.556 276.264 240.592 276.256 240.627C276.249 240.662 276.234 240.695 276.214 240.724C276.191 240.76 276.159 240.791 276.12 240.811C276.082 240.832 276.039 240.842 275.995 240.841C275.944 240.844 275.893 240.834 275.847 240.809V240.794ZM227.846 240.497C227.821 240.473 227.8 240.444 227.786 240.412C227.772 240.38 227.765 240.345 227.765 240.31C227.765 240.275 227.772 240.24 227.786 240.208C227.8 240.176 227.821 240.147 227.846 240.123C227.897 240.075 227.964 240.049 228.033 240.049C228.103 240.049 228.17 240.075 228.22 240.123C228.27 240.173 228.298 240.24 228.298 240.31C228.298 240.38 228.27 240.448 228.22 240.497C228.173 240.539 228.112 240.561 228.049 240.56C228.014 240.567 227.977 240.567 227.942 240.559C227.907 240.55 227.874 240.535 227.846 240.513V240.497ZM273.648 239.327C273.618 239.309 273.592 239.285 273.571 239.256C273.551 239.228 273.537 239.195 273.529 239.161C273.522 239.127 273.522 239.091 273.529 239.057C273.536 239.022 273.55 238.99 273.57 238.961C273.588 238.931 273.612 238.905 273.641 238.884C273.669 238.864 273.702 238.85 273.736 238.843C273.77 238.835 273.806 238.835 273.84 238.842C273.875 238.849 273.907 238.863 273.936 238.883C273.995 238.921 274.036 238.981 274.051 239.05C274.066 239.119 274.052 239.19 274.014 239.249C273.991 239.286 273.959 239.316 273.921 239.337C273.882 239.357 273.839 239.368 273.796 239.366C273.745 239.374 273.693 239.366 273.648 239.343V239.327ZM323.841 239.203C323.82 239.175 323.804 239.144 323.795 239.11C323.787 239.077 323.785 239.042 323.79 239.008C323.795 238.973 323.807 238.941 323.825 238.911C323.843 238.882 323.867 238.856 323.895 238.836C323.953 238.795 324.024 238.778 324.093 238.788C324.163 238.798 324.226 238.835 324.27 238.891C324.31 238.949 324.326 239.021 324.314 239.09C324.303 239.16 324.264 239.223 324.207 239.265C324.161 239.296 324.107 239.312 324.051 239.312C324.011 239.315 323.971 239.308 323.934 239.292C323.897 239.275 323.865 239.25 323.841 239.218V239.203ZM229.882 238.805C229.832 238.755 229.804 238.688 229.804 238.618C229.804 238.547 229.832 238.48 229.882 238.43C229.937 238.388 230.007 238.368 230.077 238.375C230.147 238.382 230.211 238.416 230.256 238.469C230.278 238.496 230.295 238.528 230.305 238.561C230.315 238.595 230.318 238.63 230.315 238.665C230.311 238.699 230.301 238.733 230.284 238.764C230.267 238.795 230.244 238.822 230.217 238.844C230.194 238.865 230.167 238.882 230.138 238.892C230.108 238.903 230.077 238.908 230.046 238.906C229.982 238.899 229.924 238.868 229.882 238.82V238.805ZM271.44 237.9C271.41 237.882 271.385 237.858 271.364 237.829C271.344 237.801 271.329 237.769 271.321 237.735C271.313 237.7 271.312 237.665 271.318 237.631C271.323 237.596 271.336 237.563 271.354 237.533C271.373 237.504 271.397 237.478 271.425 237.457C271.454 237.437 271.486 237.422 271.52 237.414C271.554 237.406 271.589 237.405 271.624 237.411C271.658 237.416 271.691 237.429 271.721 237.448C271.751 237.466 271.777 237.49 271.797 237.518C271.818 237.547 271.832 237.579 271.84 237.613C271.848 237.647 271.849 237.682 271.844 237.717C271.838 237.751 271.825 237.785 271.807 237.814C271.783 237.853 271.75 237.886 271.711 237.909C271.671 237.933 271.626 237.945 271.581 237.947C271.53 237.947 271.481 237.93 271.44 237.9ZM325.978 237.619C325.956 237.592 325.94 237.56 325.931 237.526C325.921 237.492 325.919 237.457 325.923 237.422C325.927 237.387 325.939 237.354 325.956 237.323C325.973 237.293 325.997 237.266 326.025 237.245C326.052 237.223 326.084 237.207 326.118 237.198C326.151 237.188 326.187 237.186 326.222 237.19C326.256 237.194 326.29 237.206 326.321 237.223C326.351 237.24 326.378 237.264 326.399 237.292C326.439 237.349 326.457 237.419 326.448 237.488C326.439 237.557 326.405 237.621 326.352 237.666C326.308 237.702 326.253 237.721 326.196 237.721C326.153 237.727 326.109 237.722 326.069 237.707C326.028 237.692 325.991 237.667 325.962 237.635L325.978 237.619ZM231.972 237.167C231.931 237.109 231.914 237.038 231.924 236.969C231.934 236.899 231.971 236.836 232.027 236.792C232.084 236.751 232.155 236.734 232.225 236.744C232.295 236.754 232.358 236.791 232.401 236.847C232.442 236.904 232.459 236.975 232.449 237.045C232.439 237.115 232.402 237.178 232.347 237.221C232.301 237.254 232.247 237.273 232.191 237.276C232.147 237.28 232.103 237.274 232.062 237.258C232.021 237.241 231.985 237.216 231.957 237.182L231.972 237.167ZM269.17 236.551C269.14 236.533 269.113 236.509 269.092 236.481C269.071 236.453 269.055 236.421 269.047 236.387C269.038 236.353 269.036 236.317 269.041 236.282C269.047 236.248 269.059 236.214 269.077 236.184C269.094 236.154 269.117 236.127 269.144 236.106C269.171 236.085 269.203 236.07 269.236 236.061C269.27 236.052 269.305 236.05 269.339 236.055C269.373 236.06 269.406 236.072 269.436 236.09C269.466 236.107 269.494 236.129 269.516 236.156C269.538 236.183 269.554 236.214 269.563 236.248C269.573 236.282 269.575 236.317 269.571 236.351C269.566 236.386 269.555 236.419 269.537 236.449C269.514 236.491 269.48 236.526 269.439 236.551C269.398 236.575 269.351 236.589 269.303 236.59C269.253 236.594 269.202 236.586 269.155 236.566L269.17 236.551ZM328.045 235.966C328.023 235.938 328.006 235.907 327.996 235.874C327.986 235.84 327.983 235.805 327.986 235.77C327.99 235.735 328.001 235.702 328.017 235.671C328.034 235.64 328.057 235.613 328.084 235.591C328.111 235.569 328.142 235.552 328.176 235.542C328.209 235.532 328.244 235.529 328.279 235.533C328.314 235.536 328.348 235.547 328.378 235.564C328.409 235.58 328.436 235.603 328.458 235.63C328.506 235.681 328.533 235.748 328.533 235.817C328.533 235.887 328.506 235.954 328.458 236.005C328.409 236.042 328.349 236.064 328.287 236.067C328.24 236.077 328.191 236.075 328.146 236.059C328.101 236.044 328.06 236.017 328.029 235.981L328.045 235.966ZM234.125 235.622C234.105 235.593 234.09 235.561 234.082 235.526C234.075 235.491 234.074 235.455 234.081 235.42C234.087 235.385 234.101 235.352 234.121 235.323C234.14 235.293 234.166 235.268 234.195 235.248C234.255 235.209 234.328 235.196 234.398 235.21C234.468 235.225 234.53 235.267 234.57 235.326C234.608 235.385 234.621 235.457 234.607 235.525C234.592 235.594 234.551 235.654 234.492 235.693C234.448 235.723 234.396 235.739 234.343 235.739C234.299 235.743 234.255 235.735 234.214 235.718C234.173 235.7 234.137 235.673 234.109 235.638L234.125 235.622ZM266.885 235.295C266.823 235.262 266.777 235.205 266.756 235.138C266.736 235.071 266.743 234.998 266.776 234.936C266.792 234.905 266.813 234.877 266.84 234.854C266.867 234.831 266.897 234.813 266.931 234.802C266.964 234.792 266.999 234.787 267.034 234.79C267.069 234.793 267.103 234.803 267.135 234.819C267.196 234.855 267.242 234.912 267.263 234.98C267.285 235.048 267.281 235.121 267.252 235.186C267.227 235.228 267.191 235.262 267.149 235.287C267.107 235.312 267.059 235.325 267.01 235.326C266.953 235.341 266.892 235.336 266.838 235.31L266.885 235.295ZM330.065 234.257C330.016 234.208 329.988 234.14 329.988 234.07C329.988 234 330.016 233.933 330.065 233.883C330.116 233.835 330.183 233.809 330.252 233.809C330.322 233.809 330.389 233.835 330.439 233.883C330.487 233.934 330.514 234.001 330.514 234.07C330.514 234.14 330.487 234.207 330.439 234.257C330.417 234.28 330.39 234.298 330.361 234.31C330.331 234.322 330.3 234.328 330.268 234.328C330.231 234.334 330.193 234.332 330.157 234.323C330.12 234.313 330.086 234.296 330.057 234.273L330.065 234.257ZM236.34 234.226C236.322 234.196 236.311 234.162 236.306 234.126C236.302 234.091 236.304 234.056 236.313 234.021C236.323 233.987 236.339 233.955 236.361 233.928C236.383 233.9 236.411 233.877 236.442 233.86C236.503 233.826 236.575 233.818 236.642 233.837C236.709 233.856 236.766 233.9 236.8 233.961C236.818 233.992 236.83 234.025 236.835 234.061C236.839 234.096 236.837 234.131 236.827 234.166C236.818 234.2 236.802 234.232 236.78 234.26C236.758 234.287 236.73 234.311 236.699 234.328C236.655 234.338 236.61 234.338 236.566 234.328C236.523 234.33 236.48 234.323 236.441 234.305C236.401 234.287 236.367 234.26 236.34 234.226ZM264.459 234.179C264.427 234.165 264.399 234.145 264.375 234.119C264.351 234.094 264.333 234.064 264.32 234.031C264.308 233.999 264.302 233.964 264.303 233.929C264.304 233.894 264.312 233.86 264.327 233.828C264.341 233.797 264.361 233.768 264.387 233.744C264.412 233.72 264.442 233.702 264.475 233.689C264.507 233.677 264.542 233.671 264.577 233.672C264.612 233.673 264.646 233.681 264.678 233.696C264.71 233.709 264.739 233.729 264.764 233.754C264.788 233.78 264.807 233.81 264.82 233.843C264.832 233.875 264.838 233.911 264.836 233.946C264.835 233.981 264.826 234.015 264.81 234.047C264.789 234.093 264.755 234.133 264.712 234.16C264.669 234.188 264.619 234.203 264.568 234.203C264.533 234.202 264.499 234.194 264.467 234.179H264.459ZM262.033 233.22C262 233.209 261.969 233.191 261.943 233.167C261.916 233.143 261.895 233.115 261.881 233.082C261.866 233.05 261.858 233.015 261.858 232.98C261.857 232.945 261.864 232.909 261.877 232.877C261.904 232.812 261.954 232.759 262.018 232.73C262.082 232.701 262.154 232.698 262.221 232.721C262.286 232.747 262.338 232.797 262.367 232.861C262.396 232.925 262.4 232.998 262.377 233.064C262.359 233.115 262.325 233.16 262.28 233.19C262.235 233.221 262.181 233.237 262.127 233.236C262.095 233.238 262.063 233.233 262.033 233.22ZM238.68 233.002C238.653 232.937 238.652 232.865 238.677 232.8C238.701 232.734 238.75 232.681 238.813 232.651C238.845 232.635 238.88 232.626 238.916 232.624C238.951 232.623 238.987 232.628 239.021 232.64C239.054 232.653 239.085 232.672 239.111 232.696C239.137 232.721 239.157 232.75 239.172 232.783C239.186 232.815 239.193 232.85 239.194 232.885C239.194 232.92 239.188 232.955 239.175 232.988C239.162 233.021 239.142 233.05 239.118 233.076C239.093 233.101 239.064 233.121 239.031 233.134C238.995 233.142 238.958 233.142 238.922 233.134C238.873 233.136 238.825 233.125 238.783 233.102C238.74 233.078 238.705 233.044 238.68 233.002ZM259.53 232.37C259.462 232.348 259.405 232.301 259.372 232.238C259.338 232.176 259.331 232.103 259.35 232.034C259.372 231.967 259.419 231.91 259.482 231.877C259.544 231.843 259.617 231.835 259.686 231.855C259.753 231.877 259.81 231.924 259.843 231.986C259.877 232.049 259.885 232.122 259.865 232.19C259.847 232.245 259.813 232.292 259.766 232.325C259.72 232.359 259.665 232.377 259.608 232.378H259.53V232.37ZM241.129 232.003C241.119 231.97 241.114 231.935 241.117 231.9C241.12 231.865 241.129 231.831 241.145 231.8C241.161 231.769 241.183 231.741 241.21 231.718C241.237 231.695 241.268 231.678 241.301 231.668C241.334 231.657 241.369 231.653 241.404 231.655C241.439 231.658 241.473 231.668 241.505 231.684C241.536 231.7 241.563 231.722 241.586 231.748C241.609 231.775 241.626 231.806 241.636 231.839C241.647 231.873 241.652 231.908 241.649 231.943C241.646 231.978 241.637 232.012 241.621 232.043C241.605 232.074 241.583 232.102 241.556 232.124C241.529 232.147 241.498 232.164 241.465 232.175H241.379C241.326 232.173 241.275 232.156 241.232 232.126C241.189 232.095 241.156 232.053 241.137 232.003H241.129ZM256.987 231.722C256.919 231.707 256.859 231.666 256.822 231.608C256.784 231.55 256.77 231.479 256.784 231.41C256.79 231.375 256.804 231.342 256.824 231.312C256.844 231.283 256.869 231.258 256.899 231.239C256.93 231.22 256.963 231.207 256.998 231.202C257.034 231.196 257.069 231.198 257.104 231.208C257.138 231.214 257.171 231.227 257.199 231.247C257.228 231.266 257.253 231.291 257.272 231.32C257.291 231.349 257.304 231.382 257.31 231.416C257.316 231.451 257.315 231.486 257.307 231.52C257.294 231.58 257.26 231.634 257.212 231.673C257.164 231.711 257.103 231.731 257.041 231.73H256.987V231.722ZM243.664 231.278C243.657 231.243 243.656 231.207 243.662 231.172C243.668 231.136 243.682 231.103 243.702 231.073C243.721 231.043 243.747 231.017 243.777 230.998C243.806 230.978 243.84 230.964 243.875 230.958C243.943 230.944 244.014 230.958 244.073 230.995C244.131 231.033 244.172 231.093 244.187 231.161C244.195 231.195 244.196 231.231 244.19 231.265C244.184 231.3 244.172 231.333 244.153 231.363C244.134 231.393 244.109 231.419 244.08 231.439C244.051 231.459 244.019 231.473 243.984 231.481H243.93C243.871 231.479 243.814 231.459 243.767 231.422C243.721 231.385 243.687 231.335 243.672 231.278H243.664ZM254.405 231.278C254.335 231.266 254.273 231.228 254.231 231.171C254.188 231.115 254.17 231.044 254.179 230.974C254.183 230.939 254.193 230.905 254.211 230.875C254.228 230.845 254.251 230.818 254.279 230.797C254.306 230.776 254.338 230.76 254.372 230.752C254.406 230.743 254.441 230.742 254.475 230.747C254.545 230.759 254.608 230.797 254.65 230.854C254.692 230.911 254.71 230.981 254.701 231.052C254.691 231.114 254.658 231.171 254.61 231.212C254.561 231.254 254.5 231.277 254.436 231.278H254.397H254.405ZM246.27 230.833C246.263 230.764 246.284 230.695 246.328 230.641C246.371 230.587 246.435 230.552 246.504 230.545C246.539 230.539 246.574 230.541 246.609 230.55C246.643 230.559 246.675 230.575 246.703 230.597C246.731 230.619 246.754 230.646 246.77 230.678C246.787 230.709 246.797 230.743 246.8 230.779C246.807 230.85 246.785 230.921 246.74 230.976C246.695 231.032 246.629 231.067 246.558 231.075C246.488 231.077 246.42 231.053 246.368 231.006C246.316 230.96 246.283 230.895 246.277 230.825L246.27 230.833ZM251.792 231.005C251.757 231.004 251.722 230.996 251.69 230.981C251.658 230.966 251.63 230.945 251.606 230.918C251.583 230.892 251.565 230.861 251.554 230.828C251.543 230.794 251.539 230.759 251.542 230.724C251.544 230.689 251.553 230.655 251.568 230.624C251.584 230.592 251.605 230.564 251.631 230.541C251.657 230.518 251.688 230.5 251.721 230.488C251.754 230.477 251.788 230.472 251.823 230.474C251.894 230.48 251.96 230.514 252.007 230.568C252.053 230.622 252.077 230.692 252.073 230.763C252.069 230.831 252.039 230.894 251.99 230.94C251.941 230.987 251.875 231.013 251.808 231.013L251.792 231.005ZM248.906 230.662C248.905 230.626 248.911 230.591 248.924 230.559C248.937 230.526 248.956 230.496 248.981 230.472C249.006 230.447 249.036 230.427 249.069 230.414C249.101 230.401 249.136 230.395 249.171 230.396C249.242 230.396 249.309 230.424 249.359 230.474C249.409 230.524 249.436 230.591 249.436 230.662C249.436 230.732 249.409 230.799 249.359 230.849C249.309 230.899 249.242 230.927 249.171 230.927C249.136 230.926 249.102 230.918 249.07 230.904C249.039 230.889 249.01 230.869 248.986 230.844C248.962 230.818 248.943 230.788 248.931 230.756C248.919 230.723 248.913 230.689 248.914 230.654L248.906 230.662Z" fill="white"/>
<path d="M196.755 248.82C196.722 248.827 196.687 248.827 196.654 248.82C196.62 248.807 196.591 248.785 196.568 248.758C196.541 248.735 196.522 248.705 196.513 248.672C196.505 248.638 196.505 248.604 196.513 248.57C196.516 248.501 196.543 248.434 196.591 248.383C196.615 248.358 196.644 248.339 196.677 248.329C196.709 248.313 196.743 248.305 196.778 248.305C196.814 248.305 196.848 248.313 196.88 248.329C196.914 248.337 196.944 248.356 196.966 248.383C196.991 248.407 197.01 248.437 197.024 248.469C197.037 248.501 197.044 248.535 197.044 248.57C197.052 248.604 197.052 248.638 197.044 248.672C197.032 248.706 197.01 248.736 196.981 248.758C196.958 248.785 196.929 248.807 196.895 248.82C196.85 248.835 196.801 248.835 196.755 248.82Z" fill="white"/>
</g>
<path d="M239.522 168.956L237.705 166.99C234.423 170.094 230.086 171.839 225.568 171.873C221.984 171.929 218.493 170.722 215.709 168.463C212.926 166.204 211.026 163.037 210.343 159.518L207.613 160.235L205.117 160.89C205.826 164.575 207.552 167.988 210.101 170.742C218.018 179.275 232.05 179.275 241.192 170.742L239.522 168.956Z" fill="white"/>
<path d="M243.415 139.659L241.02 141.882L239.374 143.442C240.827 145.019 241.938 146.879 242.636 148.906C243.334 150.933 243.604 153.083 243.43 155.22C243.076 159.73 241.031 163.939 237.705 167.006L239.132 168.566L241.192 170.781C245.579 166.73 248.275 161.173 248.742 155.22C248.975 152.399 248.622 149.56 247.705 146.883C246.788 144.205 245.327 141.745 243.415 139.659Z" fill="#263238"/>
<path d="M243.415 139.659C235.498 131.134 221.465 131.134 212.332 139.659C209.441 142.305 207.266 145.639 206.008 149.351C204.751 153.063 204.452 157.032 205.14 160.891L208.26 160.111L210.397 159.549C210.124 158.128 210.041 156.678 210.148 155.236C210.527 150.736 212.564 146.539 215.866 143.458C219.167 140.378 223.495 138.634 228.01 138.567C230.15 138.544 232.272 138.966 234.24 139.806C236.209 140.647 237.981 141.888 239.444 143.45L241.55 141.476L243.415 139.659Z" fill="#EA5016"/>
<path d="M265.824 168.956L267.922 166.99C266.474 165.413 265.368 163.553 264.674 161.527C263.98 159.501 263.713 157.354 263.89 155.22C264.21 151.471 265.679 147.912 268.097 145.029C270.515 142.147 273.763 140.08 277.399 139.113L276.869 136.43L276.393 133.98C272.554 135.004 269.028 136.96 266.128 139.674C256.987 148.2 255.988 162.232 263.897 170.765L265.824 168.956Z" fill="white"/>
<path d="M294.988 170.75L292.921 168.519L291.502 166.959C288.221 170.067 283.884 171.815 279.365 171.85C277.223 171.873 275.1 171.451 273.13 170.611C271.161 169.77 269.387 168.529 267.922 166.967L266.276 168.527L263.897 170.75C265.832 172.805 268.171 174.437 270.767 175.544C273.363 176.652 276.16 177.21 278.983 177.185C284.938 177.134 290.655 174.835 294.988 170.75Z" fill="#263238"/>
<path d="M294.988 170.75C304.122 162.216 305.128 148.184 297.219 139.659C294.591 136.909 291.264 134.927 287.596 133.924C283.927 132.921 280.054 132.935 276.393 133.965L276.986 136.999L277.399 139.097C278.82 138.725 280.283 138.536 281.752 138.536C283.897 138.504 286.025 138.924 287.998 139.767C289.971 140.611 291.744 141.86 293.203 143.433C294.662 145.006 295.774 146.868 296.468 148.899C297.161 150.929 297.419 153.083 297.227 155.22C296.871 159.727 294.826 163.934 291.502 166.998L293.327 168.971L294.988 170.75Z" fill="#EA5016"/>
<path opacity="0.3" d="M331.827 135.182C332.042 135.181 332.254 135.225 332.451 135.31C332.647 135.395 332.825 135.52 332.971 135.676C333.117 135.833 333.23 136.018 333.301 136.22C333.373 136.422 333.402 136.637 333.387 136.851L332.42 150.306C332.375 150.781 332.157 151.224 331.808 151.55C331.459 151.876 331.002 152.063 330.525 152.076H317.062C316.847 152.077 316.634 152.033 316.437 151.948C316.239 151.862 316.062 151.736 315.915 151.579C315.769 151.421 315.656 151.235 315.585 151.032C315.514 150.829 315.486 150.614 315.502 150.399L316.461 136.944C316.507 136.47 316.725 136.028 317.074 135.703C317.424 135.378 317.88 135.193 318.357 135.182H331.812M331.812 134.487H318.372C317.721 134.5 317.097 134.753 316.62 135.198C316.143 135.643 315.848 136.248 315.791 136.898L314.831 150.353C314.805 150.661 314.844 150.971 314.944 151.263C315.045 151.555 315.205 151.823 315.415 152.05C315.625 152.277 315.88 152.457 316.163 152.58C316.447 152.703 316.753 152.765 317.062 152.763H330.517C331.169 152.752 331.794 152.499 332.271 152.054C332.748 151.609 333.043 151.003 333.099 150.353L334.066 136.898C334.092 136.589 334.053 136.278 333.952 135.986C333.851 135.693 333.69 135.424 333.48 135.197C333.269 134.971 333.013 134.79 332.729 134.668C332.444 134.546 332.137 134.484 331.827 134.487H331.812Z" fill="#EA5016"/>
<path opacity="0.3" d="M330.166 158.34C330.381 158.339 330.593 158.383 330.79 158.468C330.986 158.553 331.163 158.678 331.31 158.835C331.456 158.991 331.569 159.176 331.64 159.378C331.712 159.581 331.741 159.795 331.726 160.009L330.767 173.464C330.72 173.939 330.501 174.381 330.153 174.706C329.804 175.032 329.348 175.22 328.871 175.235H315.409C315.194 175.235 314.981 175.191 314.783 175.106C314.586 175.02 314.409 174.895 314.262 174.737C314.116 174.58 314.003 174.394 313.932 174.191C313.861 173.988 313.832 173.772 313.849 173.558L314.816 160.103C314.861 159.628 315.08 159.186 315.429 158.861C315.778 158.537 316.234 158.351 316.711 158.34H330.158M330.158 157.646H316.719C316.067 157.657 315.442 157.909 314.965 158.354C314.488 158.8 314.193 159.406 314.137 160.056L313.17 173.511C313.144 173.819 313.183 174.13 313.284 174.423C313.385 174.716 313.546 174.984 313.756 175.211C313.967 175.438 314.223 175.618 314.507 175.741C314.792 175.863 315.099 175.924 315.409 175.921H328.864C329.515 175.908 330.139 175.655 330.616 175.21C331.092 174.765 331.388 174.16 331.445 173.511L332.405 160.056C332.431 159.747 332.392 159.437 332.291 159.144C332.19 158.851 332.029 158.583 331.819 158.356C331.608 158.129 331.352 157.948 331.067 157.826C330.783 157.704 330.476 157.642 330.166 157.646H330.158Z" fill="#EA5016"/>
<path d="M310.44 232.775C310.621 232.771 310.8 232.804 310.967 232.874C311.134 232.944 311.284 233.049 311.407 233.181C311.53 233.315 311.623 233.473 311.68 233.645C311.738 233.817 311.759 233.999 311.743 234.179C311.708 234.584 311.525 234.962 311.228 235.24C310.931 235.518 310.542 235.677 310.136 235.685C309.955 235.69 309.774 235.657 309.607 235.587C309.439 235.517 309.289 235.412 309.166 235.279C309.042 235.146 308.949 234.988 308.891 234.816C308.834 234.643 308.814 234.461 308.833 234.281C308.866 233.875 309.049 233.496 309.346 233.218C309.643 232.939 310.033 232.782 310.44 232.775ZM310.44 232.089C309.861 232.098 309.306 232.322 308.883 232.717C308.459 233.111 308.197 233.649 308.147 234.226C308.122 234.501 308.155 234.778 308.244 235.039C308.332 235.3 308.475 235.54 308.663 235.742C308.851 235.945 309.079 236.105 309.332 236.213C309.586 236.322 309.86 236.376 310.136 236.371C310.716 236.361 311.272 236.137 311.696 235.74C312.119 235.344 312.381 234.804 312.429 234.226C312.453 233.952 312.419 233.676 312.33 233.415C312.241 233.155 312.097 232.917 311.91 232.715C311.722 232.514 311.495 232.354 311.241 232.246C310.988 232.138 310.715 232.085 310.44 232.089Z" fill="#EA5016"/>
<path d="M310.643 232.097L310.3 232.073L310.354 231.387L310.69 231.41L310.643 232.097Z" fill="#EA5016"/>
<path d="M310.791 230.006H310.448L310.549 228.602H310.892L310.791 230.006ZM310.994 227.183H310.651L310.752 225.779H311.095L310.994 227.183ZM311.197 224.367H310.853L310.955 222.955H311.298L311.197 224.367ZM311.399 221.551H311.056L311.158 220.139H311.501L311.399 221.551ZM311.602 218.735H311.259L311.36 217.323H311.704L311.602 218.735ZM311.805 215.919H311.462L311.563 214.508H311.906L311.805 215.919ZM312.008 213.096H311.665L311.766 211.692H312.109L312.008 213.096ZM312.211 210.28H311.867L311.969 208.868H312.312L312.211 210.28ZM312.413 207.464H312.07L312.172 206.052H312.515L312.413 207.464ZM312.608 204.648H312.265L312.367 203.237H312.71L312.608 204.648ZM312.811 201.833H312.468L312.569 200.421H312.913L312.811 201.833Z" fill="#EA5016"/>
<path d="M312.711 198.303L312.663 198.988L313.005 199.012L313.054 198.327L312.711 198.303Z" fill="#EA5016"/>
<path d="M327.429 198.689H203.923C203.585 198.692 203.25 198.625 202.94 198.49C202.629 198.356 202.351 198.158 202.122 197.909C201.89 197.66 201.713 197.366 201.602 197.045C201.49 196.724 201.447 196.384 201.474 196.045L202.09 187.543C202.149 186.848 202.464 186.199 202.974 185.723C203.484 185.247 204.154 184.978 204.852 184.969H328.38C328.718 184.967 329.052 185.035 329.361 185.169C329.671 185.303 329.949 185.499 330.179 185.746C330.409 185.994 330.584 186.286 330.695 186.605C330.806 186.923 330.849 187.261 330.822 187.598L330.213 196.1C330.157 196.801 329.84 197.456 329.324 197.935C328.809 198.415 328.132 198.684 327.429 198.689ZM204.852 185.718C204.341 185.726 203.851 185.923 203.478 186.272C203.104 186.621 202.874 187.096 202.831 187.605L202.223 196.107C202.203 196.343 202.232 196.581 202.309 196.805C202.386 197.029 202.508 197.235 202.668 197.41C202.829 197.581 203.024 197.716 203.24 197.807C203.456 197.899 203.689 197.944 203.923 197.94H327.429C327.94 197.934 328.431 197.737 328.805 197.388C329.178 197.039 329.408 196.563 329.449 196.053L330.065 187.551C330.083 187.318 330.053 187.084 329.977 186.863C329.901 186.642 329.78 186.44 329.622 186.268C329.464 186.096 329.272 185.958 329.058 185.863C328.845 185.769 328.614 185.719 328.38 185.718H204.852Z" fill="#EA5016"/>
<path opacity="0.8" fill-rule="evenodd" clip-rule="evenodd" d="M324.776 190.46H207.698C207.549 190.462 207.401 190.432 207.264 190.373C207.127 190.314 207.004 190.227 206.902 190.118C206.801 190.008 206.724 189.879 206.675 189.738C206.627 189.596 206.609 189.447 206.622 189.298C206.65 188.987 206.793 188.697 207.022 188.484C207.25 188.271 207.55 188.15 207.862 188.144H324.948C325.096 188.142 325.243 188.171 325.379 188.23C325.515 188.289 325.638 188.375 325.738 188.484C325.839 188.593 325.916 188.721 325.964 188.861C326.011 189.002 326.029 189.15 326.016 189.298C325.991 189.611 325.85 189.904 325.621 190.119C325.392 190.334 325.09 190.455 324.776 190.46Z" fill="white"/>
<path opacity="0.8" fill-rule="evenodd" clip-rule="evenodd" d="M305.268 195.335H207.347C207.199 195.337 207.052 195.307 206.916 195.249C206.78 195.19 206.657 195.104 206.557 194.995C206.456 194.886 206.379 194.758 206.331 194.617C206.283 194.477 206.265 194.328 206.279 194.181C206.304 193.868 206.445 193.575 206.674 193.36C206.903 193.145 207.205 193.023 207.519 193.019H305.432C305.588 193.012 305.743 193.039 305.887 193.098C306.03 193.157 306.16 193.247 306.265 193.362C306.371 193.476 306.45 193.612 306.497 193.76C306.545 193.909 306.559 194.065 306.54 194.22C306.502 194.529 306.351 194.814 306.116 195.02C305.882 195.225 305.58 195.338 305.268 195.335Z" fill="white"/>
</svg>
