<svg width="200" height="196" viewBox="0 0 200 196" fill="none" xmlns="http://www.w3.org/2000/svg">
<path d="M63.1458 195.113C60.4382 195.113 57.9849 195.146 55.5316 195.076C55.1925 195.076 54.7686 194.632 54.5513 194.29C52.1404 190.438 49.7401 186.581 47.3875 182.697C47.2442 182.375 47.0016 182.109 46.6959 181.938C46.3902 181.768 46.038 181.702 45.6919 181.75C44.8177 181.83 43.9275 181.75 42.926 181.75V195.033H35.6562V160.592C35.7622 160.549 35.8576 160.464 35.9477 160.469C40.5416 160.522 45.1409 160.437 49.7242 160.704C52.7127 160.881 55.5528 161.913 57.5186 164.412C60.8356 168.574 59.8818 175.272 55.5263 178.487C54.7845 179.022 53.9791 179.492 53.0783 180.092C56.39 185.019 59.6964 189.962 63.1458 195.113ZM42.9843 166.225V176.015C45.1621 175.753 47.2551 175.635 49.2791 175.213C51.0171 174.854 52.0822 172.998 52.0663 170.965C52.0504 168.932 51.1178 167.408 49.2686 167.022C47.2392 166.6 45.1462 166.477 42.9843 166.215V166.225Z" fill="black"/>
<path d="M106.469 160.477H113.622V175.815L113.871 175.927C114.094 175.649 114.327 175.392 114.544 175.098C118.172 170.408 121.803 165.716 125.438 161.023C125.638 160.747 125.933 160.557 126.265 160.488C128.744 160.445 131.224 160.488 133.99 160.488L121.994 175.75L134.123 195.1C131.897 195.1 129.884 194.993 127.881 195.132C126.344 195.239 125.491 194.726 124.702 193.367C122.259 189.162 119.631 185.064 117.071 180.924C116.97 180.778 116.861 180.638 116.743 180.506C115.81 181.175 114.862 181.801 113.993 182.523C113.767 182.831 113.662 183.212 113.696 183.593C113.696 187.001 113.696 190.409 113.696 193.816V195.041H106.469V160.477Z" fill="black"/>
<path d="M142.844 195.045V160.508H162.592V166.392H150.188V174.032H161.749V180.056H150.188V188.995H162.613V195.045H142.844Z" fill="black"/>
<path d="M188.675 195.056H181.357V193.852C181.357 190.23 181.384 186.609 181.357 182.987C181.346 182.242 181.164 181.51 180.827 180.847C177.41 174.363 173.939 167.901 170.489 161.433C170.346 161.16 170.235 160.898 170.039 160.438C172.635 160.438 175.078 160.438 177.521 160.47C177.765 160.47 178.088 160.855 178.226 161.134C180.391 165.449 182.547 169.77 184.695 174.096C184.796 174.259 184.906 174.416 185.024 174.567C185.23 174.181 185.4 173.887 185.554 173.582C187.599 169.527 189.665 165.478 191.668 161.401C191.789 161.074 192.018 160.798 192.316 160.62C192.614 160.442 192.963 160.372 193.306 160.422C195.473 160.481 197.64 160.422 199.998 160.422C199.653 161.112 199.388 161.685 199.092 162.236C195.822 168.329 192.5 174.39 189.252 180.478C188.908 181.171 188.727 181.934 188.722 182.709C188.664 186.4 188.696 190.097 188.696 193.788L188.675 195.056Z" fill="black"/>
<path d="M78.9672 195.031C78.9672 191.077 78.9354 187.311 78.9672 183.545C78.9962 182.44 78.7308 181.349 78.1989 180.383C74.8131 174.119 71.4696 167.833 68.1314 161.552C67.9672 161.242 67.8347 160.921 67.6016 160.445C70.1767 160.445 72.6141 160.413 75.0515 160.482C75.3376 160.482 75.6979 160.964 75.8675 161.301C77.9393 165.388 79.9846 169.486 82.0352 173.605C82.1941 173.921 82.3743 174.226 82.6127 174.675C83.736 172.455 84.8011 170.358 85.8608 168.255C87.0583 165.891 88.2293 163.516 89.4533 161.167C89.5343 161.004 89.6491 160.86 89.7899 160.746C89.9306 160.631 90.0941 160.549 90.2693 160.504C92.6537 160.45 95.0381 160.472 97.6239 160.472C96.8397 161.954 96.1402 163.302 95.4196 164.639C92.5053 170.053 89.5222 175.488 86.6026 180.945C86.3548 181.443 86.226 181.992 86.2264 182.55C86.1893 186.177 86.2264 189.799 86.2264 193.42V195.025L78.9672 195.031Z" fill="black"/>
<path d="M16.5478 195.075H9.26739V166.62H0V160.516H25.8681V166.55H16.5478V195.075Z" fill="black"/>
<path d="M35.0478 70.0186C35.0478 50.6967 35.0478 31.3466 35.0478 11.9683C35.0478 4.51723 39.4974 0.000730291 46.9133 0.000730291C74.5673 0.000730291 102.221 0.000730291 129.875 0.000730291C138.384 -0.0536716 146.637 2.93294 153.173 8.43188C159.71 13.9308 164.109 21.5874 165.591 30.0464C165.868 32.0461 165.972 34.0665 165.902 36.0845C165.902 64.1013 165.807 92.1181 165.998 120.135C166.027 121.668 165.75 123.19 165.183 124.612C164.616 126.035 163.77 127.326 162.697 128.411C161.624 129.495 160.345 130.35 158.937 130.924C157.529 131.499 156.021 131.78 154.503 131.752C115.598 131.752 76.6884 131.752 37.775 131.752C35.6698 131.752 35 131.088 35 128.963C35.0718 109.375 35.0478 89.6908 35.0478 70.0186ZM108.178 48.7886H105.331C96.9585 48.7886 88.5857 48.7886 80.2129 48.7886C71.6488 48.7886 66.7089 53.7037 66.6849 62.2898C66.6849 73.1343 66.6849 84.0029 66.6849 94.8956C66.6849 103.277 71.7325 108.312 80.0574 108.336C93.406 108.336 106.743 108.336 120.079 108.336C120.809 108.336 121.527 108.336 122.244 108.24C125.198 107.971 127.947 106.603 129.958 104.403C131.969 102.203 133.099 99.3266 133.129 96.3327C133.225 84.5222 133.201 72.6995 133.129 60.889C133.152 58.3522 132.368 55.8747 130.894 53.8207C129.419 51.7666 127.331 50.2442 124.935 49.477C123.438 49.0603 121.916 48.7377 120.378 48.5109C120.917 41.712 120.043 35.227 115.091 29.8773C112.828 27.3267 109.966 25.3925 106.768 24.2528C103.569 23.1131 100.138 22.8048 96.791 23.3561C86.5045 24.7449 78.8494 34.9976 79.6986 44.1151C82.8563 44.1151 86.05 44.1151 89.2675 44.1151C90.8942 44.1151 91.7913 43.9461 92.1382 41.9414C92.371 40.3983 93.0802 38.9688 94.1648 37.8564C95.2494 36.744 96.654 36.0056 98.1785 35.7463C99.7124 35.3506 101.329 35.4356 102.814 35.9899C104.299 36.5443 105.582 37.5418 106.491 38.8499C108.776 41.7361 108.202 45.0692 108.178 48.7886ZM125.557 37.0143C125.951 37.1143 126.35 37.1869 126.754 37.2317C137.112 37.123 147.482 36.9781 157.852 36.9298C159.718 36.9298 159.91 36.0965 159.718 34.5146C158.271 22.4383 151.812 13.9125 141.203 8.49031C136.347 6.02515 130.953 4.8372 125.522 5.03651L125.557 37.0143Z" fill="black"/>
<path d="M99.9257 86.4533C97.9006 86.447 95.9602 85.6319 94.5282 84.1861C93.0962 82.7404 92.2889 80.7813 92.2826 78.7366C92.2636 77.7018 92.4475 76.6733 92.8237 75.7105C93.1999 74.7477 93.761 73.8695 94.4747 73.1265C95.1885 72.3834 96.0407 71.7903 96.9823 71.3811C97.924 70.9719 98.9365 70.7547 99.9616 70.7422C102.032 70.7704 104.009 71.6149 105.47 73.0952C106.932 74.5754 107.762 76.5741 107.784 78.6642C107.762 80.7482 106.922 82.7384 105.449 84.1985C103.976 85.6586 101.99 86.4694 99.9257 86.4533Z" fill="black"/>
<path d="M131.92 12.3281C140.292 12.8836 149.634 21.0834 152.253 30.2492C150.435 30.7806 149.132 30.8651 148.175 28.6069C145.436 22.134 140.388 18.0402 133.821 15.9027C131.872 15.2385 131.334 14.3569 131.92 12.3281Z" fill="black"/>
<path d="M142.077 30.54H132.508V22.3281C136.648 23.6797 140.089 26.6325 142.077 30.54Z" fill="black"/>
</svg>
