<svg width="66" height="66" viewBox="0 0 66 66" fill="none" xmlns="http://www.w3.org/2000/svg">
<g clip-path="url(#clip0_774_6)">
<path d="M0.523899 35.0093C0.523899 25.3484 0.523899 15.6733 0.523899 5.98415C0.523899 2.25862 2.7487 0.000365146 6.45665 0.000365146C20.2836 0.000365146 34.1105 0.000365146 47.9375 0.000365146C52.192 -0.0268358 56.3185 1.46647 59.5865 4.21594C62.855 6.9654 65.0545 10.7937 65.7955 15.0232C65.934 16.0231 65.986 17.0332 65.951 18.0422C65.951 32.0506 65.9035 46.0591 65.999 60.0675C66.0135 60.834 65.875 61.595 65.5915 62.306C65.308 63.0175 64.885 63.663 64.3485 64.2055C63.812 64.7475 63.1725 65.175 62.4685 65.462C61.7645 65.7495 61.0105 65.89 60.2515 65.876C40.799 65.876 21.3442 65.876 1.8875 65.876C0.834901 65.876 0.5 65.544 0.5 64.4815C0.5359 54.6875 0.523899 44.8454 0.523899 35.0093ZM37.089 24.3943H35.6655C31.4793 24.3943 27.2928 24.3943 23.1064 24.3943C18.8244 24.3943 16.3544 26.8518 16.3424 31.1449C16.3424 36.5671 16.3424 42.0014 16.3424 47.4478C16.3424 51.6385 18.8663 54.156 23.0287 54.168C29.703 54.168 36.3715 54.168 43.0395 54.168C43.4045 54.168 43.7635 54.168 44.122 54.12C45.599 53.9855 46.9735 53.3015 47.979 52.2015C48.9845 51.1015 49.5495 49.6633 49.5645 48.1664C49.6125 42.2611 49.6005 36.3498 49.5645 30.4445C49.576 29.1761 49.184 27.9374 48.447 26.9104C47.7095 25.8833 46.6655 25.1221 45.4675 24.7385C44.719 24.5302 43.958 24.3688 43.189 24.2554C43.4585 20.856 43.0215 17.6135 40.5455 14.9387C39.414 13.6634 37.983 12.6963 36.384 12.1264C34.7845 11.5565 33.069 11.4024 31.3955 11.6781C26.2523 12.3725 22.4247 17.4988 22.8493 22.0576C24.4282 22.0576 26.025 22.0576 27.6338 22.0576C28.4471 22.0576 28.8956 21.973 29.0691 20.9707C29.1855 20.1991 29.5401 19.4844 30.0824 18.9282C30.6247 18.372 31.327 18.0028 32.0892 17.8731C32.8562 17.6753 33.6645 17.7178 34.407 17.9949C35.1495 18.2721 35.791 18.7709 36.2455 19.4249C37.388 20.868 37.101 22.5346 37.089 24.3943ZM45.7785 18.5072C45.9755 18.5572 46.175 18.5935 46.377 18.6159C51.556 18.5615 56.741 18.489 61.926 18.4649C62.859 18.4649 62.955 18.0482 62.859 17.2573C62.1355 11.2191 58.906 6.95625 53.6015 4.24515C51.1735 3.01257 48.4765 2.4186 45.761 2.51825L45.7785 18.5072Z" fill="white"/>
<path d="M32.9628 43.2266C31.9503 43.2235 30.9801 42.8159 30.2641 42.093C29.5481 41.3702 29.1444 40.3906 29.1413 39.3683C29.1318 38.8509 29.2237 38.3366 29.4118 37.8552C29.5999 37.3738 29.8805 36.9347 30.2373 36.5632C30.5942 36.1917 31.0203 35.8951 31.4911 35.6905C31.962 35.4859 32.4682 35.3773 32.9808 35.3711C34.016 35.3852 35.0045 35.8074 35.735 36.5476C36.466 37.2877 36.881 38.287 36.892 39.3321C36.881 40.3741 36.461 41.3692 35.7245 42.0992C34.988 42.8293 33.995 43.2347 32.9628 43.2266Z" fill="white"/>
<path d="M48.9637 6.16406C53.1497 6.44181 57.8207 10.5417 59.1302 15.1246C58.2212 15.3903 57.5697 15.4326 57.0912 14.3035C55.7217 11.067 53.1977 9.02011 49.9142 7.95136C48.9397 7.61926 48.6707 7.17846 48.9637 6.16406Z" fill="white"/>
<path d="M54.0423 15.27H49.2578V11.1641C51.3278 11.8399 53.0483 13.3163 54.0423 15.27Z" fill="white"/>
</g>
<defs>
<clipPath id="clip0_774_6">
<rect width="66" height="66" fill="white"/>
</clipPath>
</defs>
</svg>
