<svg width="38" height="38" viewBox="0 0 38 38" fill="none" xmlns="http://www.w3.org/2000/svg">
<rect x="0.777344" y="0.832031" width="37" height="37" rx="8.22222" fill="white"/>
<rect x="10.2324" y="17.2773" width="14.3889" height="12.3333" rx="2.87778" fill="black"/>
<circle cx="17.4272" cy="23.6498" r="1.43889" fill="white"/>
<path d="M13.1098 16.0447C13.1098 15.3896 13.2664 14.7439 13.5665 14.1616C13.8666 13.5792 14.3015 13.077 14.835 12.6968C15.3685 12.3166 15.9852 12.0694 16.6336 11.9758C17.282 11.8822 17.9434 11.9449 18.5627 12.1587C19.1819 12.3725 19.7411 12.7313 20.1937 13.205C20.6462 13.6787 20.979 14.2537 21.1642 14.8821C21.3495 15.5105 21.3819 16.1741 21.2587 16.8176C21.1356 17.461 20.8604 18.0657 20.4562 18.5813L18.9611 17.4091C19.1785 17.1318 19.3265 16.8065 19.3928 16.4604C19.459 16.1143 19.4416 15.7574 19.3419 15.4194C19.2423 15.0814 19.0633 14.7721 18.8199 14.5173C18.5765 14.2625 18.2757 14.0695 17.9426 13.9545C17.6095 13.8395 17.2538 13.8058 16.905 13.8561C16.5562 13.9064 16.2246 14.0394 15.9376 14.2439C15.6506 14.4484 15.4167 14.7186 15.2553 15.0318C15.0939 15.345 15.0096 15.6923 15.0096 16.0447L13.1098 16.0447Z" fill="black"/>
<path d="M27.6817 13.8812L23.0094 14.9675L24.2487 10.0667L25.3322 9.97448L28.0205 12.9755L27.6817 13.8812Z" stroke="black" stroke-width="0.548148"/>
<path d="M23.5879 12.1328L24.1484 11.5455L25.7606 12.6292L26.6495 13.9326L26.089 14.5199L23.5879 12.1328Z" fill="black"/>
</svg>
