<svg width="31" height="32" viewBox="0 0 31 32" fill="none" xmlns="http://www.w3.org/2000/svg">
<g clip-path="url(#clip0_2851_10106)">
<path d="M20.115 4.3524L9.28117 4.76251L1.03711 22.8103L6.94648 30.7638L25.7854 29.0168L29.4667 22.1354L20.115 4.3524ZM24.7586 27.4668L7.7118 29.0491L2.9294 22.6101L10.3565 6.36417L19.1527 6.04126L27.6132 22.1354L24.7586 27.4668Z" fill="#37375C"/>
<path d="M5.84739 12.28L3.87437 16.578C3.82984 16.6758 3.80501 16.7813 3.80127 16.8887C3.79754 16.996 3.81499 17.103 3.85262 17.2037C3.89026 17.3043 3.94733 17.3965 4.0206 17.475C4.09387 17.5535 4.18189 17.6169 4.27963 17.6614C4.37738 17.7059 4.48294 17.7308 4.59028 17.7345C4.69763 17.7382 4.80465 17.7208 4.90526 17.6832C5.00586 17.6455 5.09806 17.5884 5.1766 17.5152C5.25515 17.4419 5.31849 17.3539 5.36302 17.2561L7.32635 12.9614C7.37109 12.8636 7.39614 12.758 7.40006 12.6506C7.40399 12.5432 7.38672 12.436 7.34924 12.3353C7.31176 12.2345 7.2548 12.1421 7.18161 12.0634C7.10843 11.9846 7.02045 11.9211 6.9227 11.8764C6.82496 11.8316 6.71936 11.8066 6.61193 11.8026C6.50451 11.7987 6.39736 11.816 6.29661 11.8535C6.19585 11.891 6.10347 11.9479 6.02473 12.0211C5.94599 12.0943 5.88244 12.1823 5.8377 12.28H5.84739ZM23.5368 11.8021C23.3957 11.8014 23.2568 11.8373 23.1337 11.9062C23.0106 11.9751 22.9075 12.0748 22.8343 12.1954C22.7612 12.316 22.7205 12.4536 22.7163 12.5946C22.712 12.7356 22.7444 12.8753 22.8102 13.0001L25.4743 18.0667C25.577 18.2589 25.752 18.4025 25.9606 18.4658C26.1692 18.5291 26.3944 18.5069 26.5867 18.4041C26.779 18.3013 26.9226 18.1264 26.9858 17.9178C27.0491 17.7092 27.0269 17.4839 26.9242 17.2917L24.2601 12.238C24.1907 12.1064 24.0866 11.9962 23.9591 11.9193C23.8317 11.8425 23.6856 11.802 23.5368 11.8021ZM19.4099 27.9641L13.2551 28.5356C13.1394 28.5323 13.0244 28.5536 12.9175 28.598C12.8107 28.6425 12.7145 28.7092 12.6354 28.7936C12.5563 28.8781 12.496 28.9783 12.4585 29.0878C12.4211 29.1973 12.4073 29.3135 12.4181 29.4287C12.429 29.5439 12.4642 29.6555 12.5214 29.7561C12.5786 29.8567 12.6565 29.944 12.75 30.0122C12.8434 30.0804 12.9503 30.128 13.0636 30.1518C13.1768 30.1756 13.2938 30.175 13.4069 30.1502L19.5617 29.5948C19.7519 29.5472 19.9189 29.4331 20.0322 29.273C20.1455 29.1129 20.1977 28.9176 20.1794 28.7223C20.161 28.527 20.0733 28.3448 19.9321 28.2087C19.791 28.0725 19.6057 27.9915 19.4099 27.9802V27.9641Z" fill="#4B507F"/>
<path d="M6.68695 31.1771C10.2021 31.1771 13.0516 28.3275 13.0516 24.8124C13.0516 21.2973 10.2021 18.4477 6.68695 18.4477C3.17183 18.4477 0.322266 21.2973 0.322266 24.8124C0.322266 28.3275 3.17183 31.1771 6.68695 31.1771Z" fill="#CAD2E4"/>
<path d="M14.7963 13.5523C18.3114 13.5523 21.161 10.7027 21.161 7.18761C21.161 3.67249 18.3114 0.822922 14.7963 0.822922C11.2812 0.822922 8.43164 3.67249 8.43164 7.18761C8.43164 10.7027 11.2812 13.5523 14.7963 13.5523Z" fill="#CAD2E4"/>
<path d="M14.7962 12.2768C17.6069 12.2768 19.8854 9.99827 19.8854 7.1876C19.8854 4.37693 17.6069 2.09843 14.7962 2.09843C11.9855 2.09843 9.70703 4.37693 9.70703 7.1876C9.70703 9.99827 11.9855 12.2768 14.7962 12.2768Z" fill="#9DA5D0"/>
<path d="M14.7958 7.89156C15.1845 7.89156 15.4997 7.57639 15.4997 7.1876C15.4997 6.79881 15.1845 6.48364 14.7958 6.48364C14.407 6.48364 14.0918 6.79881 14.0918 7.1876C14.0918 7.57639 14.407 7.89156 14.7958 7.89156Z" fill="#7A82AD"/>
<path d="M18.9096 7.99166V6.37708H17.8568C17.7857 6.10195 17.677 5.83792 17.5339 5.59239L18.2766 4.84968L17.1335 3.70656L16.3908 4.44927C16.1438 4.30694 15.8788 4.19833 15.6029 4.12635V3.08333H13.9883V4.12958C13.7124 4.20156 13.4474 4.31017 13.2004 4.45249L12.4577 3.70979L11.3178 4.85291L12.0605 5.59562C11.9174 5.84114 11.8087 6.10518 11.7376 6.38031H10.6816V7.99489H11.7343C11.8043 8.27142 11.9131 8.53668 12.0573 8.78281L11.3146 9.52552L12.4545 10.6719L13.1972 9.92593C13.4449 10.0669 13.7097 10.1754 13.9851 10.2488V11.2951H15.5997V10.2521C15.875 10.1786 16.1398 10.0701 16.3876 9.92916L17.1303 10.6751L18.2702 9.52874L17.5275 8.78604C17.6717 8.53991 17.7804 8.27465 17.8504 7.99812L18.9096 7.99166ZM14.7956 8.6827C14.5 8.6827 14.2111 8.5951 13.9653 8.43096C13.7195 8.26681 13.5279 8.0335 13.4146 7.76049C13.3014 7.48749 13.2716 7.18704 13.329 6.8971C13.3864 6.60717 13.5285 6.34076 13.7373 6.13154C13.946 5.92232 14.2121 5.77967 14.5019 5.72162C14.7918 5.66356 15.0923 5.69271 15.3655 5.80538C15.6388 5.91804 15.8725 6.10917 16.0372 6.35462C16.2018 6.60006 16.2901 6.8888 16.2907 7.18437C16.2907 7.58119 16.1333 7.96181 15.853 8.24271C15.5727 8.52361 15.1924 8.68185 14.7956 8.6827Z" fill="#555F84"/>
<path d="M6.68781 29.3752C9.20778 29.3752 11.2506 27.3324 11.2506 24.8124C11.2506 22.2924 9.20778 20.2496 6.68781 20.2496C4.16784 20.2496 2.125 22.2924 2.125 24.8124C2.125 27.3324 4.16784 29.3752 6.68781 29.3752Z" fill="#464675"/>
<path d="M3.31876 21.7415C3.74546 21.2729 4.26529 20.8986 4.84497 20.6424C5.42465 20.3863 6.05142 20.254 6.68516 20.254C7.31891 20.254 7.94568 20.3863 8.52536 20.6424C9.10504 20.8986 9.62486 21.2729 10.0516 21.7415C10.1338 21.831 10.2336 21.9028 10.3447 21.9522C10.4557 22.0016 10.5758 22.0277 10.6974 22.0289C10.8723 22.0268 11.0427 21.9738 11.188 21.8765C11.3333 21.7792 11.4471 21.6417 11.5156 21.4807C11.584 21.3198 11.6042 21.1425 11.5736 20.9703C11.543 20.7981 11.463 20.6386 11.3432 20.5111C10.7495 19.8598 10.0264 19.3395 9.22018 18.9835C8.41394 18.6275 7.54229 18.4436 6.66094 18.4436C5.7796 18.4436 4.90795 18.6275 4.10171 18.9835C3.29547 19.3395 2.57238 19.8598 1.97865 20.5111C1.85893 20.6386 1.77888 20.7981 1.74828 20.9703C1.71768 21.1425 1.73784 21.3198 1.80631 21.4807C1.87478 21.6417 1.9886 21.7792 2.13388 21.8765C2.27916 21.9738 2.44963 22.0268 2.62449 22.0289C2.75418 22.0346 2.88356 22.0119 3.00352 21.9622C3.12347 21.9125 3.23108 21.8372 3.31876 21.7415Z" fill="#E3EBF3"/>
<path d="M10.3328 27.5313C9.91041 28.1035 9.35961 28.5686 8.72472 28.8891C8.08982 29.2095 7.38856 29.3765 6.67736 29.3765C5.96617 29.3765 5.2649 29.2095 4.63001 28.8891C3.99511 28.5686 3.44432 28.1035 3.02195 27.5313C2.95962 27.4195 2.87417 27.3222 2.77129 27.246C2.66841 27.1697 2.55046 27.1163 2.4253 27.0893C2.30015 27.0622 2.17066 27.0621 2.04548 27.0891C1.92029 27.116 1.80228 27.1693 1.69932 27.2454C1.59636 27.3215 1.5108 27.4187 1.44836 27.5305C1.38592 27.6423 1.34803 27.7661 1.33721 27.8937C1.32639 28.0213 1.34289 28.1497 1.38561 28.2704C1.42833 28.3911 1.49629 28.5014 1.58497 28.5937C2.17504 29.3911 2.94383 30.039 3.82961 30.4854C4.7154 30.9318 5.69351 31.1644 6.68544 31.1644C7.67736 31.1644 8.65548 30.9318 9.54126 30.4854C10.427 30.039 11.1958 29.3911 11.7859 28.5937C11.8621 28.4988 11.9182 28.3894 11.9509 28.2722C11.9836 28.155 11.9922 28.0323 11.9763 27.9117C11.9603 27.791 11.92 27.6749 11.8579 27.5702C11.7958 27.4655 11.7131 27.3746 11.6149 27.3027C11.5166 27.2309 11.4048 27.1797 11.2863 27.1523C11.1677 27.1248 11.0448 27.1217 10.925 27.1431C10.8051 27.1644 10.6909 27.2099 10.5891 27.2766C10.4873 27.3433 10.4001 27.43 10.3328 27.5313Z" fill="#9DA5D0"/>
<path d="M8.07358 29.1556C7.12591 29.4598 6.10433 29.4428 5.16732 29.1072C4.94423 29.0215 4.69624 29.028 4.47793 29.1252C4.25961 29.2224 4.08885 29.4024 4.00321 29.6255C3.91757 29.8486 3.92406 30.0965 4.02125 30.3149C4.11845 30.5332 4.29839 30.7039 4.52149 30.7896C5.85437 31.2729 7.31074 31.2956 8.65805 30.8542C8.86593 30.7638 9.03209 30.5983 9.1234 30.3909C9.21471 30.1834 9.22446 29.9491 9.15071 29.7348C9.07695 29.5205 8.92511 29.3418 8.72547 29.2345C8.52582 29.1271 8.29305 29.099 8.07358 29.1556Z" fill="#898CBC"/>
<path d="M6.68805 28.1352C8.52319 28.1352 10.0109 26.6475 10.0109 24.8124C10.0109 22.9773 8.52319 21.4896 6.68805 21.4896C4.85291 21.4896 3.36523 22.9773 3.36523 24.8124C3.36523 26.6475 4.85291 28.1352 6.68805 28.1352Z" fill="#555F84"/>
<path d="M6.6876 26.6562C7.70594 26.6562 8.53146 25.8307 8.53146 24.8124C8.53146 23.7941 7.70594 22.9685 6.6876 22.9685C5.66927 22.9685 4.84375 23.7941 4.84375 24.8124C4.84375 25.8307 5.66927 26.6562 6.6876 26.6562Z" fill="#464675"/>
<path d="M26.1136 29.3752C28.6336 29.3752 30.6764 27.3324 30.6764 24.8124C30.6764 22.2924 28.6336 20.2496 26.1136 20.2496C23.5936 20.2496 21.5508 22.2924 21.5508 24.8124C21.5508 27.3324 23.5936 29.3752 26.1136 29.3752Z" fill="#F5B44F"/>
<path d="M26.1136 28.2482C28.0111 28.2482 29.5494 26.7099 29.5494 24.8124C29.5494 22.9148 28.0111 21.3766 26.1136 21.3766C24.216 21.3766 22.6777 22.9148 22.6777 24.8124C22.6777 26.7099 24.216 28.2482 26.1136 28.2482Z" fill="#F57D4A"/>
<path d="M26.115 27.3473C27.515 27.3473 28.6499 26.2124 28.6499 24.8124C28.6499 23.4124 27.515 22.2775 26.115 22.2775C24.715 22.2775 23.5801 23.4124 23.5801 24.8124C23.5801 26.2124 24.715 27.3473 26.115 27.3473Z" fill="#CAD2E4"/>
<path d="M26.1136 26.5529C27.0748 26.5529 27.8541 25.7737 27.8541 24.8124C27.8541 23.8511 27.0748 23.0719 26.1136 23.0719C25.1523 23.0719 24.373 23.8511 24.373 24.8124C24.373 25.7737 25.1523 26.5529 26.1136 26.5529Z" fill="#9DAAE4"/>
<path d="M26.1135 25.9943C26.7662 25.9943 27.2954 25.4651 27.2954 24.8124C27.2954 24.1597 26.7662 23.6305 26.1135 23.6305C25.4608 23.6305 24.9316 24.1597 24.9316 24.8124C24.9316 25.4651 25.4608 25.9943 26.1135 25.9943Z" fill="#555F84"/>
<path d="M6.68773 25.9943C7.34047 25.9943 7.86961 25.4651 7.86961 24.8124C7.86961 24.1597 7.34047 23.6305 6.68773 23.6305C6.035 23.6305 5.50586 24.1597 5.50586 24.8124C5.50586 25.4651 6.035 25.9943 6.68773 25.9943Z" fill="#CAD2E4"/>
</g>
<defs>
<clipPath id="clip0_2851_10106">
<rect width="31" height="31" fill="white" transform="translate(0 0.5)"/>
</clipPath>
</defs>
</svg>
