<svg width="33" height="32" viewBox="0 0 33 32" fill="none" xmlns="http://www.w3.org/2000/svg">
<path d="M5.14515 6.99607C4.42468 6.99643 3.72047 7.21022 3.12148 7.61057C2.52249 8.01092 2.05557 8.57989 1.77972 9.24546C1.50386 9.91102 1.43144 10.6434 1.57159 11.3501C1.71174 12.0568 2.05817 12.7061 2.56714 13.216C3.08599 13.734 3.7489 14.0836 4.4694 14.2192C5.18989 14.3548 5.93452 14.27 6.60615 13.976L10.7091 18.081L12.5851 17.3861L12.5571 16.14L8.48315 12.104C8.72575 11.5493 8.8264 10.943 8.77602 10.3397C8.72564 9.73637 8.52582 9.15507 8.19459 8.64829C7.86335 8.14151 7.41113 7.72514 6.87874 7.43686C6.34636 7.14859 5.75057 6.99648 5.14515 6.99607ZM5.70016 8.64707L7.13915 10.0851L6.58214 12.0791L4.58816 12.635L3.15114 11.196L3.70515 9.202L5.70016 8.64707ZM21.0532 18.2051L25.4282 13.9231C26.0669 14.203 26.7729 14.2923 27.4613 14.1803C28.1496 14.0683 28.7909 13.7598 29.308 13.2918C29.8251 12.8239 30.1959 12.2165 30.3758 11.5427C30.5558 10.8689 30.5371 10.1574 30.3221 9.49399L27.8122 12.005L25.7181 11.773L25.4851 9.67905L27.9941 7.171C27.3605 6.96554 26.6825 6.93906 26.0348 7.09433C25.387 7.24961 24.7948 7.58061 24.3232 8.051C23.809 8.566 23.4621 9.22411 23.3278 9.93931C23.1935 10.6545 23.2779 11.3936 23.5702 12.06L19.4182 16.117L19.4992 17.274L21.0532 18.2051Z" fill="#2B4255"/>
<path fill-rule="evenodd" clip-rule="evenodd" d="M12.5 13.8711V17.0791L6.58701 20.4551C5.95413 20.8138 5.4276 21.3337 5.061 21.962C4.69441 22.5904 4.50084 23.3047 4.5 24.0321V32H17.429H14.571H27.5V24.0321C27.4992 23.3047 27.3056 22.5904 26.939 21.962C26.5724 21.3337 26.0459 20.8138 25.413 20.4551L19.5 17.0791V13.8711" fill="#576D7E"/>
<path d="M13.283 25H18.736H13.283ZM21.863 25H23.5V32H8.5V25H10.005" fill="#4BBFEB"/>
<path d="M17.7708 24.998L17.4557 26.2581C17.4456 26.2976 17.438 26.3376 17.4328 26.3781C17.2568 27.8121 18.4868 29.001 19.8258 29.001C21.2088 29.001 22.1487 27.8631 22.4017 26.7161L22.8318 24.9991H20.7708L20.4557 26.259C20.453 26.2673 20.4503 26.2757 20.4478 26.2841C20.3438 26.7601 20.1038 26.9991 19.8248 26.9991C19.5068 26.9991 19.3938 26.915 19.4248 26.626L19.8307 24.9991H17.7708V24.998ZM9.09476 24.998L9.52475 26.7161C9.77675 27.8631 10.7178 29.001 12.1008 29.001C13.4388 29.001 14.6698 27.8111 14.4938 26.3781C14.4889 26.3376 14.4815 26.2976 14.4718 26.2581L14.1578 24.998H12.0938L12.4998 26.6281C12.5308 26.9171 12.4178 27.001 12.0998 27.001C11.8208 27.001 11.5818 26.7611 11.4768 26.2861C11.4749 26.277 11.4729 26.268 11.4707 26.259L11.1558 24.9991H9.09375L9.09476 24.998Z" fill="#78C8F0"/>
<path fill-rule="evenodd" clip-rule="evenodd" d="M12.5 13.8711V17.0791C12.723 19.6991 19.723 19.6991 19.5 17.0791V13.8711" fill="#FCD062"/>
<path d="M20.6131 17.7511L18.4261 26.5C18.3191 27.368 18.9951 28 19.8261 28C20.6561 28 21.2471 27.311 21.4261 26.5L23.2221 19.3141M11.3141 17.7511L13.5011 26.5C13.6081 27.368 12.9321 28 12.1011 28C11.2701 28 10.6801 27.311 10.5011 26.5L8.70508 19.3141" fill="#4BBFEB"/>
<path fill-rule="evenodd" clip-rule="evenodd" d="M12.5 13.8721V14.932C12.9406 15.4198 13.4773 15.8113 14.0764 16.0819C14.6754 16.3525 15.3239 16.4963 15.9812 16.5044C16.6385 16.5125 17.2904 16.3846 17.8959 16.1288C18.5014 15.873 19.0475 15.4949 19.5 15.0181V13.8721H12.5Z" fill="#F8B84E"/>
<path d="M13.8938 2.26909C13.541 2.26975 13.1918 2.34009 12.8663 2.476C12.5407 2.61192 12.2452 2.8107 11.9967 3.06109C11.7481 3.31147 11.5515 3.60855 11.418 3.93511C11.2845 4.26167 11.2168 4.61138 11.2188 4.96416V7.36016L11.2208 7.39007L11.2188 7.42009V10.6522C11.2188 13.3401 13.3678 15.5051 16.0358 15.5051C18.7038 15.5051 20.8518 13.3401 20.8518 10.6522V7.41912L20.8498 7.38909L20.8518 7.35906V3.85015C20.6338 2.18115 19.8258 0.990074 18.1718 0.999074C18.1198 1.77907 17.2958 2.22109 16.5618 2.26909H13.8938Z" fill="#FCD062"/>
<path d="M11.9004 26.5C12.1765 26.5 12.4004 26.2761 12.4004 26C12.4004 25.7239 12.1765 25.5 11.9004 25.5C11.6242 25.5 11.4004 25.7239 11.4004 26C11.4004 26.2761 11.6242 26.5 11.9004 26.5Z" fill="#2B4255"/>
<path d="M20.0254 26.5C19.7492 26.5 19.5254 26.2761 19.5254 26C19.5254 25.7239 19.7492 25.5 20.0254 25.5C20.3015 25.5 20.5254 25.7239 20.5254 26C20.5254 26.2761 20.3015 26.5 20.0254 26.5Z" fill="#2B4255"/>
<path fill-rule="evenodd" clip-rule="evenodd" d="M11.2228 8.50615C11.8228 8.50615 13.5038 6.94812 13.6468 6.41912C15.3438 9.34312 19.4498 6.44907 20.8398 8.84307L20.8518 7.41912V3.85015C20.6328 2.18115 19.8258 0.990074 18.1718 0.999074C18.1198 1.77907 17.2958 2.22009 16.5618 2.26909H13.8938C13.541 2.26975 13.1918 2.34009 12.8663 2.476C12.5407 2.61192 12.2452 2.8107 11.9967 3.06109C11.7481 3.31147 11.5515 3.60855 11.418 3.93511C11.2845 4.26167 11.2168 4.61138 11.2188 4.96416V7.35906L11.2208 7.38909L11.2188 8.28508L11.2228 8.50615Z" fill="#2B4255"/>
</svg>
