<svg width="59" height="32" viewBox="0 0 59 32" fill="none" xmlns="http://www.w3.org/2000/svg">
<path d="M58.9708 17.4333C58.7369 17.9599 57.0614 18.8622 55.7166 19.5375L53.36 20.5942H45.3455L37.4819 20.623L36.7686 20.6264L24.1307 20.6737L23.4163 20.676L17.2524 20.699L9.21478 20.6276L4.79773 20.6552C4.36739 20.6582 3.94857 20.5162 3.6087 20.2522C3.26883 19.9882 3.02766 19.6175 2.92402 19.1998L2.77652 18.233L2.36629 15.5515C2.23607 14.4568 1.31996 14.4118 0.66082 14.3623L0.511016 14.36C0.511016 14.3611 0.509863 14.3611 0.508711 14.36L0.400391 14.3588C0.547891 13.5395 0.963887 11.902 1.95721 11.7603C3.01736 11.6093 8.14184 11.4273 10.1793 11.3593C10.3072 11.3547 10.4224 11.3512 10.5238 11.3478C10.8454 11.3375 11.1559 11.2276 11.4123 11.0332L11.4538 11.0021L15.7924 7.72941C16.3556 7.30447 17.0158 7.02646 17.7133 6.92046C22.5335 6.18812 27.4376 6.20172 32.2536 6.96079C32.7586 7.04054 33.2339 7.25155 33.6318 7.57269L38.4648 11.4791C38.597 11.5861 38.7604 11.6472 38.9304 11.6531L50.4953 12.0864C52.4255 12.1548 54.3452 12.4028 56.2294 12.8274C57.505 13.1166 58.6401 13.4612 58.6401 13.7688C58.6401 14.4706 57.8991 16.7707 57.8991 16.7707C57.8991 16.7707 59.2047 16.9067 58.9708 17.4333Z" fill="#FABF23"/>
<path d="M13.2593 22.1718C14.7605 22.1718 15.9775 20.9548 15.9775 19.4536C15.9775 17.9523 14.7605 16.7353 13.2593 16.7353C11.758 16.7353 10.541 17.9523 10.541 19.4536C10.541 20.9548 11.758 22.1718 13.2593 22.1718Z" stroke="black" stroke-width="6" stroke-linecap="round" stroke-linejoin="round"/>
<path d="M14.0977 19.1169L15.8164 18.6068" stroke="black" stroke-width="6" stroke-linecap="round" stroke-linejoin="round"/>
<path d="M15.8258 20.3026L14.0918 19.788" stroke="black" stroke-width="6" stroke-linecap="round" stroke-linejoin="round"/>
<path d="M12.4261 19.7883L10.7031 20.2997" stroke="black" stroke-width="6" stroke-linecap="round" stroke-linejoin="round"/>
<path d="M10.6973 18.6055L12.4252 19.1182" stroke="black" stroke-width="6" stroke-linecap="round" stroke-linejoin="round"/>
<path d="M13.5957 20.2896L14.1084 22.0169" stroke="black" stroke-width="6" stroke-linecap="round" stroke-linejoin="round"/>
<path d="M12.4102 22.0176L12.9256 20.2809" stroke="black" stroke-width="6" stroke-linecap="round" stroke-linejoin="round"/>
<path d="M12.9232 18.6188L12.4082 16.8836" stroke="black" stroke-width="6" stroke-linecap="round" stroke-linejoin="round"/>
<path d="M14.1079 16.893L13.5938 18.6254" stroke="black" stroke-width="6" stroke-linecap="round" stroke-linejoin="round"/>
<path d="M13.2591 20.3318C13.7441 20.3318 14.1373 19.9386 14.1373 19.4536C14.1373 18.9686 13.7441 18.5754 13.2591 18.5754C12.774 18.5754 12.3809 18.9686 12.3809 19.4536C12.3809 19.9386 12.774 20.3318 13.2591 20.3318Z" stroke="black" stroke-width="6" stroke-linecap="round" stroke-linejoin="round"/>
<path d="M13.2599 23.6178C15.5598 23.6178 17.4242 21.7534 17.4242 19.4536C17.4242 17.1537 15.5598 15.2894 13.2599 15.2894C10.9601 15.2894 9.0957 17.1537 9.0957 19.4536C9.0957 21.7534 10.9601 23.6178 13.2599 23.6178Z" fill="#2B2E2B"/>
<path d="M13.2593 22.1718C14.7605 22.1718 15.9775 20.9548 15.9775 19.4536C15.9775 17.9523 14.7605 16.7353 13.2593 16.7353C11.758 16.7353 10.541 17.9523 10.541 19.4536C10.541 20.9548 11.758 22.1718 13.2593 22.1718Z" fill="#898C8F"/>
<path d="M16.1001 20.2397C16.0897 20.1927 16.0672 20.1491 16.0349 20.1133C16.0026 20.0776 15.9615 20.0508 15.9158 20.0356C15.9128 20.0339 15.9096 20.0326 15.9063 20.0318L14.4117 19.5888C14.4174 19.5438 14.4203 19.4986 14.4202 19.4534C14.4202 19.4081 14.4174 19.3629 14.4117 19.318L15.8982 18.8778C15.9044 18.8761 15.9103 18.8739 15.9161 18.8712C15.9845 18.8456 16.0403 18.7945 16.0718 18.7286C16.1033 18.6627 16.108 18.5872 16.085 18.5179C16.062 18.4486 16.013 18.3909 15.9483 18.357C15.8837 18.3231 15.8084 18.3155 15.7383 18.3359L14.2109 18.7893C14.1326 18.6782 14.0359 18.5815 13.9249 18.5034L14.3782 16.9759L14.3792 16.973C14.4002 16.9026 14.3928 16.8267 14.3587 16.7615C14.3245 16.6964 14.2663 16.6472 14.1964 16.6243C14.1264 16.6015 14.0504 16.6069 13.9844 16.6394C13.9184 16.6719 13.8676 16.7288 13.843 16.7981C13.8408 16.8026 13.8389 16.8073 13.8374 16.8122L13.3963 18.302C13.3514 18.2964 13.3061 18.2936 13.2609 18.2936C13.2156 18.2936 13.1703 18.2964 13.1254 18.302L12.6804 16.804C12.6795 16.8022 12.6795 16.8002 12.6786 16.7983C12.6566 16.7269 12.6072 16.6671 12.5412 16.632C12.4751 16.597 12.3978 16.5897 12.3264 16.6116C12.2549 16.6336 12.1951 16.683 12.1601 16.749C12.125 16.8151 12.1177 16.8924 12.1396 16.9638L12.1434 16.9762L12.5968 18.5036C12.4857 18.5817 12.389 18.6784 12.3109 18.7895L10.7821 18.3359L10.7783 18.335C10.7077 18.314 10.6317 18.3214 10.5665 18.3557C10.5013 18.39 10.4522 18.4485 10.4296 18.5186C10.407 18.5887 10.4128 18.6648 10.4456 18.7307C10.4785 18.7966 10.5358 18.847 10.6054 18.8712C10.6094 18.8731 10.6135 18.8747 10.6177 18.8758L12.1085 19.318C12.1033 19.3629 12.1005 19.4081 12.1 19.4534C12.1004 19.4986 12.1033 19.5438 12.1085 19.5888L10.6243 20.0289C10.6182 20.0306 10.6122 20.0329 10.6064 20.0356C10.5621 20.0517 10.5226 20.0789 10.4918 20.1147C10.461 20.1504 10.4399 20.1935 10.4305 20.2397C10.4191 20.2859 10.4204 20.3343 10.4343 20.3798C10.4516 20.4383 10.4873 20.4896 10.5361 20.526C10.5849 20.5625 10.6443 20.5821 10.7052 20.5821C10.7313 20.5819 10.7573 20.578 10.7823 20.5705C10.7832 20.5705 10.7841 20.5696 10.7851 20.5696L11.8988 20.2395L12.3108 20.1172C12.3409 20.1607 12.3745 20.2016 12.4114 20.2395C12.4668 20.3008 12.529 20.3557 12.5967 20.4031L12.1433 21.9305L12.1414 21.9372C12.1308 21.9727 12.1272 22.0099 12.131 22.0468C12.1348 22.0836 12.1458 22.1194 12.1634 22.152C12.181 22.1846 12.2048 22.2134 12.2335 22.2368C12.2623 22.2601 12.2953 22.2776 12.3308 22.2882C12.357 22.2958 12.3842 22.2996 12.4115 22.2998C12.4702 22.2997 12.5275 22.2813 12.5752 22.247C12.623 22.2128 12.6588 22.1645 12.6777 22.1088C12.6795 22.1056 12.6808 22.1021 12.6815 22.0984L13.1244 20.6058C13.1694 20.611 13.2147 20.6138 13.2599 20.6142C13.3052 20.6138 13.3504 20.611 13.3953 20.6058L13.8374 22.0975C13.8383 22.1013 13.8403 22.1051 13.8412 22.109C13.8604 22.1646 13.8965 22.2129 13.9443 22.2471C13.9922 22.2813 14.0495 22.2998 14.1083 22.3C14.1354 22.2996 14.1623 22.2955 14.1883 22.2878C14.2239 22.2773 14.257 22.2599 14.2858 22.2366C14.3147 22.2133 14.3386 22.1845 14.3563 22.1519C14.3739 22.1192 14.385 22.0835 14.3888 22.0466C14.3925 22.0097 14.389 21.9724 14.3783 21.9369L14.3763 21.9323L13.9245 20.4033C13.9922 20.356 14.0544 20.3011 14.1098 20.2397C14.1467 20.2018 14.1804 20.1609 14.2105 20.1174L14.6216 20.2397L15.7379 20.5717L15.7454 20.5735C15.7714 20.5811 15.7983 20.585 15.8254 20.5851C15.8864 20.5851 15.9457 20.5655 15.9945 20.529C16.0434 20.4926 16.0791 20.4413 16.0963 20.3828C16.1103 20.3363 16.1116 20.2869 16.1001 20.2397ZM12.6642 19.4534C12.6643 19.3355 12.6993 19.2204 12.7648 19.1225C12.8303 19.0246 12.9234 18.9482 13.0322 18.9032C13.1411 18.8582 13.2609 18.8464 13.3764 18.8694C13.492 18.8924 13.5981 18.9492 13.6814 19.0325C13.7647 19.1158 13.8215 19.2219 13.8445 19.3374C13.8675 19.453 13.8557 19.5728 13.8107 19.6816C13.7656 19.7905 13.6893 19.8836 13.5914 19.9491C13.4935 20.0146 13.3783 20.0496 13.2605 20.0497C13.1024 20.0497 12.9507 19.9869 12.8388 19.875C12.727 19.7632 12.6642 19.6115 12.6642 19.4534Z" fill="#2B2E2B"/>
<path d="M49.353 22.1718C50.8543 22.1718 52.0713 20.9548 52.0713 19.4536C52.0713 17.9523 50.8543 16.7353 49.353 16.7353C47.8518 16.7353 46.6348 17.9523 46.6348 19.4536C46.6348 20.9548 47.8518 22.1718 49.353 22.1718Z" stroke="black" stroke-width="6" stroke-linecap="round" stroke-linejoin="round"/>
<path d="M50.1934 19.1169L51.9122 18.6068" stroke="black" stroke-width="6" stroke-linecap="round" stroke-linejoin="round"/>
<path d="M51.9196 20.3026L50.1855 19.788" stroke="black" stroke-width="6" stroke-linecap="round" stroke-linejoin="round"/>
<path d="M48.5218 19.7883L46.7988 20.2997" stroke="black" stroke-width="6" stroke-linecap="round" stroke-linejoin="round"/>
<path d="M46.791 18.6055L48.519 19.1182" stroke="black" stroke-width="6" stroke-linecap="round" stroke-linejoin="round"/>
<path d="M49.6895 20.2896L50.2021 22.0169" stroke="black" stroke-width="6" stroke-linecap="round" stroke-linejoin="round"/>
<path d="M48.5059 22.0176L49.0213 20.2809" stroke="black" stroke-width="6" stroke-linecap="round" stroke-linejoin="round"/>
<path d="M49.0189 18.6188L48.5039 16.8836" stroke="black" stroke-width="6" stroke-linecap="round" stroke-linejoin="round"/>
<path d="M50.2017 16.893L49.6875 18.6254" stroke="black" stroke-width="6" stroke-linecap="round" stroke-linejoin="round"/>
<path d="M49.3548 20.3318C49.8398 20.3318 50.233 19.9386 50.233 19.4536C50.233 18.9686 49.8398 18.5754 49.3548 18.5754C48.8697 18.5754 48.4766 18.9686 48.4766 19.4536C48.4766 19.9386 48.8697 20.3318 49.3548 20.3318Z" stroke="black" stroke-width="6" stroke-linecap="round" stroke-linejoin="round"/>
<path d="M49.3537 23.6178C51.6535 23.6178 53.5179 21.7534 53.5179 19.4536C53.5179 17.1537 51.6535 15.2894 49.3537 15.2894C47.0538 15.2894 45.1895 17.1537 45.1895 19.4536C45.1895 21.7534 47.0538 23.6178 49.3537 23.6178Z" fill="#2B2E2B"/>
<path d="M49.353 22.1718C50.8543 22.1718 52.0713 20.9548 52.0713 19.4536C52.0713 17.9523 50.8543 16.7353 49.353 16.7353C47.8518 16.7353 46.6348 17.9523 46.6348 19.4536C46.6348 20.9548 47.8518 22.1718 49.353 22.1718Z" fill="#898C8F"/>
<path d="M52.1938 20.2397C52.1834 20.1927 52.1609 20.1491 52.1286 20.1133C52.0963 20.0776 52.0552 20.0508 52.0095 20.0356C52.0065 20.0339 52.0033 20.0326 52 20.0318L50.5054 19.5888C50.5111 19.5439 50.514 19.4986 50.514 19.4534C50.514 19.4081 50.5111 19.3629 50.5054 19.318L51.992 18.8778C51.9981 18.8761 52.0041 18.8739 52.0098 18.8712C52.0782 18.8456 52.134 18.7945 52.1655 18.7286C52.197 18.6627 52.2017 18.5872 52.1787 18.5179C52.1557 18.4486 52.1067 18.3909 52.0421 18.357C51.9774 18.3231 51.9021 18.3155 51.832 18.3359L50.3045 18.7893C50.2263 18.6782 50.1296 18.5815 50.0186 18.5034L50.4719 16.9759L50.4729 16.9731C50.4939 16.9026 50.4866 16.8267 50.4524 16.7615C50.4182 16.6964 50.36 16.6472 50.2901 16.6244C50.2201 16.6015 50.1441 16.6069 50.0781 16.6394C50.0121 16.6719 49.9614 16.7288 49.9368 16.7981C49.9345 16.8026 49.9326 16.8073 49.9311 16.8122L49.49 18.302C49.445 18.2964 49.3998 18.2936 49.3545 18.2936C49.3092 18.2936 49.264 18.2964 49.2191 18.302L48.7742 16.804C48.7732 16.8022 48.7732 16.8002 48.7723 16.7984C48.7504 16.7269 48.7009 16.6671 48.6349 16.632C48.5688 16.597 48.4916 16.5897 48.4201 16.6116C48.3486 16.6336 48.2888 16.683 48.2538 16.749C48.2188 16.8151 48.2114 16.8924 48.2334 16.9638L48.2372 16.9762L48.6905 18.5036C48.5795 18.5817 48.4827 18.6785 48.4046 18.7895L46.8761 18.3362L46.8723 18.3352C46.8017 18.3142 46.7257 18.3216 46.6606 18.3559C46.5954 18.3902 46.5463 18.4487 46.5237 18.5188C46.5011 18.5889 46.5068 18.665 46.5397 18.7309C46.5725 18.7969 46.6299 18.8473 46.6995 18.8714C46.7034 18.8733 46.7075 18.8749 46.7117 18.876L48.2026 19.3182C48.1974 19.3631 48.1945 19.4083 48.1941 19.4536C48.1945 19.4988 48.1973 19.544 48.2026 19.589L46.7184 20.0292C46.7122 20.0308 46.7062 20.033 46.7005 20.0359C46.6561 20.0519 46.6167 20.0792 46.5858 20.1149C46.555 20.1506 46.5339 20.1937 46.5245 20.2399C46.5131 20.2861 46.5145 20.3346 46.5283 20.3801C46.5456 20.4385 46.5813 20.4898 46.6302 20.5262C46.679 20.5627 46.7383 20.5824 46.7993 20.5823C46.8254 20.5821 46.8513 20.5783 46.8764 20.5708C46.8773 20.5708 46.8782 20.5699 46.8791 20.5699L47.9927 20.2397L48.4048 20.1175C48.4349 20.1609 48.4686 20.2018 48.5054 20.2397C48.5609 20.301 48.623 20.3559 48.6907 20.4033L48.2372 21.9308L48.2352 21.9375C48.2246 21.973 48.2211 22.0102 48.225 22.0471C48.2288 22.0839 48.2398 22.1197 48.2575 22.1522C48.2751 22.1848 48.299 22.2136 48.3278 22.2369C48.3566 22.2603 48.3897 22.2777 48.4252 22.2882C48.4515 22.2958 48.4786 22.2996 48.5059 22.2998C48.5646 22.2997 48.6219 22.2813 48.6696 22.247C48.7174 22.2128 48.7532 22.1644 48.7721 22.1088C48.7739 22.1056 48.7752 22.1021 48.7759 22.0984L49.2188 20.6058C49.2638 20.611 49.309 20.6138 49.3542 20.6142C49.3995 20.6138 49.4448 20.611 49.4898 20.6058L49.9318 22.0975C49.9327 22.1013 49.9347 22.1051 49.9356 22.109C49.9548 22.1646 49.9909 22.2129 50.0387 22.2471C50.0866 22.2813 50.1439 22.2998 50.2027 22.3C50.2298 22.2996 50.2567 22.2955 50.2827 22.2878C50.3183 22.2773 50.3515 22.2599 50.3804 22.2365C50.4093 22.2132 50.4332 22.1843 50.4509 22.1517C50.4686 22.119 50.4796 22.0832 50.4833 22.0462C50.4871 22.0093 50.4835 21.972 50.4727 21.9364L50.4707 21.9318L50.0183 20.4033C50.0861 20.356 50.1482 20.3011 50.2036 20.2397C50.2405 20.2018 50.2742 20.1609 50.3042 20.1175L50.7153 20.2397L51.8318 20.5717L51.8393 20.5735C51.8653 20.5811 51.8922 20.585 51.9192 20.5851C51.9802 20.5852 52.0395 20.5655 52.0884 20.529C52.1372 20.4926 52.1729 20.4413 52.1902 20.3828C52.204 20.3363 52.2053 20.2869 52.1938 20.2397ZM48.7579 19.4534C48.758 19.3355 48.793 19.2204 48.8585 19.1225C48.924 19.0245 49.0171 18.9482 49.126 18.9032C49.2349 18.8582 49.3546 18.8464 49.4702 18.8694C49.5857 18.8924 49.6919 18.9492 49.7752 19.0325C49.8585 19.1158 49.9152 19.222 49.9382 19.3375C49.9612 19.4531 49.9494 19.5729 49.9044 19.6817C49.8593 19.7906 49.783 19.8836 49.685 19.9491C49.5871 20.0146 49.4719 20.0496 49.3541 20.0497C49.2758 20.0497 49.1983 20.0343 49.1259 20.0043C49.0536 19.9743 48.9879 19.9304 48.9325 19.875C48.8771 19.8196 48.8332 19.7539 48.8033 19.6816C48.7733 19.6092 48.7579 19.5317 48.7579 19.4534ZM24.1317 20.6737L23.4173 20.676C22.0207 17.2005 22.3168 12.4252 22.3479 11.9804C22.3491 11.9689 22.3502 11.9597 22.3502 11.9539C22.3575 11.8651 22.3987 11.7825 22.4654 11.7234C22.5321 11.6643 22.619 11.6332 22.708 11.6366C22.7971 11.64 22.8814 11.6777 22.9433 11.7417C23.0052 11.8058 23.04 11.8913 23.0405 11.9804C23.0407 11.9889 23.0403 11.9973 23.0393 12.0058C23.0359 12.0565 22.6775 17.1083 24.1052 20.5319C24.1241 20.5768 24.1331 20.6251 24.1317 20.6737ZM37.4829 20.6234L36.7696 20.6269C36.7626 20.5523 36.78 20.4775 36.8192 20.4137C37.037 20.0576 37.9104 16.8057 37.385 14.4388C37.332 14.198 37.1372 13.5319 36.8364 12.5628C36.8354 12.5611 36.835 12.559 36.8352 12.557C36.8096 12.4699 36.8193 12.3763 36.8623 12.2963C36.9052 12.2163 36.9778 12.1564 37.0645 12.1295C37.113 12.1144 37.1642 12.1103 37.2144 12.1175C37.2647 12.1247 37.3127 12.143 37.355 12.171C37.423 12.2144 37.4732 12.2806 37.4967 12.3577C37.7134 13.056 37.9865 13.9571 38.0602 14.289C38.5822 16.6405 37.8528 19.7691 37.4829 20.6234ZM27.6833 13.9475H25.4604C25.3335 13.95 25.2127 14.0027 25.1246 14.094C25.0365 14.1854 24.9882 14.308 24.9902 14.4349C24.9894 14.5381 25.0213 14.639 25.0813 14.723C25.0991 14.7474 25.1141 14.7737 25.1262 14.8013C25.1292 14.891 25.1669 14.976 25.2315 15.0384C25.296 15.1007 25.3822 15.1356 25.4719 15.1355H25.4834C25.5288 15.1342 25.5734 15.1239 25.6148 15.1053C25.6562 15.0867 25.6935 15.06 25.7245 15.0269C25.7556 14.9939 25.7798 14.955 25.7958 14.9125C25.8118 14.87 25.8192 14.8248 25.8176 14.7794C25.8159 14.732 25.8093 14.6849 25.798 14.6389H27.6833C27.775 14.6389 27.8629 14.6024 27.9277 14.5376C27.9925 14.4728 28.029 14.3848 28.029 14.2932C28.029 14.2015 27.9925 14.1135 27.9277 14.0487C27.8629 13.9839 27.775 13.9475 27.6833 13.9475Z" fill="#2B2E2B"/>
<path d="M36.652 11.9799H22.0113C22.0113 11.9799 20.0869 11.9946 19.5892 11.6583C19.2993 11.4624 18.869 11.3904 18.5608 11.3646C18.5215 11.3612 18.4839 11.3478 18.4513 11.3257C18.4187 11.3037 18.3922 11.2737 18.3745 11.2385C18.3567 11.2034 18.3482 11.1643 18.3498 11.125C18.3514 11.0857 18.3629 11.0474 18.3834 11.0138C18.9406 10.0953 21.4089 7.98857 22.3014 7.86953C25.4324 7.72491 28.5743 7.78218 31.6787 8.27158C32.1724 8.34948 32.6369 8.55586 33.0257 8.87L34.9751 10.3305L36.652 11.9799Z" fill="#B3B9BD"/>
<path d="M36.7446 12.5752C36.9245 12.557 37.0924 12.4762 37.2189 12.347C37.3454 12.2178 37.4225 12.0483 37.437 11.868C37.4366 11.7004 37.4599 11.5336 37.5061 11.3725C37.6424 11.0082 37.4463 10.6191 37.0529 10.4633L36.1919 10.1224C35.9683 10.0352 35.7206 10.0327 35.4953 10.1153C35.0331 10.2858 34.3246 10.6158 34.511 10.9875C34.7826 11.5291 35.0472 12.4443 35.6451 12.3169C35.7145 12.2954 35.788 12.2906 35.8596 12.303C35.9312 12.3154 35.9989 12.3446 36.057 12.3882C36.1465 12.4649 36.2513 12.5216 36.3645 12.5547C36.4776 12.5878 36.5965 12.5964 36.7132 12.5801L36.7446 12.5752Z" fill="#FDD837"/>
<path d="M15.6631 11.3478C15.6631 11.4394 15.6267 11.5274 15.5619 11.5922C15.497 11.657 15.4091 11.6935 15.3174 11.6935H10.5248C10.4351 11.6938 10.3489 11.659 10.2845 11.5966C10.2201 11.5341 10.1827 11.449 10.1803 11.3593C10.3082 11.3547 10.4234 11.3512 10.5248 11.3478C10.8464 11.3375 11.1569 11.2276 11.4133 11.0332L11.4548 11.0021H15.3174C15.4091 11.0021 15.497 11.0385 15.5619 11.1033C15.6267 11.1681 15.6631 11.2561 15.6631 11.3478ZM2.77716 18.2326L2.36692 15.5511C2.2374 14.457 1.32071 14.4123 0.661455 14.3624C0.221951 14.3291 -0.124559 14.5251 0.042992 15.2843C0.116051 15.6155 0.72057 18.2919 2.75665 18.2319L2.77716 18.2326ZM57.9 16.7705C57.9 16.7705 58.6407 14.4703 58.6407 13.7685C58.6407 13.7685 56.9725 13.7978 56.5728 13.9049C56.1732 14.0121 55.9685 15.3378 55.8613 16.0199L55.8585 16.0378C55.8413 16.1629 55.8537 16.2902 55.8947 16.4096C55.9356 16.529 56.004 16.6371 56.0943 16.7253C56.1847 16.8135 56.2944 16.8793 56.4147 16.9174C56.5351 16.9556 56.6627 16.9649 56.7873 16.9448L57.9 16.7705Z" fill="#2B2E2B"/>
</svg>
