<svg width="31" height="32" viewBox="0 0 31 32" fill="none" xmlns="http://www.w3.org/2000/svg">
<path d="M29.5469 23.2656H3.39062V26.1719H29.5469V23.2656Z" fill="#2D2D30"/>
<path d="M29.5469 26.1719V27.625C29.5481 27.7877 29.5319 27.9501 29.4985 28.1094H3.43912C3.40575 27.9501 3.38952 27.7877 3.39068 27.625V26.1719H29.5469ZM29.5469 21.8125V23.2656H3.39068V21.8125C3.38952 21.6498 3.40575 21.4874 3.43912 21.3281H29.4985C29.5319 21.4874 29.5481 21.6498 29.5469 21.8125Z" fill="#57565C"/>
<path d="M3.43945 28.1094H29.4988C29.3872 28.6564 29.0899 29.1481 28.6574 29.5011C28.2249 29.8542 27.6837 30.047 27.1254 30.0469H5.81289C5.25457 30.047 4.71337 29.8542 4.28086 29.5011C3.84835 29.1481 3.55112 28.6564 3.43945 28.1094ZM29.4988 21.3281H3.43945C3.55112 20.7811 3.84835 20.2894 4.28086 19.9364C4.71337 19.5833 5.25457 19.3905 5.81289 19.3906H27.1254C27.6837 19.3905 28.2249 19.5833 28.6574 19.9364C29.0899 20.2894 29.3872 20.7811 29.4988 21.3281Z" fill="#2D2D30"/>
<path d="M14.5313 1.95312C11.9446 1.95313 9.41613 2.72014 7.26544 4.15719C5.11475 5.59423 3.4385 7.63675 2.44864 10.0265C1.45879 12.4162 1.1998 15.0458 1.70442 17.5827C2.20905 20.1196 3.45462 22.4499 5.28363 24.2789C7.11263 26.1079 9.44293 27.3535 11.9798 27.8581C14.5167 28.3627 17.1463 28.1037 19.536 27.1139C21.9258 26.124 23.9683 24.4478 25.4053 22.2971C26.8424 20.1464 27.6094 17.6179 27.6094 15.0312C27.6094 11.5627 26.2315 8.23624 23.7789 5.78362C21.3263 3.331 17.9998 1.95313 14.5313 1.95312ZM14.5313 21.8125C13.1901 21.8125 11.879 21.4148 10.7638 20.6697C9.64862 19.9245 8.77946 18.8654 8.2662 17.6263C7.75294 16.3872 7.61865 15.0237 7.88031 13.7083C8.14196 12.3929 8.78781 11.1846 9.73619 10.2362C10.6846 9.28781 11.8929 8.64196 13.2083 8.3803C14.5237 8.11864 15.8872 8.25294 17.1263 8.76619C18.3654 9.27945 19.4245 10.1486 20.1697 11.2638C20.9148 12.379 21.3125 13.69 21.3125 15.0312C21.3125 16.8297 20.5981 18.5546 19.3263 19.8263C18.0546 21.098 16.3298 21.8125 14.5313 21.8125Z" fill="#2D2D30"/>
<path d="M21.1575 13.5781C21.3642 14.5358 21.3642 15.5266 21.1575 16.4844H18.0381L20.242 18.6834C19.7147 19.5103 19.0139 20.2127 18.1883 20.742L15.9844 18.5381V21.6575C15.0267 21.8642 14.0359 21.8642 13.0781 21.6575V18.5381L10.8742 20.742C10.0486 20.2127 9.34786 19.5103 8.82047 18.6834L11.0244 16.4844H7.90501C7.69833 15.5266 7.69833 14.5358 7.90501 13.5781H11.0244L8.82047 11.3791C9.34833 10.5509 10.0509 9.84831 10.8791 9.32046L13.0781 11.5244V8.40499C14.0359 8.19832 15.0267 8.19832 15.9844 8.40499V11.5244L18.1834 9.32046C19.0116 9.84831 19.7142 10.5509 20.242 11.3791L18.0381 13.5781H21.1575Z" fill="#898890"/>
<path d="M14.5313 6.3125C12.8068 6.3125 11.1212 6.82385 9.68738 7.78187C8.25358 8.7399 7.13608 10.1016 6.47618 11.6947C5.81628 13.2879 5.64362 15.0409 5.98003 16.7322C6.31645 18.4235 7.14683 19.977 8.36617 21.1963C9.58551 22.4157 11.139 23.2461 12.8303 23.5825C14.5216 23.9189 16.2746 23.7462 17.8678 23.0863C19.4609 22.4264 20.8226 21.3089 21.7806 19.8751C22.7387 18.4413 23.25 16.7557 23.25 15.0312C23.25 12.7189 22.3314 10.5012 20.6963 8.86616C19.0613 7.23108 16.8436 6.3125 14.5313 6.3125ZM14.5313 21.8125C13.19 21.8125 11.879 21.4148 10.7638 20.6697C9.64862 19.9245 8.77945 18.8654 8.2662 17.6263C7.75294 16.3872 7.61865 15.0237 7.8803 13.7083C8.14196 12.3929 8.78781 11.1846 9.73619 10.2362C10.6846 9.28781 11.8929 8.64196 13.2083 8.3803C14.5237 8.11864 15.8872 8.25294 17.1263 8.76619C18.3654 9.27945 19.4245 10.1486 20.1697 11.2638C20.9148 12.379 21.3125 13.69 21.3125 15.0312C21.3125 16.8297 20.5981 18.5546 19.3263 19.8263C18.0546 21.098 16.3298 21.8125 14.5313 21.8125Z" fill="#C6C5CA"/>
<path d="M14.5313 5.82812C12.711 5.82813 10.9317 6.36788 9.41827 7.37913C7.90483 8.39038 6.72524 9.82772 6.02868 11.5094C5.33211 13.191 5.14986 15.0415 5.50496 16.8267C5.86007 18.6119 6.73658 20.2518 8.02366 21.5388C9.31074 22.8259 10.9506 23.7024 12.7358 24.0575C14.521 24.4126 16.3715 24.2304 18.0531 23.5338C19.7348 22.8373 21.1721 21.6577 22.1834 20.1442C23.1946 18.6308 23.7344 16.8515 23.7344 15.0312C23.7322 12.5911 22.7619 10.2515 21.0364 8.52607C19.311 6.80062 16.9714 5.83031 14.5313 5.82812ZM14.5313 23.2656C12.9026 23.2656 11.3106 22.7827 9.95648 21.8779C8.60234 20.9731 7.54692 19.687 6.92368 18.1824C6.30044 16.6778 6.13738 15.0221 6.4551 13.4248C6.77283 11.8275 7.55707 10.3603 8.70867 9.20867C9.86027 8.05707 11.3275 7.27282 12.9248 6.9551C14.5221 6.63737 16.1778 6.80044 17.6824 7.42368C19.187 8.04692 20.4731 9.10234 21.3779 10.4565C22.2827 11.8106 22.7656 13.4026 22.7656 15.0312C22.7626 17.2142 21.894 19.3069 20.3504 20.8504C18.8069 22.394 16.7142 23.2626 14.5313 23.2656Z" fill="black"/>
<path d="M27.5174 18.9353C28.0794 17.0696 28.2328 15.1048 27.9671 13.1745C27.7015 11.2442 27.0231 9.39379 25.978 7.74927C24.9329 6.10475 23.5458 4.70472 21.911 3.64449C20.2762 2.58426 18.4322 1.88873 16.5044 1.60524C14.5767 1.32176 12.6105 1.45698 10.7397 2.00171C8.86891 2.54643 7.13745 3.48786 5.66321 4.76191C4.18896 6.03595 3.00655 7.6127 2.19646 9.38481C1.38638 11.1569 0.967639 13.0828 0.968761 15.0312C0.96564 17.4895 1.6357 19.9018 2.90626 22.0062V27.625C2.90626 28.3958 3.21245 29.135 3.75748 29.68C4.30251 30.2251 5.04173 30.5312 5.81251 30.5312H27.125C27.8958 30.5312 28.635 30.2251 29.18 29.68C29.7251 29.135 30.0313 28.3958 30.0313 27.625V21.8125C30.0301 21.1103 29.7749 20.4322 29.3128 19.9034C28.8508 19.3746 28.2131 19.0307 27.5174 18.9353ZM28.7913 20.8437H26.7811C26.9313 20.5289 27.0669 20.2092 27.1928 19.8798C27.519 19.8923 27.8367 19.9872 28.1163 20.1558C28.3958 20.3244 28.628 20.5611 28.7913 20.8437ZM3.39548 20.9019C3.03056 20.2161 2.73055 19.4977 2.49939 18.7561L3.42939 18.5091L3.17751 17.5742L2.25235 17.8212C2.08061 17.0637 1.98007 16.2918 1.95204 15.5156H2.90626V14.5469H1.95204C1.98007 13.7706 2.08061 12.9987 2.25235 12.2412L3.17751 12.4883L3.42939 11.5534L2.49939 11.3064C2.73055 10.5648 3.03056 9.84639 3.39548 9.16062L4.22376 9.64015L4.70814 8.79734L3.87985 8.32265C4.29461 7.66755 4.76801 7.05148 5.29423 6.48203L5.96751 7.15531L6.65532 6.46749L5.98204 5.79421C6.55149 5.268 7.16756 4.79459 7.82267 4.37984L8.29735 5.20812L9.14017 4.72374L8.66063 3.89546C9.3464 3.53054 10.0648 3.23054 10.8064 2.99937L11.0534 3.92937L11.9883 3.67749L11.7413 2.75234C12.4988 2.5806 13.2707 2.48005 14.0469 2.45203V3.40624H15.0156V2.45203C15.7919 2.48005 16.5638 2.5806 17.3213 2.75234L17.0742 3.67749L18.0091 3.92937L18.2561 2.99937C18.9977 3.23054 19.7161 3.53054 20.4019 3.89546L19.9224 4.72374L20.7652 5.20812L21.2399 4.37984C21.895 4.79459 22.511 5.268 23.0805 5.79421L22.4072 6.46749L23.095 7.15531L23.7683 6.48203C24.2945 7.05148 24.7679 7.66755 25.1827 8.32265L24.3544 8.79734L24.8388 9.64015L25.667 9.16062C26.032 9.84639 26.332 10.5648 26.5631 11.3064L25.6331 11.5534L25.885 12.4883L26.8102 12.2412C26.9819 12.9987 27.0825 13.7706 27.1105 14.5469H26.1563V15.5156H27.1105C27.0825 16.2918 26.9819 17.0637 26.8102 17.8212L25.885 17.5742L25.6331 18.5091L26.5631 18.7561C26.332 19.4977 26.032 20.2161 25.667 20.9019L24.8388 20.4223L24.3544 21.2652L25.1827 21.7398C24.7679 22.3949 24.2945 23.011 23.7683 23.5805L23.095 22.9072L22.4072 23.595L23.0805 24.2683C22.511 24.7945 21.895 25.2679 21.2399 25.6827L20.7652 24.8544L19.9224 25.3387L20.4019 26.167C19.7161 26.5319 18.9977 26.832 18.2561 27.0631L18.0091 26.1331L17.0742 26.385L17.3213 27.3102C16.5638 27.4819 15.7919 27.5824 15.0156 27.6105V26.6562H14.0469V27.6105C13.2707 27.5824 12.4988 27.4819 11.7413 27.3102L11.9883 26.385L11.0534 26.1331L10.8064 27.0631C10.0648 26.832 9.3464 26.5319 8.66063 26.167L9.14017 25.3387L8.29735 24.8544L7.82267 25.6827C7.16756 25.2679 6.55149 24.7945 5.98204 24.2683L6.65532 23.595L5.96751 22.9072L5.29423 23.5805C4.76801 23.011 4.29461 22.3949 3.87985 21.7398L4.70814 21.2652L4.22376 20.4223L3.39548 20.9019ZM6.15642 25.6875H3.87501V23.4061C4.54323 24.2535 5.30898 25.0193 6.15642 25.6875ZM3.87501 26.6562H7.55626C8.17937 27.032 8.83223 27.356 9.50829 27.625H3.87501V26.6562ZM27.125 29.5625H5.81251C5.47419 29.5614 5.14211 29.4713 4.84963 29.3013C4.55715 29.1313 4.31457 28.8872 4.14626 28.5937H28.7913C28.623 28.8872 28.3804 29.1313 28.0879 29.3013C27.7954 29.4713 27.4633 29.5614 27.125 29.5625ZM29.0625 27.625H19.5542C20.2303 27.356 20.8832 27.032 21.5063 26.6562H29.0625V27.625ZM29.0625 25.6875H22.9061C23.6383 25.1111 24.3102 24.4619 24.9114 23.75H29.0625V25.6875ZM29.0625 22.7812H25.6525C25.8705 22.4664 26.0788 22.1467 26.2677 21.8125H29.0625V22.7812Z" fill="black"/>
<path d="M14.5313 7.76562C13.0942 7.76563 11.6895 8.19175 10.4947 8.9901C9.29986 9.78846 8.36861 10.9232 7.81869 12.2508C7.26877 13.5784 7.12489 15.0393 7.40524 16.4487C7.68558 17.8581 8.37756 19.1527 9.39368 20.1688C10.4098 21.1849 11.7044 21.8769 13.1138 22.1573C14.5232 22.4376 15.9841 22.2937 17.3117 21.7438C18.6393 21.1939 19.774 20.2626 20.5724 19.0678C21.3708 17.873 21.7969 16.4683 21.7969 15.0312C21.7946 13.105 21.0283 11.2583 19.6663 9.89623C18.3042 8.53416 16.4575 7.76793 14.5313 7.76562ZM20.1355 12.1734C20.2878 12.4693 20.4157 12.7771 20.5181 13.0938H19.2103L20.1355 12.1734ZM16.4688 9.04437C16.7854 9.14677 17.0932 9.27475 17.3891 9.42703L16.4688 10.3522V9.04437ZM12.5938 9.04437V10.3522L11.6734 9.42703C11.9693 9.27475 12.2771 9.14677 12.5938 9.04437ZM8.92703 12.1734L9.85219 13.0938H8.54438C8.64678 12.7771 8.77475 12.4693 8.92703 12.1734ZM8.92703 17.8891C8.77475 17.5932 8.64678 17.2854 8.54438 16.9688H9.85219L8.92703 17.8891ZM12.5938 21.0181C12.2747 20.9162 11.9651 20.7865 11.6686 20.6306L12.5938 19.7055V21.0181ZM16.4688 21.0181V19.7055L17.3939 20.6306C17.0974 20.7865 16.7878 20.9162 16.4688 21.0181ZM20.1355 17.8891L19.2103 16.9688H20.5181C20.4157 17.2854 20.2878 17.5932 20.1355 17.8891ZM18.0381 16C17.9423 15.9996 17.8486 16.0281 17.7691 16.0816C17.6897 16.1352 17.6281 16.2114 17.5925 16.3003C17.5554 16.3885 17.5453 16.4857 17.5634 16.5797C17.5815 16.6737 17.627 16.7602 17.6942 16.8283L19.6123 18.7367C19.2283 19.2612 18.766 19.7235 18.2416 20.1075L16.3283 18.1942C16.2602 18.127 16.1737 18.0815 16.0797 18.0634C15.9857 18.0453 15.8885 18.0554 15.8003 18.0925C15.7114 18.1281 15.6352 18.1897 15.5816 18.2691C15.5281 18.3486 15.4996 18.4423 15.5 18.5381V21.2458C14.8588 21.3556 14.2037 21.3556 13.5625 21.2458V18.5381C13.5629 18.4423 13.5344 18.3486 13.4809 18.2691C13.4273 18.1897 13.3511 18.1281 13.2622 18.0925C13.174 18.0554 13.0768 18.0453 12.9828 18.0634C12.8888 18.0815 12.8023 18.127 12.7342 18.1942L10.8209 20.1075C10.2965 19.7235 9.83418 19.2612 9.45016 18.7367L11.3683 16.8283C11.4355 16.7602 11.481 16.6737 11.4991 16.5797C11.5172 16.4857 11.5071 16.3885 11.47 16.3003C11.4344 16.2114 11.3728 16.1352 11.2934 16.0816C11.2139 16.0281 11.1202 15.9996 11.0244 16H8.31672C8.20693 15.3588 8.20693 14.7037 8.31672 14.0625H11.0244C11.1202 14.0629 11.2139 14.0344 11.2934 13.9809C11.3728 13.9273 11.4344 13.8511 11.47 13.7622C11.5071 13.674 11.5172 13.5768 11.4991 13.4828C11.481 13.3888 11.4355 13.3023 11.3683 13.2342L9.45016 11.3258C9.83578 10.7997 10.2997 10.3358 10.8258 9.95016L12.7342 11.8683C12.8258 11.9586 12.9495 12.0091 13.0781 12.0087C13.206 12.0069 13.3281 11.9552 13.4186 11.8648C13.509 11.7744 13.5606 11.6523 13.5625 11.5244V8.81672C14.2037 8.70693 14.8588 8.70693 15.5 8.81672V11.5244C15.5019 11.6523 15.5535 11.7744 15.6439 11.8648C15.7344 11.9552 15.8565 12.0069 15.9844 12.0087C16.1131 12.0091 16.2367 11.9586 16.3283 11.8683L18.2367 9.95016C18.7628 10.3358 19.2267 10.7997 19.6123 11.3258L17.6942 13.2342C17.627 13.3023 17.5815 13.3888 17.5634 13.4828C17.5453 13.5768 17.5554 13.674 17.5925 13.7622C17.6281 13.8511 17.6897 13.9273 17.7691 13.9809C17.8486 14.0344 17.9423 14.0629 18.0381 14.0625H20.7458C20.8556 14.7037 20.8556 15.3588 20.7458 16H18.0381Z" fill="black"/>
</svg>
