<svg width="25" height="20" viewBox="0 0 25 20" fill="none" xmlns="http://www.w3.org/2000/svg">
<path d="M23.75 7.5H2.5V1.25C2.5 0.918479 2.3683 0.600537 2.13388 0.366117C1.89946 0.131696 1.58152 0 1.25 0C0.918479 0 0.600537 0.131696 0.366116 0.366117C0.131696 0.600537 0 0.918479 0 1.25V18.75C0 19.0815 0.131696 19.3995 0.366116 19.6339C0.600537 19.8683 0.918479 20 1.25 20C1.58152 20 1.89946 19.8683 2.13388 19.6339C2.3683 19.3995 2.5 19.0815 2.5 18.75V17.5H22.5V18.75C22.5 19.0815 22.6317 19.3995 22.8661 19.6339C23.1005 19.8683 23.4185 20 23.75 20C24.0815 20 24.3995 19.8683 24.6339 19.6339C24.8683 19.3995 25 19.0815 25 18.75V8.75C25 8.41848 24.8683 8.10054 24.6339 7.86612C24.3995 7.6317 24.0815 7.5 23.75 7.5Z" fill="black"/>
<path d="M22.5 5H10C9.33696 5 8.70107 5.26339 8.23223 5.73223C7.76339 6.20107 7.5 6.83696 7.5 7.5V11.25C7.5 11.5815 7.6317 11.8995 7.86612 12.1339C8.10054 12.3683 8.41848 12.5 8.75 12.5H23.75C24.0815 12.5 24.3995 12.3683 24.6339 12.1339C24.8683 11.8995 25 11.5815 25 11.25V7.5C25 6.83696 24.7366 6.20107 24.2678 5.73223C23.7989 5.26339 23.163 5 22.5 5Z" fill="#FBBC05"/>
</svg>
