<svg width="200" height="112" viewBox="0 0 200 112" fill="none" xmlns="http://www.w3.org/2000/svg">
<path d="M63.1458 111.113C60.4382 111.113 57.9849 111.146 55.5316 111.076C55.1925 111.076 54.7686 110.632 54.5513 110.29C52.1404 106.438 49.7401 102.581 47.3875 98.6969C47.2442 98.3752 47.0016 98.1091 46.6959 97.9384C46.3902 97.7677 46.038 97.7016 45.6919 97.75C44.8177 97.8302 43.9275 97.75 42.926 97.75V111.033H35.6562V76.592C35.7622 76.5492 35.8576 76.4636 35.9477 76.469C40.5416 76.5225 45.1409 76.4369 49.7242 76.7044C52.7127 76.8809 55.5528 77.9134 57.5186 80.4117C60.8356 84.5737 59.8818 91.2715 55.5263 94.4867C54.7845 95.0217 53.9791 95.4924 53.0783 96.0916C56.39 101.019 59.6964 105.962 63.1458 111.113ZM42.9843 82.2252V92.0151C45.1621 91.753 47.2551 91.6353 49.2791 91.2127C51.0171 90.8543 52.0822 88.9979 52.0663 86.9651C52.0504 84.9322 51.1178 83.4075 49.2686 83.0223C47.2392 82.5997 45.1462 82.4767 42.9843 82.2145V82.2252Z" fill="white"/>
<path d="M106.469 76.4771H113.622V91.8146L113.871 91.9269C114.094 91.6487 114.327 91.392 114.544 91.0977C118.172 86.4078 121.803 81.7162 125.438 77.0227C125.638 76.7472 125.933 76.5566 126.265 76.4878C128.744 76.445 131.224 76.4878 133.99 76.4878L121.994 91.7504L134.123 111.1C131.897 111.1 129.884 110.993 127.881 111.132C126.344 111.239 125.491 110.726 124.702 109.367C122.259 105.162 119.631 101.064 117.071 96.9235C116.97 96.7778 116.861 96.6384 116.743 96.5063C115.81 97.175 114.862 97.8009 113.993 98.5231C113.767 98.831 113.662 99.2117 113.696 99.593C113.696 103.001 113.696 106.409 113.696 109.816V111.041H106.469V76.4771Z" fill="white"/>
<path d="M142.844 111.045V76.5078H162.592V82.3925H150.188V90.0318H161.749V96.0555H150.188V104.995H162.613V111.045H142.844Z" fill="white"/>
<path d="M188.675 111.056H181.357V109.852C181.357 106.23 181.384 102.609 181.357 98.987C181.346 98.2421 181.164 97.5099 180.827 96.8472C177.41 90.3634 173.939 83.901 170.489 77.4332C170.346 77.1604 170.235 76.8982 170.039 76.4382C172.635 76.4382 175.078 76.4382 177.521 76.4703C177.765 76.4703 178.088 76.8554 178.226 77.1336C180.391 81.449 182.547 85.7698 184.695 90.0959C184.796 90.2586 184.906 90.4158 185.024 90.5666C185.23 90.1815 185.4 89.8872 185.554 89.5823C187.599 85.5273 189.665 81.4776 191.668 77.4011C191.789 77.0736 192.018 76.7979 192.316 76.6198C192.614 76.4417 192.963 76.3719 193.306 76.4221C195.473 76.481 197.64 76.4221 199.998 76.4221C199.653 77.1122 199.388 77.6846 199.092 78.2356C195.822 84.3289 192.5 90.3901 189.252 96.478C188.908 97.1706 188.727 97.934 188.722 98.7089C188.664 102.4 188.696 106.097 188.696 109.788L188.675 111.056Z" fill="white"/>
<path d="M78.9672 111.031C78.9672 107.077 78.9354 103.311 78.9672 99.5448C78.9962 98.4405 78.7308 97.3485 78.1989 96.3831C74.8131 90.1187 71.4696 83.8328 68.1314 77.5523C67.9672 77.242 67.8347 76.921 67.6016 76.4449C70.1767 76.4449 72.6141 76.4128 75.0515 76.4823C75.3376 76.4823 75.6979 76.9638 75.8675 77.3008C77.9393 81.388 79.9846 85.4858 82.0352 89.6051C82.1941 89.9207 82.3743 90.2257 82.6127 90.675C83.736 88.4549 84.8011 86.3578 85.8608 84.2554C87.0583 81.8909 88.2293 79.5156 89.4533 77.1671C89.5343 77.0039 89.6491 76.8603 89.7899 76.7458C89.9306 76.6314 90.0941 76.5488 90.2693 76.5037C92.6537 76.4502 95.0381 76.4716 97.6239 76.4716C96.8397 77.9535 96.1402 79.3016 95.4196 80.639C92.5053 86.0529 89.5222 91.4882 86.6026 96.9448C86.3548 97.4428 86.226 97.9925 86.2264 98.5498C86.1893 102.177 86.2264 105.799 86.2264 109.42V111.025L78.9672 111.031Z" fill="white"/>
<path d="M16.5478 111.075H9.26739V82.6196H0V76.5156H25.8681V82.5501H16.5478V111.075Z" fill="white"/>
<path d="M71.2243 31.7755C71.2243 23.2161 71.2243 14.6441 71.2243 6.05966C71.2243 2.75891 73.1954 0.758136 76.4806 0.758136C88.7312 0.758136 100.982 0.758136 113.232 0.758136C117.001 0.734036 120.657 2.05708 123.553 4.49307C126.449 6.92907 128.397 10.3209 129.054 14.0681C129.177 14.954 129.223 15.849 129.192 16.743C129.192 29.1542 129.149 41.5655 129.234 53.9767C129.247 54.6557 129.124 55.3303 128.873 55.9602C128.622 56.5902 128.247 57.1625 127.772 57.6429C127.297 58.1234 126.73 58.5021 126.106 58.7564C125.483 59.0107 124.815 59.1354 124.142 59.1231C106.907 59.1231 89.6708 59.1231 72.4324 59.1231C71.4999 59.1231 71.2031 58.8289 71.2031 57.8873C71.2349 49.2101 71.2243 40.4902 71.2243 31.7755ZM103.62 22.3708H102.359C98.6503 22.3708 94.9412 22.3708 91.2321 22.3708C87.4383 22.3708 85.2499 24.5481 85.2393 28.3518C85.2393 33.1558 85.2393 37.9705 85.2393 42.7959C85.2393 46.5086 87.4754 48.7394 91.1632 48.7501C97.0766 48.7501 102.985 48.7501 108.893 48.7501C109.216 48.7501 109.534 48.7501 109.852 48.7073C111.16 48.588 112.378 47.9822 113.269 47.0075C114.16 46.0329 114.66 44.7588 114.673 43.4325C114.716 38.2005 114.705 32.9632 114.673 27.7312C114.684 26.6074 114.337 25.5099 113.683 24.6C113.03 23.69 112.105 23.0156 111.044 22.6758C110.38 22.4912 109.706 22.3483 109.025 22.2478C109.264 19.2359 108.877 16.3631 106.683 13.9932C105.681 12.8634 104.412 12.0065 102.996 11.5016C101.579 10.9968 100.059 10.8602 98.5761 11.1044C94.0192 11.7196 90.6281 16.2615 91.0043 20.3005C92.4031 20.3005 93.8179 20.3005 95.2432 20.3005C95.9638 20.3005 96.3612 20.2256 96.5149 19.3376C96.6181 18.654 96.9322 18.0207 97.4127 17.5279C97.8931 17.0352 98.5154 16.708 99.1907 16.5932C99.8702 16.4179 100.586 16.4555 101.244 16.7011C101.902 16.9467 102.47 17.3886 102.873 17.968C103.885 19.2466 103.631 20.7231 103.62 22.3708ZM111.319 17.1549C111.494 17.1992 111.671 17.2313 111.849 17.2512C116.438 17.203 121.032 17.1388 125.626 17.1174C126.452 17.1174 126.537 16.7483 126.452 16.0475C125.811 10.6978 122.95 6.92096 118.25 4.51896C116.099 3.42691 113.71 2.90066 111.304 2.98895L111.319 17.1549Z" fill="white"/>
<path d="M99.9646 39.0537C99.0674 39.0509 98.2079 38.6898 97.5735 38.0493C96.9391 37.4088 96.5815 36.541 96.5787 35.6352C96.5703 35.1768 96.6518 34.7212 96.8184 34.2947C96.9851 33.8682 97.2337 33.4791 97.5498 33.15C97.866 32.8208 98.2435 32.558 98.6607 32.3768C99.0778 32.1955 99.5264 32.0993 99.9805 32.0938C100.898 32.1063 101.773 32.4804 102.421 33.1361C103.068 33.7918 103.436 34.6772 103.446 35.6031C103.436 36.5264 103.064 37.408 102.412 38.0548C101.759 38.7016 100.879 39.0608 99.9646 39.0537Z" fill="white"/>
<path d="M114.138 6.21875C117.847 6.46484 121.986 10.0973 123.146 14.1577C122.341 14.3931 121.763 14.4305 121.339 13.4301C120.126 10.5627 117.89 8.74915 114.981 7.80225C114.117 7.50802 113.879 7.1175 114.138 6.21875Z" fill="white"/>
<path d="M118.637 14.2862H114.398V10.6484C116.232 11.2472 117.757 12.5552 118.637 14.2862Z" fill="white"/>
</svg>
